{"glyphs":{"0":{"ha":700,"x_min":57,"x_max":644,"o":"m 397 963 q 360 979 369 979 q 297 929 342 979 q 247 856 251 879 q 244 845 247 851 q 238 829 242 839 q 232 814 233 819 q 192 522 192 717 q 203 330 192 400 q 243 200 214 260 q 291 132 263 160 q 340 104 319 104 q 392 134 360 104 q 442 197 425 164 q 513 526 504 325 q 514 583 514 546 q 483 828 514 726 q 397 963 451 929 m 272 1022 q 328 1032 300 1032 q 404 1025 361 1032 q 549 957 497 1011 q 622 826 601 903 q 644 613 643 750 l 644 601 q 518 118 644 242 q 442 68 482 82 q 336 54 401 54 q 234 67 271 54 q 163 115 197 81 q 87 251 111 167 q 58 479 63 335 q 58 508 58 489 q 57 535 57 526 q 129 879 57 765 q 272 1022 203 997 z "},"1":{"ha":385,"x_min":61,"x_max":333,"o":"m 61 935 q 126 974 61 944 q 206 1003 192 1003 q 267 986 224 1003 q 308 967 297 975 q 324 942 318 960 q 333 813 333 910 q 325 607 333 724 q 315 249 318 486 q 308 11 313 15 q 299 10 307 10 q 248 19 281 10 q 204 36 215 28 q 193 67 196 43 q 190 186 190 92 l 190 297 q 199 725 190 438 l 203 901 l 168 897 l 158 897 q 94 910 128 897 q 61 935 61 922 z "},"2":{"ha":676,"x_min":61,"x_max":621,"o":"m 253 1025 q 313 1032 281 1032 q 444 1012 375 1032 q 549 961 513 992 q 603 892 585 931 q 621 818 621 854 q 620 802 621 814 q 619 782 619 790 q 610 711 618 735 q 564 613 601 688 q 311 229 475 438 q 225 110 225 121 q 351 101 225 101 q 582 54 582 101 q 418 49 582 49 l 347 49 q 138 53 172 51 q 86 69 104 56 q 61 97 61 88 q 115 178 61 111 q 316 444 250 347 q 435 644 382 540 q 493 833 493 761 q 453 942 493 896 q 407 972 428 972 q 398 972 404 972 q 388 971 392 971 q 301 925 338 965 q 264 835 265 885 q 254 808 264 811 l 242 808 q 173 821 206 808 q 135 850 140 833 q 133 860 133 853 q 140 906 133 878 q 183 978 149 943 q 253 1025 217 1014 z "},"3":{"ha":629,"x_min":60,"x_max":572,"o":"m 214 1026 q 254 1035 247 1031 q 265 1033 256 1035 q 294 1029 275 1032 q 328 1024 313 1026 q 449 987 407 1010 q 519 921 492 964 q 536 844 536 894 q 514 742 536 786 q 394 588 471 649 q 354 553 354 557 q 411 536 354 549 q 565 394 536 504 q 572 331 572 372 q 546 196 572 249 q 489 117 526 158 q 419 58 451 76 q 192 4 326 4 q 125 13 153 4 q 75 39 75 29 q 149 57 75 51 q 334 124 258 67 q 438 276 410 182 q 446 339 446 306 q 393 486 446 440 q 289 504 376 501 q 153 538 153 508 q 215 583 153 543 q 346 704 296 635 q 406 844 396 774 q 407 864 407 851 q 382 944 407 913 q 319 976 357 976 q 300 974 314 976 q 185 857 197 950 l 181 821 l 149 824 q 63 861 68 831 q 60 883 60 875 q 104 974 60 932 q 214 1026 149 1015 z "},"4":{"ha":733,"x_min":60,"x_max":675,"o":"m 494 1038 q 522 1050 500 1050 q 574 1042 544 1050 q 607 1026 603 1033 q 614 754 611 1019 q 621 432 617 482 q 629 382 625 390 q 651 368 633 374 q 675 350 675 361 q 653 335 675 339 l 629 331 l 626 181 l 625 31 l 575 33 q 504 57 515 36 q 493 193 493 78 l 493 321 l 418 314 q 278 308 351 308 q 119 324 165 308 q 60 383 60 344 q 64 411 60 394 q 135 600 71 447 q 196 753 154 647 q 247 883 238 860 q 313 1025 299 1014 q 344 1032 322 1032 q 414 1014 386 1032 q 426 982 432 1003 q 368 817 419 951 q 275 586 317 682 q 194 381 206 424 q 193 368 193 375 q 199 360 193 361 q 231 358 206 358 q 382 368 275 358 l 492 376 l 490 700 l 490 794 q 494 1038 490 1028 z "},"5":{"ha":642,"x_min":58,"x_max":586,"o":"m 265 1039 q 315 1043 269 1043 q 440 1035 403 1043 q 499 1003 499 1022 q 496 996 499 1001 q 407 988 490 988 q 264 983 314 988 l 204 978 l 204 847 q 206 734 204 751 q 219 717 208 717 q 303 703 233 717 q 381 689 372 690 q 457 659 408 688 q 531 601 506 631 q 586 440 586 540 q 539 253 586 349 q 456 138 504 183 q 322 53 407 92 q 267 33 288 36 q 192 28 247 29 q 85 43 114 28 q 58 65 58 57 q 114 81 58 76 q 282 145 196 88 q 408 278 368 203 q 453 472 453 364 q 428 569 453 521 q 394 619 401 619 q 351 639 382 624 q 308 654 329 651 q 224 658 288 657 q 101 674 128 658 l 72 689 l 72 850 q 83 1022 72 1010 q 178 1035 94 1033 q 265 1039 264 1038 z "},"6":{"ha":758,"x_min":57,"x_max":701,"o":"m 450 553 q 364 574 418 569 l 351 574 q 210 510 285 574 l 175 479 l 179 401 q 322 121 188 214 q 367 95 351 100 q 411 90 382 90 q 486 114 458 90 q 574 318 574 186 q 573 333 574 324 q 572 346 572 342 q 540 473 569 425 q 450 553 511 521 m 453 1035 q 564 1049 507 1049 q 636 1028 636 1049 q 603 1013 636 1022 q 549 1004 569 1004 q 465 972 535 1004 q 344 885 403 942 q 254 767 285 828 q 215 674 235 731 q 196 604 196 618 q 206 601 200 600 q 229 608 213 603 q 357 618 254 618 q 503 600 456 617 q 701 328 701 532 q 627 116 701 192 q 418 40 553 40 q 405 41 414 40 q 390 42 396 42 q 121 188 214 54 q 67 291 78 247 q 57 447 57 335 q 75 642 57 578 q 217 897 119 796 q 453 1035 315 999 z "},"7":{"ha":674,"x_min":61,"x_max":615,"o":"m 135 1013 q 390 1018 219 1018 q 603 1011 589 1018 q 615 994 615 1006 q 586 942 615 981 q 407 619 492 815 q 288 250 322 424 q 236 44 250 58 q 183 36 228 36 q 125 46 135 36 q 119 60 119 51 q 163 294 119 81 q 271 640 197 464 q 358 811 292 690 q 443 950 425 932 q 454 967 454 961 q 278 974 454 971 q 99 978 138 975 q 61 996 61 982 q 135 1013 61 1007 z "},"8":{"ha":642,"x_min":60,"x_max":583,"o":"m 372 324 q 306 382 317 382 q 275 351 297 382 q 236 290 253 321 q 222 221 228 272 q 221 194 221 211 q 247 119 221 143 q 335 89 274 94 l 351 89 q 444 144 425 89 q 451 175 451 165 q 442 221 451 182 q 372 324 428 268 m 354 931 q 300 958 326 958 q 250 939 278 958 q 192 801 192 900 q 242 611 192 714 q 303 515 265 564 q 356 467 342 467 q 374 481 367 467 q 422 649 406 544 q 426 704 426 676 q 406 835 426 771 q 354 931 386 899 m 190 990 q 288 1003 224 1003 l 317 1003 q 393 997 374 1001 q 439 978 413 993 q 536 844 503 940 q 550 704 550 807 q 547 610 550 636 q 528 539 543 583 q 479 435 503 467 q 453 390 453 396 q 496 343 453 386 q 583 176 583 257 q 461 51 583 79 q 349 39 407 39 q 190 63 261 39 q 99 126 119 88 q 86 188 86 151 q 131 328 86 260 q 157 374 157 367 q 192 413 157 381 l 226 446 l 196 479 q 97 637 133 549 q 60 803 60 725 q 79 897 60 856 q 190 990 111 963 z "},"9":{"ha":711,"x_min":58,"x_max":656,"o":"m 372 969 q 338 981 350 981 q 299 967 324 981 q 208 840 236 929 q 194 744 194 797 q 226 596 194 667 q 313 482 257 525 q 422 438 368 438 q 486 463 461 438 q 524 649 524 500 q 508 771 524 726 q 448 894 485 840 q 372 969 411 949 m 221 1018 q 338 1026 249 1026 l 356 1026 q 458 1015 425 1026 q 532 965 490 1003 q 636 800 599 906 q 656 682 656 746 l 656 658 q 544 286 654 471 q 410 129 501 211 q 265 36 318 47 q 235 33 256 33 q 190 39 210 33 q 171 51 171 44 q 213 90 171 58 q 385 253 321 168 q 435 329 411 288 q 458 382 458 371 q 403 389 458 389 q 164 485 260 389 q 58 749 58 590 q 101 916 58 842 q 221 1018 143 990 z "},"\u0000":{"ha":347,"x_min":0,"x_max":0,"o":""},"\r":{"ha":347,"x_min":0,"x_max":0,"o":""}," ":{"ha":347,"x_min":0,"x_max":0,"o":""},"!":{"ha":293,"x_min":53,"x_max":235,"o":"m 75 1040 q 96 1049 78 1049 q 174 1032 132 1049 l 192 1025 l 193 711 q 197 343 196 375 l 199 288 l 158 289 q 96 301 115 292 q 76 322 81 308 q 64 382 71 335 q 53 651 53 454 q 75 1040 53 974 m 86 168 q 124 179 101 183 q 176 169 135 176 q 224 149 213 163 q 235 100 235 136 q 215 44 235 57 q 172 35 201 35 q 92 56 125 35 q 63 111 63 72 q 86 168 63 144 z "},"\"":{"ha":497,"x_min":56,"x_max":446,"o":"m 71 996 q 94 1001 82 1003 q 144 994 110 1001 q 181 985 178 988 q 189 818 183 978 l 193 657 l 142 661 q 78 676 92 665 q 56 872 56 699 q 71 996 56 985 m 303 957 q 314 992 303 985 q 351 999 325 999 q 413 990 381 999 q 431 942 426 986 q 444 717 436 897 q 442 698 446 701 q 419 692 438 694 q 409 691 415 692 q 400 690 403 690 q 329 715 347 690 q 308 857 317 735 q 303 957 303 925 z "},"#":{"ha":775,"x_min":61,"x_max":717,"o":"m 463 646 q 462 656 465 653 q 444 657 458 658 l 411 656 q 353 651 378 654 q 324 644 328 649 q 311 588 321 642 q 292 478 301 535 q 282 418 283 422 q 281 410 281 415 q 296 403 281 403 q 335 406 299 403 q 415 424 403 411 q 442 528 426 438 q 451 581 446 553 q 459 626 456 608 q 463 646 463 643 m 239 1003 q 267 1031 239 1031 q 297 1026 276 1031 q 319 1021 317 1021 q 353 1009 344 1017 q 361 976 361 1001 q 353 892 361 972 q 343 808 349 860 q 336 746 338 756 l 331 704 l 400 710 q 475 721 469 715 q 500 844 479 725 q 521 985 521 964 q 523 999 521 996 q 536 1003 525 1003 q 567 1000 539 1003 q 626 986 615 994 q 638 949 638 975 q 622 824 638 922 l 608 726 q 657 714 608 724 q 717 690 717 704 q 647 669 717 676 l 593 664 l 576 565 q 554 451 558 463 q 553 447 554 450 l 553 444 q 592 429 553 433 q 685 396 685 418 q 683 385 685 386 l 672 383 q 644 379 663 382 q 610 375 626 376 l 540 365 l 514 210 q 485 29 485 31 q 476 7 482 11 q 450 3 471 3 q 390 15 415 3 q 364 43 364 26 q 383 180 364 57 q 408 333 401 303 l 413 356 l 344 350 q 271 342 274 344 q 239 181 267 338 l 211 22 l 163 24 q 122 26 133 25 q 103 36 111 28 q 96 64 96 44 q 114 194 96 86 q 136 340 136 328 q 99 356 136 344 q 61 383 61 368 q 104 394 61 393 l 149 397 l 167 499 q 183 622 183 601 q 167 643 183 643 q 119 656 146 643 q 92 678 92 668 q 136 690 92 690 q 190 696 179 690 q 218 834 197 700 q 239 1003 239 968 z "},"$":{"ha":656,"x_min":61,"x_max":597,"o":"m 465 315 q 426 389 465 353 l 411 403 l 411 319 q 418 242 411 242 q 426 244 421 242 q 453 274 440 251 q 465 315 465 297 m 268 704 q 269 731 268 711 q 269 761 269 750 q 269 791 269 772 q 268 817 268 810 l 267 874 l 249 846 q 231 768 231 818 q 249 682 231 718 l 267 647 l 268 704 m 268 1029 l 271 1104 l 315 1104 q 379 1090 367 1104 q 394 1013 392 1075 l 399 943 l 439 938 q 548 903 500 929 q 596 854 596 878 q 594 849 596 850 q 567 839 590 839 q 465 869 511 839 q 414 893 435 893 q 403 885 406 893 q 400 842 400 878 q 401 719 400 776 q 407 528 404 550 q 464 472 413 510 q 590 342 571 392 q 597 293 597 324 q 590 263 597 275 q 557 225 582 250 q 467 163 519 188 l 419 139 l 419 60 l 418 -21 l 372 -21 q 306 -12 328 -21 q 289 2 292 -7 q 286 54 286 11 q 283 104 286 97 q 264 113 281 111 q 153 153 217 114 q 71 233 90 193 q 61 260 61 253 q 72 274 61 265 q 121 283 83 283 q 172 275 153 283 q 194 250 189 268 q 231 202 197 238 q 272 167 264 167 q 278 338 278 167 l 278 508 l 242 536 q 93 761 104 636 q 92 785 92 769 q 213 936 92 896 l 267 954 l 268 1029 z "},"%":{"ha":1144,"x_min":58,"x_max":1088,"o":"m 760 985 l 803 1049 l 856 1049 q 915 1043 915 1049 q 846 913 915 1032 q 672 604 808 849 q 354 53 394 103 q 327 31 338 35 q 279 26 317 26 q 222 35 222 26 q 256 103 222 50 q 394 339 301 176 q 671 835 489 504 q 760 985 704 896 m 304 894 q 265 939 283 931 q 256 942 257 942 q 232 908 247 942 q 189 663 189 810 q 206 554 189 588 q 242 514 225 514 q 279 538 256 514 q 349 710 343 599 q 349 722 349 714 q 350 735 350 731 q 304 894 350 822 m 157 993 q 191 1015 178 1011 q 249 1018 204 1018 l 311 1018 l 367 974 q 475 785 456 900 q 479 733 479 760 q 394 515 479 600 q 242 457 336 457 q 228 458 238 457 q 214 458 219 458 q 128 483 158 463 q 78 547 99 503 q 58 644 58 590 l 58 671 q 87 866 60 778 q 157 993 114 954 m 899 525 q 867 550 874 550 q 840 506 860 550 q 810 425 819 461 q 792 292 792 353 q 824 142 792 201 q 856 99 842 106 l 857 97 q 860 97 858 97 q 904 135 876 97 q 943 211 932 172 q 960 328 960 265 q 899 525 960 464 m 768 596 q 835 613 789 613 q 997 563 921 613 q 1060 483 1031 540 q 1083 424 1079 443 q 1088 339 1088 404 q 1079 228 1088 265 q 1043 143 1071 190 q 864 38 979 38 q 818 42 842 38 q 672 182 711 64 q 661 274 661 218 q 689 456 661 381 q 768 596 725 564 z "},"&":{"ha":921,"x_min":60,"x_max":863,"o":"m 451 358 q 342 464 346 464 q 281 408 329 464 q 215 317 232 351 q 188 189 188 257 q 200 119 188 147 q 286 60 232 60 q 291 60 288 60 q 296 61 294 61 q 426 123 353 72 q 540 232 499 174 l 556 254 l 451 358 m 390 957 q 357 969 369 969 q 315 949 344 969 q 244 818 244 897 q 253 764 244 792 q 301 667 265 722 q 350 613 336 613 q 393 656 360 613 q 443 735 426 700 q 461 815 461 771 q 442 899 461 860 q 390 957 424 938 m 243 1008 q 325 1015 264 1015 l 347 1015 q 462 997 419 1014 q 540 940 504 981 q 593 814 593 883 q 592 803 593 811 q 592 792 592 796 q 564 696 588 739 q 481 590 540 653 l 418 525 q 607 338 543 400 l 651 418 q 706 504 696 499 q 744 511 717 511 q 796 503 772 511 q 819 482 819 496 q 776 390 819 472 q 710 275 732 307 q 694 246 694 254 q 778 151 694 244 q 863 50 863 58 q 826 43 863 43 q 763 53 783 43 q 683 114 736 63 l 629 165 l 583 124 q 306 14 463 14 q 251 18 278 14 q 60 206 60 51 q 239 511 60 364 l 272 539 l 218 607 q 142 718 163 676 q 118 813 121 760 q 117 843 117 825 q 132 904 117 874 q 181 967 146 935 q 243 1008 215 999 z "},"'":{"ha":272,"x_min":57,"x_max":218,"o":"m 65 1039 q 94 1046 72 1046 q 165 1031 135 1046 q 181 1015 178 1025 q 186 963 183 1004 q 206 796 188 922 q 218 688 218 699 q 179 676 218 676 q 132 685 150 676 q 94 721 104 696 q 71 842 85 746 q 57 992 57 938 q 65 1039 57 1031 z "},"(":{"ha":476,"x_min":58,"x_max":418,"o":"m 292 1032 q 319 1053 308 1050 q 365 1057 331 1057 q 418 1040 418 1057 q 396 999 418 1026 q 294 826 346 932 q 219 638 242 719 q 193 418 193 538 q 224 176 193 293 q 340 -76 257 49 q 390 -158 390 -149 q 368 -169 390 -164 q 321 -175 346 -175 q 294 -172 311 -175 q 228 -115 265 -167 q 113 90 150 -10 q 63 331 76 189 q 58 424 58 379 q 156 813 58 613 q 292 1032 232 969 z "},")":{"ha":456,"x_min":61,"x_max":400,"o":"m 65 1057 q 94 1061 72 1061 q 119 1060 111 1061 q 189 1031 161 1056 q 315 828 257 967 q 392 546 372 690 q 400 414 400 483 q 376 172 400 292 q 310 -19 351 53 q 247 -111 286 -60 q 196 -169 208 -162 q 167 -174 188 -174 q 92 -158 111 -174 q 86 -149 86 -154 q 128 -83 86 -139 q 210 59 185 -6 q 256 232 236 124 q 267 414 267 293 q 256 597 267 535 q 192 817 238 706 q 88 1006 146 928 q 61 1050 61 1039 q 65 1057 61 1056 z "},"*":{"ha":754,"x_min":60,"x_max":699,"o":"m 301 1088 q 353 1096 306 1096 q 422 1088 406 1096 q 438 1039 438 1078 q 444 903 438 964 q 458 840 450 843 l 460 840 q 529 868 474 840 q 621 904 592 900 q 643 906 628 906 q 699 885 699 906 q 650 846 699 872 q 546 801 601 819 q 476 765 476 779 q 504 697 476 750 q 568 593 532 644 q 604 528 604 540 q 603 524 604 525 q 553 515 594 515 q 489 526 503 515 q 432 600 479 532 q 425 610 429 604 q 418 620 421 617 q 413 628 415 624 q 408 635 410 632 q 403 640 406 638 q 399 644 400 643 q 395 647 397 646 q 391 649 393 649 q 388 650 389 650 q 343 596 376 650 q 328 572 333 581 q 292 521 303 532 q 263 507 281 510 q 238 506 256 506 q 175 521 175 506 q 217 599 175 528 q 297 757 297 725 q 253 774 297 765 q 85 846 139 796 q 60 878 60 869 q 117 893 60 893 q 203 867 160 893 q 304 824 274 824 q 311 825 310 824 q 313 839 313 826 q 306 956 313 872 q 300 1067 300 1017 q 301 1088 300 1086 z "},"+":{"ha":665,"x_min":60,"x_max":610,"o":"m 260 567 l 260 903 l 304 899 q 365 882 340 894 q 382 851 379 872 q 386 722 385 829 l 389 576 l 419 578 q 538 583 528 583 q 601 571 589 583 q 610 557 610 563 q 464 521 610 531 l 390 515 l 396 340 q 399 226 399 240 q 394 172 399 185 q 374 158 389 158 q 358 160 369 158 q 342 163 347 163 q 283 192 293 169 q 271 326 274 214 q 263 483 265 468 l 260 508 l 183 513 q 82 529 103 517 q 60 550 60 542 q 88 560 60 560 l 97 560 l 117 560 q 196 563 143 560 l 260 567 z "},",":{"ha":279,"x_min":57,"x_max":226,"o":"m 94 214 q 108 217 100 217 q 188 192 156 217 q 226 78 226 164 q 188 -100 226 -22 q 170 -124 176 -119 q 147 -129 164 -129 q 88 -114 121 -129 q 57 -89 57 -100 q 79 28 57 -36 q 101 108 101 92 q 93 172 101 139 q 88 201 88 200 q 94 214 88 210 z "},"-":{"ha":460,"x_min":54,"x_max":408,"o":"m 153 458 q 354 444 301 458 q 408 411 408 428 q 403 403 408 407 q 325 399 397 399 q 108 410 144 399 q 69 426 85 415 q 54 447 54 438 q 153 458 54 458 z "},".":{"ha":279,"x_min":54,"x_max":226,"o":"m 76 176 q 115 196 96 196 q 144 194 132 196 q 196 186 189 190 q 215 154 204 181 q 226 113 226 128 q 206 67 226 83 q 151 50 185 50 q 100 61 129 50 q 62 83 69 72 q 54 124 54 94 q 76 176 54 154 z "},"/":{"ha":611,"x_min":60,"x_max":554,"o":"m 424 993 l 442 1035 l 499 1032 q 553 1022 550 1029 q 554 1017 554 1019 q 408 626 554 999 q 228 156 307 367 q 182 44 189 51 q 111 35 176 35 q 61 40 71 35 q 60 46 60 40 q 125 231 60 69 q 301 682 232 494 q 424 993 400 938 z "},":":{"ha":281,"x_min":56,"x_max":225,"o":"m 69 757 q 135 771 82 771 q 181 767 169 771 q 199 753 192 764 q 210 703 210 738 q 203 658 210 674 q 136 626 190 626 q 71 653 92 626 q 56 707 56 672 q 69 757 56 740 m 79 188 q 117 208 99 208 q 139 207 129 208 q 194 194 182 201 q 215 167 207 188 q 225 121 225 143 q 215 75 225 99 q 200 52 208 58 q 171 43 192 46 q 151 42 164 42 q 83 65 110 42 q 56 129 56 88 q 79 188 56 163 z "},";":{"ha":338,"x_min":58,"x_max":282,"o":"m 128 753 q 147 774 139 769 q 178 778 156 778 q 274 744 257 778 q 282 708 282 728 q 261 646 282 675 q 215 622 243 622 q 140 644 168 622 q 111 701 111 667 q 128 753 111 725 m 93 211 q 107 218 97 218 q 158 206 119 218 q 215 169 200 194 q 247 44 247 118 q 226 -56 247 -11 q 193 -115 208 -99 q 169 -129 181 -129 q 133 -124 157 -129 q 74 -101 92 -117 l 58 -89 l 78 -50 q 108 78 108 11 q 101 144 108 115 q 92 206 92 189 q 92 208 92 207 l 93 211 z "},"<":{"ha":696,"x_min":58,"x_max":640,"o":"m 397 778 q 543 856 528 856 q 599 846 563 856 q 639 831 636 836 q 640 826 640 829 q 581 779 640 817 q 249 581 521 742 q 193 528 193 549 q 215 497 193 514 q 435 382 236 482 q 593 300 554 322 q 632 264 632 278 q 617 257 632 257 q 586 258 600 257 q 511 278 554 261 q 331 364 468 296 q 92 494 124 465 q 58 544 58 522 q 88 590 58 565 q 189 656 118 615 q 242 686 207 665 q 323 734 276 707 q 397 778 369 761 z "},"=":{"ha":631,"x_min":56,"x_max":578,"o":"m 72 711 q 253 715 76 715 q 525 710 492 715 q 558 697 543 707 q 574 679 574 688 q 571 674 574 676 q 342 668 568 671 q 280 667 317 668 q 229 667 243 667 q 92 678 117 667 q 67 700 67 689 q 72 711 67 706 m 199 463 q 331 464 247 464 q 578 436 578 464 q 530 419 578 422 q 311 413 482 415 q 196 411 263 411 q 85 421 106 411 q 56 444 56 433 q 69 456 56 451 q 199 463 85 460 z "},">":{"ha":594,"x_min":58,"x_max":539,"o":"m 65 856 q 82 861 74 861 q 260 789 114 861 q 485 663 432 704 q 539 574 539 622 q 462 433 539 504 q 253 311 385 363 q 151 281 176 281 q 94 296 131 281 q 58 319 58 311 q 124 354 58 326 q 407 578 374 456 q 411 603 411 592 q 371 662 411 632 q 208 756 331 692 q 61 849 61 831 q 65 856 61 853 z "},"?":{"ha":632,"x_min":60,"x_max":576,"o":"m 196 1072 q 254 1081 219 1081 q 364 1065 306 1081 q 447 1039 419 1051 q 504 999 474 1026 q 576 836 574 935 l 576 821 q 549 724 576 779 q 476 615 524 671 q 351 459 375 496 q 304 354 326 422 l 286 300 l 253 301 q 194 314 218 301 q 169 346 169 326 q 188 417 169 369 q 226 494 206 464 q 324 618 249 531 q 407 732 382 689 q 442 825 432 775 q 446 863 446 846 q 410 967 446 908 q 331 1022 376 1022 q 307 1019 315 1022 q 228 966 264 1007 q 185 879 193 925 q 178 857 182 861 q 158 853 174 853 l 144 853 q 83 867 106 856 q 64 883 68 875 q 60 913 60 890 q 100 1005 60 957 q 196 1072 140 1053 m 131 142 q 156 154 146 157 q 203 144 165 150 q 265 120 240 138 q 292 81 290 103 l 292 74 q 233 25 292 25 q 169 39 203 25 q 114 104 114 61 q 131 142 114 125 z "},"@":{"ha":1126,"x_min":58,"x_max":1071,"o":"m 453 1019 q 563 1032 500 1032 q 839 971 717 1032 q 942 893 888 947 q 1024 789 997 839 q 1071 556 1071 699 q 1036 344 1071 432 q 939 226 1001 257 q 867 211 910 211 q 759 238 811 211 q 686 307 707 264 l 674 328 l 646 303 q 538 258 593 258 q 526 259 533 258 q 515 260 519 260 q 314 396 371 272 q 297 510 297 431 q 301 581 297 561 q 321 633 306 601 q 372 708 340 671 q 433 758 404 744 q 538 781 476 781 q 672 754 606 781 q 765 685 738 728 q 781 646 781 664 q 763 631 781 631 q 701 645 738 631 q 658 672 664 660 q 592 724 632 724 q 546 711 571 724 q 458 620 492 685 q 424 478 424 556 l 424 457 q 446 368 424 411 q 492 321 471 321 q 522 335 504 321 q 610 494 568 372 q 636 555 626 542 q 667 568 646 568 q 703 564 681 568 q 759 539 747 557 q 781 444 771 521 q 802 315 792 353 q 831 276 813 276 q 853 286 839 276 q 919 403 892 314 q 947 586 947 492 q 938 699 947 654 q 900 799 928 743 q 749 958 846 911 q 628 979 704 979 q 557 972 583 979 q 328 838 428 942 q 196 596 229 735 q 183 461 183 544 q 196 325 183 378 q 264 169 217 239 q 365 75 311 100 q 421 64 390 64 q 588 110 493 64 q 663 139 646 139 q 694 133 667 139 q 749 107 749 121 q 739 93 749 100 q 672 54 721 78 q 593 24 624 31 q 481 15 556 15 q 369 24 407 15 q 217 97 285 43 q 113 228 149 151 q 58 486 58 340 q 70 621 58 568 q 115 743 82 674 q 453 1019 221 956 z "},"A":{"ha":772,"x_min":58,"x_max":718,"o":"m 446 957 q 403 1013 417 1013 q 381 997 393 1013 q 313 845 351 963 q 263 639 274 728 q 260 610 260 611 q 265 600 260 600 q 275 601 271 600 q 413 619 294 607 q 521 638 511 631 q 532 660 532 644 q 519 725 532 669 q 446 957 486 878 m 318 1076 q 358 1082 333 1082 q 442 1066 399 1082 q 514 1025 486 1050 q 592 898 560 982 q 656 656 624 814 q 699 342 681 528 q 718 38 718 157 l 718 -7 l 694 -7 q 637 3 667 -7 q 601 24 607 13 q 586 185 593 36 q 569 415 581 294 q 550 556 557 535 q 526 568 546 568 q 482 565 524 568 q 333 544 417 560 q 243 521 249 529 q 233 476 239 514 q 189 81 189 132 l 189 32 l 158 32 q 101 43 128 32 q 65 71 74 54 q 58 115 58 82 q 60 151 58 138 q 131 658 81 406 q 215 963 174 871 q 318 1076 257 1056 z "},"B":{"ha":596,"x_min":53,"x_max":543,"o":"m 379 528 l 360 561 l 303 560 q 215 551 236 557 l 182 544 l 178 360 q 168 139 172 174 l 164 101 l 210 101 q 370 158 324 103 q 417 347 417 214 q 379 528 417 464 m 310 979 q 279 1000 292 996 q 236 1004 267 1004 q 186 999 192 1004 q 181 811 181 993 q 182 659 181 686 q 193 632 183 632 l 194 632 q 279 666 231 633 q 350 738 328 699 q 372 833 372 776 q 310 979 371 926 m 139 1061 q 148 1062 142 1061 q 158 1063 154 1063 q 357 1018 254 1063 q 460 930 421 992 q 499 799 499 868 q 489 732 499 761 q 428 646 476 693 l 382 600 l 403 592 q 426 583 425 583 q 458 564 432 583 q 520 465 497 533 q 543 317 543 397 q 539 251 543 285 q 468 90 524 132 q 263 42 413 49 q 167 39 179 39 q 76 54 103 39 l 53 68 l 54 176 q 61 667 54 317 l 67 1050 l 90 1054 q 115 1058 97 1056 q 139 1061 133 1061 z "},"C":{"ha":700,"x_min":56,"x_max":644,"o":"m 322 1025 q 371 1029 340 1029 q 554 992 489 1029 q 619 889 619 954 l 619 881 l 617 842 l 581 840 l 569 840 q 511 851 535 840 q 488 881 488 863 q 474 931 488 903 q 443 969 460 958 q 424 976 432 976 q 381 960 413 976 q 213 733 257 896 q 194 529 199 678 q 193 451 193 500 q 231 222 193 303 q 315 110 260 161 q 407 60 371 60 q 411 60 408 60 q 415 61 414 61 q 510 189 496 82 l 515 233 l 563 232 q 628 221 611 231 q 644 185 644 211 q 610 80 644 126 q 524 19 576 33 q 435 11 490 11 q 338 22 375 11 q 198 99 263 46 q 103 215 133 151 q 65 325 74 275 q 56 478 56 375 l 56 510 q 67 707 57 640 q 107 836 78 774 q 199 956 138 903 q 322 1025 260 1010 z "},"D":{"ha":575,"x_min":53,"x_max":525,"o":"m 260 938 q 200 963 217 963 l 182 963 l 182 542 q 186 119 182 119 q 233 144 199 119 q 292 192 268 168 q 389 390 367 267 q 400 588 400 454 q 393 718 400 676 q 260 938 361 875 m 61 1017 q 89 1025 64 1025 q 209 1004 132 1025 q 340 957 286 983 q 449 858 401 925 q 514 707 496 790 q 525 543 525 658 q 514 365 525 425 q 416 156 493 239 q 219 39 339 74 q 150 28 182 28 q 89 42 117 28 l 60 57 l 54 133 q 53 297 53 153 q 61 1017 53 989 z "},"E":{"ha":522,"x_min":53,"x_max":463,"o":"m 54 1015 q 204 1025 58 1025 q 386 1015 351 1025 q 429 996 411 1008 q 447 975 447 983 l 447 974 q 446 971 446 972 q 324 963 440 963 q 192 956 206 963 q 176 893 176 947 q 182 761 176 883 l 186 667 l 282 667 q 417 650 376 667 q 463 615 463 632 q 458 608 463 611 q 319 600 456 606 l 186 594 l 181 425 q 178 275 178 317 q 192 78 178 92 q 307 69 200 69 q 414 64 388 68 q 440 47 440 60 q 310 21 440 21 q 110 47 163 21 q 74 76 81 63 q 54 328 57 108 q 53 557 54 379 l 53 760 q 54 1015 53 1011 z "},"F":{"ha":478,"x_min":53,"x_max":419,"o":"m 132 1042 q 231 1044 161 1044 q 404 1032 383 1044 q 419 1018 419 1024 q 274 994 419 994 l 196 994 l 190 801 q 185 493 185 588 l 185 378 l 285 378 q 400 367 385 378 q 411 353 411 358 q 289 332 411 336 l 183 329 l 188 182 l 193 36 l 140 32 l 125 32 q 74 36 85 32 q 53 317 53 46 q 54 600 53 483 l 60 1038 l 132 1042 z "},"G":{"ha":717,"x_min":56,"x_max":663,"o":"m 236 1006 q 335 1025 275 1025 q 443 1014 376 1025 q 607 844 603 986 l 607 803 l 568 801 q 556 801 564 801 q 544 800 547 800 q 499 812 513 800 q 479 860 486 824 q 449 935 471 903 q 401 975 426 968 q 390 976 397 976 q 314 941 354 976 q 251 854 274 906 q 215 744 235 815 q 199 656 201 694 q 194 494 196 617 l 194 444 q 208 275 194 321 q 321 114 243 168 q 406 81 369 81 q 488 146 454 81 q 506 261 504 175 l 506 343 l 447 346 q 354 378 354 353 q 526 396 354 394 l 557 396 q 663 376 663 396 q 654 363 663 371 q 643 256 643 351 q 640 173 643 196 q 624 124 636 150 q 557 49 600 72 q 440 26 514 26 q 237 80 332 26 q 103 215 142 133 q 65 321 75 272 q 56 446 56 369 l 56 464 q 128 893 58 757 q 175 958 144 926 q 236 1006 206 990 z "},"H":{"ha":607,"x_min":53,"x_max":557,"o":"m 78 1019 q 100 1022 82 1022 q 181 1008 156 1022 q 194 965 194 1000 q 192 883 194 958 l 188 765 l 247 771 q 358 776 311 776 l 413 776 l 411 899 l 408 1022 l 461 1021 q 525 1010 514 1021 q 542 760 533 1001 q 554 201 551 519 l 557 15 l 510 15 q 444 26 456 17 q 426 140 429 42 q 425 176 426 147 q 415 525 421 283 l 410 731 l 358 726 q 247 721 303 721 l 186 721 l 186 521 q 197 167 186 333 q 206 22 206 36 l 204 11 q 185 8 203 8 q 122 14 164 8 q 83 36 93 18 q 61 228 69 63 q 53 592 53 393 q 78 1019 53 1003 z "},"I":{"ha":264,"x_min":54,"x_max":215,"o":"m 57 793 l 54 1025 l 74 1025 q 127 1015 97 1025 q 167 993 157 1004 q 193 565 190 967 q 206 201 193 367 q 215 35 215 75 q 215 28 215 31 q 214 22 214 25 l 214 21 q 196 11 210 11 q 174 14 193 11 q 89 56 101 24 q 57 793 65 117 z "},"J":{"ha":478,"x_min":58,"x_max":428,"o":"m 267 990 l 274 1026 l 326 1024 q 389 1013 381 1021 q 406 717 400 1001 q 419 363 414 414 q 428 217 428 290 q 413 109 428 144 q 356 47 397 74 q 314 28 331 32 q 254 24 297 24 q 154 40 189 24 q 90 98 108 61 q 64 232 72 135 l 58 292 l 100 292 q 168 277 153 292 q 192 206 183 263 q 231 83 210 83 q 253 93 242 83 q 296 238 296 124 q 288 343 296 285 q 274 612 282 385 q 265 947 265 839 q 267 990 265 985 z "},"K":{"ha":642,"x_min":54,"x_max":586,"o":"m 74 1026 q 103 1031 86 1031 q 165 1015 150 1031 q 185 829 174 1007 q 199 529 197 651 q 206 425 199 435 q 239 424 213 415 q 399 683 346 458 q 418 850 418 768 l 418 889 l 418 919 q 428 1011 418 1004 q 485 1018 442 1018 q 538 1009 526 1018 q 550 958 550 1000 q 548 921 550 947 q 546 879 546 894 q 536 714 540 749 q 518 631 532 679 q 400 425 478 481 q 378 404 378 410 q 422 389 378 399 q 561 219 517 369 q 577 109 568 192 q 586 -17 586 26 q 583 -39 586 -33 q 561 -43 581 -43 q 482 -26 496 -43 q 460 90 471 -15 q 374 351 438 308 q 319 363 356 363 q 303 362 315 363 q 285 361 292 361 q 210 353 215 358 q 208 338 208 351 q 215 203 208 300 q 221 93 221 103 q 210 43 221 51 q 165 35 200 35 l 160 35 q 106 42 115 35 q 85 168 94 50 q 65 542 75 285 q 54 908 54 800 l 54 1021 l 74 1026 z "},"L":{"ha":575,"x_min":54,"x_max":517,"o":"m 64 1018 q 119 1025 74 1025 q 174 1018 164 1025 q 204 444 192 1006 q 215 114 211 121 q 357 106 222 111 q 507 86 493 100 q 516 74 515 78 q 510 63 517 69 q 268 38 483 38 q 113 47 143 38 q 76 94 83 56 q 65 384 72 119 q 56 844 58 649 q 54 940 54 885 q 64 1018 54 1013 z "},"M":{"ha":839,"x_min":53,"x_max":789,"o":"m 594 1015 q 619 1031 607 1028 q 668 1033 632 1033 q 717 1030 706 1033 q 746 1011 729 1026 q 780 921 771 986 q 789 678 789 856 l 789 622 q 778 211 786 344 l 767 49 l 747 40 q 675 28 714 28 q 650 33 654 28 q 649 88 649 35 q 653 361 649 192 q 657 656 657 532 q 646 854 657 854 l 644 853 q 595 675 631 826 q 536 389 560 524 q 510 279 518 288 q 449 268 501 268 q 403 272 414 268 q 385 286 392 275 q 317 506 369 313 q 208 838 224 838 q 192 751 201 838 q 185 567 185 685 q 188 365 185 529 q 192 140 192 200 q 181 57 192 65 q 122 46 167 46 q 74 56 83 46 q 57 361 63 67 q 53 583 53 513 q 67 804 53 678 q 92 975 82 956 q 194 1018 113 1018 q 265 1001 244 1018 q 338 873 292 981 q 415 647 383 765 l 438 569 l 467 686 q 594 1015 533 954 z "},"N":{"ha":854,"x_min":53,"x_max":804,"o":"m 675 1060 q 747 1072 688 1072 q 796 1065 786 1072 q 804 971 804 1061 q 801 751 804 957 q 785 324 796 464 q 753 122 775 183 q 689 50 732 61 q 639 42 660 42 q 590 50 619 42 q 535 99 560 58 q 444 294 511 140 q 288 628 369 465 q 194 792 206 792 q 185 615 185 792 q 190 336 185 553 q 194 122 194 175 q 183 53 194 60 q 119 42 169 42 q 79 49 90 42 q 61 113 69 54 q 53 526 53 178 q 58 865 53 792 q 77 976 65 958 q 144 994 89 994 q 228 975 207 994 q 315 836 250 956 q 563 332 446 603 q 632 188 625 188 q 657 429 644 188 q 669 846 669 671 q 668 936 669 911 q 665 1015 665 1008 q 675 1060 665 1050 z "},"O":{"ha":836,"x_min":56,"x_max":785,"o":"m 486 929 q 386 953 446 953 q 336 947 358 953 q 280 914 307 940 q 235 849 253 888 q 189 569 189 753 q 194 460 189 508 q 458 81 232 83 q 503 85 489 81 q 540 107 518 90 q 650 475 650 190 q 486 929 650 833 m 167 926 q 287 1008 226 983 q 443 1032 347 1032 l 467 1032 q 513 1018 503 1032 q 538 1003 528 1003 q 597 979 557 1003 q 664 929 638 956 q 767 719 735 858 q 785 485 785 646 q 771 294 785 351 q 705 147 750 203 q 579 56 660 90 q 512 34 535 38 q 406 31 489 31 l 292 31 l 243 57 q 115 194 160 103 q 72 324 85 258 q 57 503 60 389 q 56 533 57 514 q 56 561 56 553 q 81 784 56 700 q 167 926 107 868 z "},"P":{"ha":590,"x_min":53,"x_max":538,"o":"m 313 938 q 211 963 265 963 q 189 954 189 963 q 188 868 188 939 q 193 508 188 706 l 199 339 l 217 339 q 283 357 242 339 q 344 396 325 375 q 384 472 374 426 q 397 628 394 517 q 399 701 399 654 q 380 863 399 813 q 313 938 361 914 m 64 1010 q 106 1017 74 1017 q 219 1010 150 1017 q 467 942 407 993 q 536 740 526 892 q 538 694 538 726 q 513 456 538 531 q 219 290 465 317 l 200 288 q 199 161 200 246 q 197 35 197 76 l 168 29 q 138 26 151 26 q 69 40 83 26 q 58 285 64 46 q 53 806 53 525 l 53 875 q 64 1010 53 1004 z "},"Q":{"ha":914,"x_min":56,"x_max":864,"o":"m 600 876 q 574 903 600 876 q 506 950 547 929 q 425 971 464 971 q 279 875 344 971 q 194 494 194 747 q 195 472 194 488 q 196 447 196 456 q 247 182 200 253 q 331 110 276 139 q 436 82 385 82 l 446 82 l 481 85 l 439 150 q 396 225 396 215 q 456 244 396 244 q 501 238 481 244 q 551 183 524 228 q 592 132 582 139 q 596 131 593 131 q 632 158 608 131 q 674 225 656 186 q 717 342 706 292 q 728 478 728 392 l 728 499 q 672 783 726 674 q 600 876 653 824 m 353 1029 q 438 1040 401 1040 q 521 1025 479 1040 q 781 834 699 958 q 864 511 864 710 q 863 491 864 504 q 863 471 863 478 q 683 82 853 178 l 647 61 l 671 29 q 726 -35 703 -8 q 751 -71 751 -61 q 746 -81 751 -75 q 685 -92 735 -92 q 633 -85 646 -92 q 571 -22 622 -79 l 522 32 l 426 36 q 187 98 267 43 q 71 276 107 153 q 56 467 56 333 q 75 714 56 628 q 353 1029 138 982 z "},"R":{"ha":551,"x_min":53,"x_max":496,"o":"m 283 963 q 217 985 254 981 l 176 989 l 181 963 q 186 661 186 935 q 188 421 186 456 q 201 386 190 386 q 254 405 224 386 q 303 449 285 424 q 361 613 349 517 q 363 647 363 619 q 358 756 363 697 q 336 895 353 850 q 283 963 319 940 m 79 1026 q 142 1031 100 1031 q 344 1010 278 1031 q 452 934 421 986 q 489 765 483 882 q 490 703 490 743 q 388 394 490 471 l 351 367 l 382 349 q 432 289 413 331 q 471 165 446 258 q 496 49 496 71 q 443 36 496 36 q 396 42 408 36 q 368 77 379 49 q 326 221 357 106 q 289 309 310 285 q 226 338 268 333 l 186 340 l 186 200 q 184 79 186 101 q 171 50 182 57 q 124 43 158 43 q 78 50 88 43 q 58 156 63 58 q 54 613 54 254 l 53 1022 l 79 1026 z "},"S":{"ha":594,"x_min":57,"x_max":543,"o":"m 188 1006 q 268 1018 219 1018 q 318 1017 297 1018 q 438 1004 408 1011 q 510 955 476 993 q 543 885 543 917 q 493 854 543 854 q 450 860 481 854 q 422 871 428 865 q 414 893 417 876 q 387 945 413 918 q 342 972 361 972 q 233 917 272 972 q 194 760 194 861 q 198 705 194 718 q 217 678 201 692 q 248 658 232 663 q 324 651 264 654 q 436 636 408 646 q 517 535 492 613 q 535 336 535 476 q 507 101 535 140 q 367 25 464 43 q 254 14 303 14 q 89 67 131 14 q 57 181 57 107 q 75 243 57 229 q 111 249 81 249 q 181 236 168 249 q 190 175 188 229 q 206 90 193 121 l 218 61 l 261 65 q 388 143 354 74 q 403 193 400 169 q 407 288 407 217 q 379 553 404 472 q 351 598 368 589 q 274 610 335 607 q 108 656 153 617 q 61 796 63 694 l 61 806 q 188 1006 61 961 z "},"T":{"ha":704,"x_min":61,"x_max":646,"o":"m 64 1007 q 185 1019 68 1019 q 344 1018 276 1019 q 582 1013 539 1017 q 636 999 625 1010 q 646 981 646 989 q 510 949 646 951 q 436 940 442 949 q 426 487 433 933 q 415 35 419 40 q 340 28 406 28 q 299 32 303 28 q 292 489 294 36 l 289 942 l 213 942 q 106 951 135 942 q 61 996 61 965 q 64 1007 61 999 z "},"U":{"ha":843,"x_min":56,"x_max":793,"o":"m 635 996 q 653 1025 633 1015 q 715 1035 672 1035 q 767 1025 760 1035 q 782 842 772 1015 q 793 564 792 669 q 671 108 793 218 q 501 43 613 57 q 475 42 493 42 q 310 75 379 42 q 214 149 265 97 q 138 249 163 201 q 56 749 56 404 l 56 797 q 68 984 58 953 q 122 1022 78 1015 q 160 1025 135 1025 q 183 1024 178 1025 l 204 1018 l 200 854 q 199 750 199 817 q 225 426 199 558 q 283 256 246 321 q 385 146 321 190 q 493 93 460 93 q 556 128 521 93 q 658 482 646 222 q 659 501 658 486 q 660 525 660 517 q 635 996 660 676 z "},"V":{"ha":790,"x_min":61,"x_max":735,"o":"m 594 972 q 611 1025 600 1015 q 669 1035 622 1035 q 725 1025 714 1035 q 735 1006 735 1018 q 718 899 735 990 q 665 633 701 799 q 611 408 629 468 q 542 219 596 357 q 478 68 488 82 q 400 44 458 44 q 371 47 390 44 q 336 57 342 51 q 272 223 325 68 q 181 506 218 378 q 61 978 61 906 q 68 1007 61 997 q 126 1019 78 1019 q 179 1010 168 1019 q 211 904 192 1000 q 269 685 224 846 q 325 486 315 524 q 356 381 336 442 q 391 276 375 319 q 410 233 407 233 q 422 247 415 233 q 458 349 428 261 q 535 649 490 443 q 594 972 581 854 z "},"W":{"ha":994,"x_min":60,"x_max":943,"o":"m 806 1036 q 867 1043 817 1043 q 921 1036 910 1043 q 936 910 929 1031 q 943 675 943 790 q 942 596 943 618 q 813 68 921 181 q 776 35 788 42 q 738 25 764 28 q 704 24 725 24 q 597 60 632 24 q 556 143 571 88 q 535 240 540 199 q 526 281 529 281 q 500 219 522 281 q 432 81 467 125 q 349 29 397 38 q 314 26 324 26 q 172 156 213 26 q 121 447 142 247 q 86 731 103 608 q 61 939 67 867 q 60 975 60 953 q 72 1017 60 1008 q 122 1026 83 1026 q 172 1014 151 1026 q 192 983 192 1001 q 218 772 192 961 q 261 419 229 688 q 315 126 288 175 q 319 124 318 124 q 392 289 336 124 q 467 578 439 435 q 490 675 485 669 q 551 686 493 678 q 593 689 571 689 q 619 678 610 689 q 658 374 643 650 q 696 115 671 179 q 707 94 703 94 q 754 211 724 94 q 810 664 810 421 q 804 839 810 714 q 799 993 799 943 q 806 1036 799 1033 z "},"X":{"ha":763,"x_min":61,"x_max":704,"o":"m 300 808 q 393 646 389 646 q 438 735 397 646 q 525 917 479 824 q 585 1018 571 1010 q 642 1026 600 1026 q 696 1017 688 1026 l 697 1015 q 697 1013 697 1014 q 522 613 697 981 l 464 490 l 525 368 q 646 153 601 221 q 704 50 704 58 q 644 31 704 31 q 579 39 596 31 q 519 115 565 46 q 431 261 474 185 q 383 335 390 335 q 338 260 378 335 q 196 43 226 51 q 165 40 185 40 q 151 41 161 40 q 136 42 142 42 q 92 57 92 43 q 154 186 92 74 q 268 393 222 304 l 317 485 l 278 564 q 157 793 264 592 q 65 971 71 949 q 61 990 61 983 q 76 1007 61 1003 q 131 1011 90 1011 l 153 1011 q 198 986 181 1011 q 300 808 215 961 z "},"Y":{"ha":690,"x_min":61,"x_max":633,"o":"m 514 1033 q 571 1043 531 1043 q 621 1038 608 1043 q 633 1014 633 1033 q 617 929 633 992 q 519 578 567 732 q 454 401 471 424 q 442 213 447 390 l 436 32 l 386 32 l 363 32 q 318 44 328 32 q 308 107 308 57 q 311 217 308 119 l 317 386 l 293 421 q 182 668 257 475 q 104 868 126 813 q 63 996 65 965 l 61 1024 l 111 1025 l 128 1025 q 175 1018 164 1025 q 233 901 186 1010 q 322 674 279 792 q 368 557 364 561 l 369 557 q 454 840 382 557 q 514 1033 501 1025 z "},"Z":{"ha":686,"x_min":60,"x_max":628,"o":"m 136 1014 q 281 1017 153 1017 l 371 1017 q 584 1009 540 1015 q 628 978 628 1003 l 628 971 q 511 722 625 950 q 340 367 383 468 q 251 171 294 258 q 221 97 221 101 q 404 93 221 93 l 485 93 q 599 81 586 93 q 607 64 607 72 q 581 44 607 53 q 254 28 521 28 q 123 31 151 28 q 81 43 94 33 q 60 76 60 56 q 75 113 60 93 q 144 244 89 131 q 199 369 199 358 q 267 531 199 383 q 394 792 336 678 q 471 949 471 942 q 364 957 471 957 l 314 957 l 244 957 q 117 974 136 957 q 110 988 110 978 q 117 1004 110 996 q 136 1014 125 1013 z "},"[":{"ha":468,"x_min":56,"x_max":410,"o":"m 160 989 q 293 996 185 993 l 321 996 q 404 985 396 996 q 408 975 408 978 q 310 951 408 956 q 221 940 232 949 q 207 894 211 933 q 194 703 203 854 q 189 556 189 589 q 203 244 189 471 q 225 -78 217 -35 l 231 -104 l 313 -101 l 336 -101 q 403 -106 397 -101 q 410 -115 410 -110 q 340 -143 410 -131 q 238 -153 288 -153 q 108 -115 138 -153 q 86 36 93 -93 q 70 258 85 58 q 56 547 56 457 q 64 784 56 649 q 79 938 72 919 q 160 989 94 978 z "},"\\":{"ha":678,"x_min":60,"x_max":619,"o":"m 97 1033 l 121 1033 l 176 1031 l 232 903 q 346 651 279 794 l 403 526 l 467 526 q 536 519 529 526 q 540 513 540 515 q 476 499 540 499 q 422 492 422 499 q 524 268 422 486 q 619 43 619 64 l 619 42 q 558 32 615 32 q 510 35 521 32 q 490 50 499 38 q 397 246 478 68 q 219 635 381 283 q 60 1019 60 979 q 97 1033 60 1033 z "},"]":{"ha":472,"x_min":61,"x_max":421,"o":"m 124 999 q 168 1001 138 1001 q 298 995 224 1001 q 385 983 372 989 q 408 963 401 975 q 417 909 414 951 q 421 775 421 867 q 417 424 421 664 q 409 13 413 99 q 397 -86 406 -72 q 344 -119 381 -111 q 213 -128 307 -128 q 78 -114 100 -128 q 61 -97 61 -103 q 146 -85 61 -85 l 169 -85 l 213 -85 q 261 -82 251 -85 q 274 -68 271 -79 q 282 235 278 -57 q 286 749 286 526 q 283 929 286 910 l 279 953 l 194 958 q 96 981 96 963 q 124 999 96 989 z "},"^":{"ha":681,"x_min":58,"x_max":625,"o":"m 256 982 q 329 996 268 996 q 383 992 372 996 q 408 974 394 989 q 524 765 424 956 q 625 558 625 574 q 608 546 625 551 q 568 540 590 540 q 535 544 550 540 q 497 569 511 551 q 432 682 483 588 q 396 749 415 713 q 363 810 376 786 q 347 840 350 835 l 333 868 l 313 821 q 193 572 214 610 q 149 529 172 535 l 147 529 q 114 525 132 525 q 58 544 58 525 q 117 688 58 567 q 211 894 189 840 q 256 982 246 972 z "},"_":{"ha":667,"x_min":51,"x_max":618,"o":"m 54 -108 q 201 -100 58 -100 q 335 -101 282 -100 q 615 -111 611 -107 q 618 -118 618 -114 q 586 -143 618 -136 q 432 -147 564 -147 q 117 -139 172 -147 q 51 -115 51 -129 q 54 -108 51 -114 z "},"`":{"ha":414,"x_min":58,"x_max":360,"o":"m 65 1114 q 118 1119 75 1119 q 169 1114 163 1119 q 203 1058 176 1110 q 269 957 229 1003 q 342 900 310 911 q 360 888 360 894 q 318 868 360 872 q 288 865 296 865 q 171 917 228 865 q 92 1013 126 957 q 58 1099 58 1069 q 65 1114 58 1110 z "},"a":{"ha":706,"x_min":33,"x_max":669,"o":"m 465 706 q 403 729 435 729 q 282 660 351 729 q 216 564 249 626 q 169 444 183 501 q 160 349 160 407 q 182 200 160 260 q 230 123 197 160 q 282 86 263 86 q 349 135 300 86 q 470 341 419 206 q 525 604 521 476 q 526 653 526 625 q 523 677 526 672 q 510 683 519 682 q 465 706 494 685 m 321 771 q 382 775 342 775 q 518 763 471 775 q 572 732 543 756 q 601 696 601 708 q 624 685 601 685 l 625 685 q 657 673 650 685 q 664 604 664 661 q 663 501 664 546 q 661 390 661 468 q 665 199 661 269 q 669 108 669 139 q 658 56 669 65 q 610 47 647 47 l 606 47 q 551 60 563 47 q 535 124 539 74 q 525 179 529 179 q 492 142 515 175 q 358 46 433 69 q 285 38 325 38 q 178 58 222 38 q 33 361 38 126 l 33 383 q 53 497 33 444 q 164 682 92 608 q 321 771 236 756 z "},"b":{"ha":707,"x_min":53,"x_max":656,"o":"m 425 668 q 397 693 400 693 q 354 668 392 693 q 288 601 324 647 q 225 504 251 556 q 206 450 208 472 q 203 332 203 428 l 203 204 l 242 169 q 322 114 282 133 q 368 99 353 99 q 388 101 374 99 q 519 333 519 139 q 518 383 519 367 q 425 668 503 583 m 67 1172 q 125 1183 82 1183 q 183 1172 168 1183 q 195 1130 193 1164 q 199 922 197 1096 q 204 681 201 683 q 232 692 210 675 q 306 729 272 719 q 399 739 339 739 q 494 729 465 739 q 556 688 524 719 q 656 350 656 585 q 639 207 656 251 q 544 93 613 133 q 375 53 475 53 l 365 53 q 217 82 286 53 q 211 83 214 83 q 203 3 203 83 q 197 -82 203 -64 q 163 -100 190 -100 q 138 -99 147 -100 q 79 -86 94 -93 q 65 -4 68 -81 q 58 500 63 72 q 56 788 57 629 q 53 1028 54 946 q 53 1119 53 1110 l 53 1131 q 67 1172 53 1163 z "},"c":{"ha":614,"x_min":54,"x_max":558,"o":"m 239 763 q 338 769 263 769 l 361 769 q 453 750 415 769 q 515 694 489 732 q 539 644 539 658 q 465 622 539 622 l 417 622 l 399 660 q 360 711 383 694 q 339 722 344 722 q 315 711 335 722 q 228 584 261 679 q 194 374 194 489 q 199 301 194 336 q 274 125 211 175 q 332 96 308 96 q 365 106 347 96 q 399 135 389 118 q 422 199 410 151 q 437 240 431 232 q 465 251 443 247 q 496 254 474 254 q 526 251 518 254 l 558 244 l 557 210 q 508 99 553 138 q 448 63 481 74 q 351 50 415 53 q 338 49 347 50 q 325 49 329 49 q 167 91 232 49 q 75 213 103 133 q 54 371 54 272 q 82 571 54 488 q 150 693 104 636 q 239 763 196 750 z "},"d":{"ha":714,"x_min":56,"x_max":664,"o":"m 406 710 q 363 732 374 732 q 274 667 336 732 q 182 406 182 567 q 254 147 182 267 q 346 72 300 72 q 351 73 347 72 q 357 74 356 74 q 429 110 388 79 q 499 178 471 142 l 529 221 l 529 350 q 489 610 529 528 q 406 710 456 676 m 532 1174 q 581 1183 538 1183 q 654 1169 640 1183 q 664 835 664 1158 l 664 692 q 653 -75 664 -39 q 590 -99 643 -99 q 557 -94 572 -99 q 535 -80 539 -90 q 528 -15 532 -69 q 518 61 522 57 l 515 61 q 469 47 504 61 q 342 26 411 26 q 186 65 238 26 q 85 226 128 107 q 57 374 61 289 q 56 394 57 381 q 56 414 56 408 q 99 600 56 510 q 243 751 157 711 q 363 771 283 771 q 435 767 415 771 q 486 747 456 763 l 531 725 l 528 944 l 528 1008 q 532 1174 528 1167 z "},"e":{"ha":667,"x_min":31,"x_max":635,"o":"m 403 701 q 353 719 376 719 q 297 699 331 719 q 216 606 251 669 q 179 485 181 543 l 178 446 l 319 443 q 403 442 353 442 q 480 451 465 442 q 494 494 494 460 q 467 615 494 554 q 403 701 440 675 m 257 765 q 351 775 288 775 q 463 763 425 775 q 624 569 582 725 q 635 496 635 531 q 615 433 635 454 q 544 397 592 404 q 346 389 496 389 l 171 389 l 171 332 q 201 218 172 278 q 260 133 225 169 q 331 88 296 97 q 354 82 350 82 q 390 94 367 82 q 492 194 446 124 q 542 242 518 236 q 565 244 556 244 q 610 239 589 244 q 632 225 631 233 l 633 224 q 633 221 633 222 q 609 165 633 203 q 557 103 585 128 q 353 29 475 29 q 119 126 208 29 q 31 379 31 224 q 33 435 31 415 q 67 582 44 525 q 138 689 90 639 q 257 765 192 747 z "},"f":{"ha":461,"x_min":56,"x_max":438,"o":"m 275 1069 q 367 1079 313 1079 q 432 1068 422 1079 q 436 1062 435 1064 q 437 1058 438 1060 q 433 1054 436 1056 q 424 1050 429 1053 q 378 1038 407 1043 q 265 938 300 1024 q 224 661 231 853 l 219 513 l 308 508 q 403 501 381 506 q 425 483 425 496 q 301 464 425 464 l 228 464 l 235 299 q 242 31 242 146 l 242 -71 l 215 -76 q 185 -79 207 -79 q 157 -78 165 -79 l 124 -71 l 122 -28 q 97 411 97 356 q 86 479 97 479 q 65 490 76 479 q 76 510 56 501 l 97 517 l 96 649 l 96 676 q 124 917 96 838 q 275 1069 167 1039 z "},"g":{"ha":690,"x_min":33,"x_max":639,"o":"m 414 707 q 353 729 378 729 q 297 707 328 729 q 163 401 163 608 q 206 176 163 265 q 256 110 224 139 q 313 81 289 81 q 400 122 351 81 q 479 224 449 164 q 495 265 492 249 q 499 322 499 281 l 499 378 q 482 618 496 564 q 414 707 468 672 m 258 764 q 351 775 294 775 q 447 764 410 775 q 538 753 489 753 q 597 743 590 753 q 626 528 614 724 q 639 147 639 333 q 636 8 639 47 q 578 -239 625 -178 q 486 -300 547 -276 q 361 -324 425 -324 q 328 -322 339 -324 q 257 -297 257 -314 q 324 -278 257 -282 q 456 -214 419 -272 q 503 6 492 -156 l 508 90 l 469 71 q 306 36 397 36 q 197 54 239 36 q 113 122 151 74 q 56 236 75 171 q 33 415 33 314 q 36 468 33 438 q 110 658 51 579 q 258 764 169 738 z "},"h":{"ha":693,"x_min":53,"x_max":643,"o":"m 56 1110 q 132 1142 65 1142 l 143 1142 q 167 1138 160 1142 q 179 1116 174 1135 q 186 1066 185 1097 q 188 974 188 1035 l 188 896 q 192 682 188 682 q 225 703 196 682 q 306 748 268 736 q 406 760 343 760 q 519 740 481 760 q 583 690 553 724 q 622 628 614 657 q 643 342 643 558 l 643 250 q 638 67 642 106 q 625 25 635 29 q 590 19 618 19 q 518 35 529 19 q 514 126 514 42 q 515 233 514 192 q 517 342 517 272 q 497 611 517 536 q 428 708 479 678 l 403 722 l 360 697 q 272 623 318 672 q 206 533 225 574 q 188 476 190 503 q 185 324 185 450 q 192 11 185 143 q 197 -121 197 -103 q 196 -136 197 -135 q 140 -142 190 -142 q 78 -135 85 -142 q 65 -89 74 -131 q 57 280 61 -65 q 53 889 53 625 q 56 1110 53 1101 z "},"i":{"ha":267,"x_min":54,"x_max":217,"o":"m 78 1035 q 143 1050 93 1050 q 197 1038 185 1050 q 217 978 217 1018 q 196 925 217 936 q 131 911 172 911 q 57 936 67 911 q 54 953 54 944 q 61 999 54 974 q 78 1035 68 1025 m 78 749 q 142 761 88 761 q 193 751 183 761 q 203 396 203 742 q 193 44 203 50 q 143 39 183 39 q 76 47 85 39 q 68 368 68 56 q 78 749 68 738 z "},"j":{"ha":314,"x_min":-4,"x_max":264,"o":"m 103 1017 q 124 1038 114 1035 q 175 1042 133 1042 q 236 1033 219 1042 q 263 999 253 1025 l 264 994 q 264 990 264 992 q 242 919 264 947 q 175 904 231 904 q 147 906 156 904 q 106 930 122 910 q 90 975 90 950 q 103 1017 90 996 m 115 763 q 178 776 129 776 q 221 773 213 776 q 236 754 229 769 q 249 491 243 739 q 254 36 254 243 q 251 -124 254 -107 q 202 -213 242 -186 q 82 -242 163 -240 l 65 -242 q 4 -229 17 -242 q -4 -214 -4 -221 q 35 -200 -4 -200 q 81 -190 68 -200 q 108 -142 103 -174 q 113 22 113 -110 l 113 156 q 106 601 110 478 q 104 692 104 640 q 115 763 104 751 z "},"k":{"ha":593,"x_min":53,"x_max":538,"o":"m 61 1124 q 121 1135 71 1135 q 165 1132 156 1135 q 178 1117 174 1129 q 188 908 182 1107 q 199 513 194 708 q 206 317 204 318 q 210 315 207 315 q 247 332 222 315 q 292 369 272 349 q 361 481 340 421 q 390 654 382 542 q 406 764 399 757 q 457 774 415 774 q 501 768 489 774 l 525 760 l 519 660 q 488 472 514 543 q 404 343 463 401 q 360 296 360 301 l 365 294 q 381 288 371 292 q 399 282 392 285 q 467 239 433 268 q 517 179 501 210 q 536 96 531 153 q 537 85 536 92 q 538 75 538 78 q 524 30 538 42 q 476 18 511 18 q 415 27 425 18 q 406 85 406 36 q 390 172 406 138 q 328 238 372 210 q 246 265 283 265 q 222 261 233 265 l 200 253 q 206 58 201 188 q 211 -137 210 -72 l 179 -137 q 117 -125 147 -137 l 86 -112 l 82 -50 q 56 886 74 83 q 53 1032 53 1014 q 61 1124 53 1115 z "},"l":{"ha":251,"x_min":53,"x_max":200,"o":"m 99 1068 q 119 1069 104 1069 q 190 1060 175 1069 q 197 911 197 1056 q 196 781 197 831 q 194 526 194 713 q 197 186 194 283 q 200 -50 200 86 q 197 -140 200 -137 q 143 -149 189 -149 q 78 -139 88 -149 q 64 -89 69 -131 q 53 635 53 -8 q 56 899 53 799 q 63 1008 58 976 q 74 1051 67 1039 q 99 1068 81 1064 z "},"m":{"ha":985,"x_min":53,"x_max":935,"o":"m 75 822 q 121 829 86 829 q 169 822 158 829 q 185 756 185 814 l 185 699 l 233 724 q 287 745 268 742 q 365 749 306 749 q 442 745 428 749 q 481 722 456 742 l 514 696 l 535 711 q 610 753 579 743 q 700 764 642 764 l 714 764 q 792 753 768 764 q 847 708 817 743 q 913 565 896 653 q 932 267 931 478 l 935 50 l 913 42 q 865 36 900 36 q 813 44 819 36 q 806 278 808 49 q 794 558 803 504 q 764 648 786 603 q 721 708 742 693 l 701 724 l 671 704 q 606 653 640 685 q 564 604 572 622 q 557 569 557 594 q 560 529 557 563 q 569 253 567 479 l 571 31 l 518 28 q 504 27 513 28 q 493 26 496 26 q 457 43 467 26 q 442 307 449 61 q 428 565 436 500 q 399 667 421 629 q 371 700 382 694 q 358 703 368 703 q 232 624 314 703 l 174 569 l 178 225 l 181 -118 l 153 -122 q 124 -125 136 -125 q 94 -122 111 -125 q 67 -115 72 -119 q 58 -83 63 -110 q 53 350 53 -50 q 58 754 53 704 q 75 822 63 815 z "},"n":{"ha":669,"x_min":53,"x_max":619,"o":"m 75 831 q 118 836 83 836 l 132 836 l 179 835 l 182 786 q 189 736 185 736 q 197 739 190 736 q 216 746 204 742 q 238 753 228 750 q 369 768 283 768 q 468 758 438 768 q 537 712 503 749 q 588 632 571 675 q 619 317 619 553 l 619 242 l 617 47 l 588 40 q 558 39 579 39 q 528 40 536 39 l 500 47 l 494 296 q 481 579 490 547 q 374 726 446 708 q 360 728 369 728 q 276 700 325 728 q 204 638 228 672 l 182 607 l 190 375 q 207 39 196 186 q 213 -64 213 -44 q 211 -79 213 -78 q 174 -89 208 -89 l 150 -89 q 100 -83 108 -86 q 88 -64 92 -81 q 69 149 81 -37 q 54 499 58 336 q 53 614 53 540 q 75 831 53 817 z "},"o":{"ha":735,"x_min":35,"x_max":707,"o":"m 449 718 q 411 728 428 728 q 385 726 404 728 q 354 724 367 724 q 311 716 324 722 q 275 686 299 710 q 199 559 226 638 q 171 392 171 481 l 171 374 q 178 299 174 321 q 201 238 183 276 q 258 149 231 176 q 322 103 285 122 q 383 83 360 83 q 388 84 385 83 q 393 85 392 85 q 454 119 418 90 q 511 179 490 147 q 578 443 578 282 q 557 578 578 522 q 509 663 540 622 q 449 718 478 703 m 242 761 q 328 774 279 774 q 394 772 367 774 q 529 757 492 769 q 607 703 567 744 q 707 443 707 600 q 669 229 707 331 q 558 86 635 138 q 383 35 482 35 q 254 57 319 35 q 93 182 151 90 q 35 392 35 274 q 78 592 35 493 q 147 701 108 661 q 242 761 186 742 z "},"p":{"ha":703,"x_min":53,"x_max":651,"o":"m 410 703 q 351 721 382 721 q 242 674 306 719 q 178 599 178 629 q 180 559 178 594 q 184 464 182 524 q 188 346 186 404 q 200 103 192 126 q 264 83 211 83 q 325 93 297 83 q 446 190 389 114 q 519 353 503 267 q 526 426 526 392 q 494 590 526 513 q 410 703 461 668 m 68 844 q 121 854 75 854 q 172 843 160 854 q 183 794 183 832 l 183 785 q 182 739 182 764 q 188 736 182 736 q 225 747 196 736 q 358 764 269 764 l 390 764 q 451 760 433 764 q 497 742 468 756 q 640 540 604 690 q 651 429 651 492 q 639 314 651 356 q 566 174 618 242 q 457 78 514 107 q 269 39 383 39 q 244 40 253 39 l 196 44 l 201 -57 q 215 -257 204 -112 q 221 -354 221 -337 q 219 -368 221 -367 q 169 -379 215 -379 q 107 -365 115 -379 q 79 -122 94 -346 q 69 74 75 -78 q 57 425 61 311 q 53 617 53 528 q 68 844 53 825 z "},"q":{"ha":683,"x_min":56,"x_max":633,"o":"m 418 710 q 363 728 383 728 q 322 714 342 728 q 224 580 263 676 q 185 379 185 483 q 193 290 185 332 q 268 151 211 203 q 399 99 325 99 q 478 115 439 99 l 506 126 l 506 629 l 481 660 q 418 710 453 694 m 503 803 q 540 806 506 806 l 564 806 l 618 803 l 625 706 q 633 140 633 590 q 625 -364 633 -356 q 572 -372 617 -372 q 518 -364 526 -372 q 507 -144 510 -356 q 494 63 504 63 l 493 63 q 425 54 488 60 q 396 53 415 53 q 213 90 292 53 q 97 201 138 125 q 56 378 56 276 q 60 446 56 411 q 136 665 78 582 q 285 768 194 749 q 356 774 308 774 q 476 760 439 774 q 494 757 490 754 q 497 775 497 760 q 503 803 497 797 z "},"r":{"ha":542,"x_min":53,"x_max":533,"o":"m 57 790 q 96 797 61 797 l 119 797 l 176 796 l 178 697 q 189 588 179 588 q 204 601 193 588 q 332 719 258 675 q 383 744 364 739 q 446 751 401 750 q 464 752 453 751 q 479 753 475 753 q 522 742 511 753 q 522 725 533 729 q 385 656 421 690 q 211 356 281 560 l 189 288 l 196 149 q 201 19 201 38 q 200 4 201 6 q 150 -3 196 0 q 135 -3 144 -3 q 122 -4 126 -4 q 83 23 90 -4 q 67 179 75 50 q 53 672 53 394 q 57 790 53 782 z "},"s":{"ha":486,"x_min":33,"x_max":454,"o":"m 225 768 q 344 782 276 782 q 419 768 419 782 q 363 743 419 757 q 226 688 272 722 q 167 600 179 654 q 164 572 164 590 q 197 496 164 533 q 303 411 229 458 q 425 317 396 353 q 454 232 454 282 q 317 60 454 124 q 265 41 286 44 q 186 38 243 38 q 82 49 104 38 q 65 64 65 57 q 139 81 65 76 q 218 93 193 83 q 278 135 243 103 q 324 235 324 176 q 297 301 324 271 q 194 381 271 331 q 65 483 97 444 q 33 578 33 522 q 85 693 33 643 q 225 768 133 742 z "},"t":{"ha":408,"x_min":33,"x_max":386,"o":"m 132 813 q 142 1068 132 1056 q 206 1081 151 1081 q 247 1074 236 1081 q 265 478 263 1063 l 265 396 l 315 390 q 378 369 363 386 q 386 351 386 358 q 319 326 386 332 l 265 321 l 265 192 q 257 51 265 60 q 203 42 247 42 q 149 50 164 42 q 135 78 138 57 q 133 186 133 99 l 133 313 l 89 318 q 38 331 44 324 q 33 339 33 335 q 113 381 33 364 l 133 386 l 132 721 l 132 813 z "},"u":{"ha":731,"x_min":54,"x_max":681,"o":"m 63 764 q 104 769 68 769 l 119 769 l 172 767 l 174 728 q 182 678 176 689 q 188 467 188 667 q 190 289 188 322 q 204 226 192 256 q 308 107 238 146 q 374 86 346 86 q 446 108 403 86 q 506 147 490 131 q 527 194 521 164 q 536 308 533 225 q 553 666 547 578 q 568 760 558 754 q 601 765 575 765 q 672 753 654 765 q 681 653 681 744 q 672 435 681 560 q 664 164 664 304 l 661 13 l 618 13 q 549 51 549 13 q 540 68 549 68 q 490 56 532 68 q 372 35 422 35 q 300 43 338 35 q 135 128 193 68 q 60 290 76 188 q 54 504 54 324 q 63 764 54 751 z "},"v":{"ha":749,"x_min":60,"x_max":693,"o":"m 60 751 q 64 765 60 761 q 108 769 68 769 l 125 769 l 179 767 l 204 704 q 304 426 228 643 q 342 319 324 369 q 373 242 361 269 q 386 217 385 215 q 451 403 390 221 q 538 672 511 585 q 569 751 557 739 q 639 764 582 764 q 693 750 693 764 q 535 251 693 726 l 461 32 l 431 24 q 390 18 406 18 q 319 42 336 18 q 149 474 289 85 q 60 751 60 722 z "},"w":{"ha":996,"x_min":58,"x_max":946,"o":"m 824 765 q 868 769 842 769 q 932 760 915 769 q 943 733 940 753 q 946 644 946 714 l 946 563 q 928 278 946 378 q 864 113 910 179 q 811 64 839 76 q 725 51 783 51 q 624 72 658 51 q 531 182 575 101 l 510 219 l 492 175 q 438 93 475 131 q 401 62 414 69 q 363 51 388 54 q 322 50 351 50 q 281 51 292 50 q 241 62 254 54 q 204 93 228 69 q 149 185 168 131 q 61 678 90 339 q 58 715 58 708 q 72 754 58 746 q 129 763 86 763 q 188 753 178 763 q 207 611 194 743 q 299 147 243 258 q 321 117 314 117 q 350 162 329 117 q 386 258 371 207 q 449 621 425 394 q 468 742 458 732 q 524 750 476 750 q 588 740 578 750 q 606 539 597 731 q 631 274 614 356 q 692 135 649 192 q 721 110 710 110 q 756 163 732 110 q 790 263 779 215 q 815 583 815 383 q 814 651 815 631 q 811 729 811 726 q 824 765 811 761 z "},"x":{"ha":739,"x_min":61,"x_max":681,"o":"m 506 764 q 568 771 515 771 l 621 771 l 617 742 q 529 546 613 717 q 447 368 447 376 q 530 241 447 357 q 653 79 613 125 q 681 35 681 47 q 618 19 681 19 q 569 24 582 19 q 540 43 557 28 q 450 158 515 68 q 378 250 383 250 q 313 140 374 250 q 246 39 263 54 q 182 24 229 24 q 121 39 121 24 q 171 132 121 47 q 261 290 218 213 l 300 365 l 179 549 q 61 742 61 729 q 121 756 61 756 l 175 756 l 204 718 q 296 586 232 683 q 365 499 353 499 l 367 499 q 435 631 368 500 q 506 764 503 763 z "},"y":{"ha":729,"x_min":54,"x_max":679,"o":"m 547 750 q 559 767 551 763 q 588 771 567 771 q 651 763 618 771 l 679 754 l 679 632 q 676 462 679 532 q 663 276 672 392 q 649 88 654 160 q 616 -212 633 -136 q 554 -332 599 -289 q 417 -387 511 -374 q 374 -390 386 -390 q 292 -371 318 -390 q 286 -362 286 -367 q 322 -349 286 -349 q 380 -335 346 -349 q 429 -308 414 -322 q 506 -1 496 -247 l 511 114 l 478 81 q 418 35 444 47 q 350 22 392 24 l 340 22 q 258 35 290 22 q 188 85 225 49 q 72 300 110 158 q 58 381 61 340 q 54 547 56 422 l 54 613 q 65 739 54 733 q 113 747 78 747 q 181 735 164 747 q 195 702 193 726 q 197 550 197 678 q 203 348 197 410 q 232 224 210 286 q 278 131 249 176 q 322 86 307 86 q 391 160 346 86 q 464 319 436 235 q 514 519 490 397 q 539 699 538 642 q 547 750 539 728 z "},"z":{"ha":624,"x_min":58,"x_max":568,"o":"m 222 769 q 450 778 425 778 q 542 769 517 778 q 568 742 568 761 q 543 674 568 724 q 414 435 517 617 q 268 186 311 253 q 221 106 221 114 q 239 103 221 103 q 281 106 247 103 q 461 115 397 115 q 522 110 506 115 q 538 89 538 104 q 536 76 538 81 q 500 51 532 57 q 314 39 468 46 q 168 35 222 35 q 82 41 106 35 q 58 64 58 47 q 61 78 58 69 q 142 225 67 96 q 404 693 396 658 l 410 711 l 269 706 q 175 703 192 703 q 99 708 119 703 q 72 729 78 714 q 69 740 69 738 q 100 760 69 754 q 222 769 131 767 z "},"{":{"ha":626,"x_min":61,"x_max":568,"o":"m 353 1011 q 417 1017 371 1017 q 504 1004 489 1017 q 515 986 515 994 q 479 968 515 972 q 433 958 446 964 q 404 932 419 951 q 353 661 376 894 q 335 549 346 581 q 296 489 328 525 q 236 435 264 453 l 218 424 l 250 403 q 329 167 329 350 q 393 -40 329 7 q 414 -51 408 -51 q 436 -43 419 -51 q 515 -31 458 -31 q 567 -40 561 -31 q 568 -44 568 -42 q 544 -72 568 -56 q 486 -97 519 -87 q 413 -107 453 -107 q 306 -87 356 -107 q 235 -32 257 -67 q 197 52 207 11 q 182 194 188 93 q 163 332 176 292 q 114 386 149 372 q 61 419 61 407 q 100 454 61 431 q 184 530 165 492 q 215 689 203 568 q 265 936 235 882 q 353 1011 296 993 z "},"|":{"ha":264,"x_min":53,"x_max":210,"o":"m 63 1089 q 90 1094 68 1094 q 169 1076 149 1094 q 192 517 188 1058 q 200 113 194 225 q 210 -232 210 -115 q 204 -333 210 -322 q 179 -340 200 -340 q 153 -339 164 -340 q 138 -337 147 -339 q 84 -308 92 -333 q 74 -122 76 -282 q 72 -87 72 -100 q 60 358 67 151 q 53 803 53 544 q 63 1089 53 1079 z "},"}":{"ha":551,"x_min":60,"x_max":493,"o":"m 67 997 q 125 1004 81 1004 q 343 896 293 1004 q 361 840 358 864 q 365 719 364 817 q 371 568 365 590 q 450 474 386 521 q 493 431 493 443 q 468 393 493 418 q 410 296 428 354 q 381 114 392 238 q 349 -53 369 -7 q 271 -125 329 -99 q 183 -140 236 -140 q 106 -131 139 -140 q 72 -104 72 -121 q 113 -87 72 -87 q 129 -89 124 -87 q 133 -90 131 -89 q 138 -90 136 -90 q 181 -70 157 -90 q 219 -21 206 -50 q 244 131 238 15 q 270 308 251 246 q 331 413 289 371 l 356 439 l 325 463 q 242 559 257 517 q 225 732 226 601 q 221 853 224 826 q 206 906 218 879 q 177 945 192 936 q 111 965 163 954 q 60 989 60 976 q 67 997 60 993 z "},"~":{"ha":744,"x_min":54,"x_max":692,"o":"m 168 599 q 210 606 199 606 q 296 592 226 606 q 432 549 371 576 q 507 522 489 522 q 553 554 521 522 l 582 585 l 626 581 q 681 569 671 575 q 692 544 692 564 q 667 502 692 526 q 617 471 642 478 q 574 468 606 468 q 551 469 567 468 q 526 469 535 469 q 453 478 476 472 q 374 510 429 483 q 272 542 301 542 q 199 513 244 542 q 126 490 164 490 q 76 501 99 490 q 54 525 54 511 q 91 565 54 542 q 168 599 128 589 z "},"":{"ha":347,"x_min":0,"x_max":0,"o":""},"":{"ha":282,"x_min":57,"x_max":228,"o":"m 90 769 q 125 775 101 775 q 214 753 194 775 q 228 690 228 735 q 214 624 228 644 q 181 608 203 608 q 147 610 163 608 q 74 633 90 613 q 57 690 57 653 q 90 769 57 754 m 92 500 q 136 506 117 506 q 183 499 165 506 l 203 490 q 201 131 203 371 q 200 -229 200 -108 l 83 -229 l 81 135 l 81 335 q 83 472 81 446 q 92 500 85 497 z "},"":{"ha":644,"x_min":58,"x_max":586,"o":"m 304 1042 q 372 1050 318 1050 q 411 1046 400 1050 q 424 988 424 1040 l 424 935 l 461 926 q 536 884 508 915 q 564 811 564 853 q 563 804 564 808 q 563 797 563 800 q 554 777 561 781 q 513 772 547 774 q 504 772 507 772 q 490 772 499 772 q 479 771 482 771 q 443 781 451 771 q 428 825 435 790 q 406 869 424 851 q 369 888 389 888 q 320 866 351 888 q 268 817 289 844 q 192 538 192 714 q 193 499 192 511 q 242 301 199 369 q 358 233 285 233 q 428 258 403 233 q 454 322 454 282 q 467 358 454 350 q 522 367 481 367 q 573 360 560 367 q 586 332 586 353 q 583 307 586 326 q 469 201 571 222 l 419 190 l 415 121 l 413 51 l 383 44 q 354 42 375 42 q 325 44 333 42 l 296 51 q 292 122 294 75 q 288 190 289 168 l 246 200 q 139 258 178 218 q 58 533 58 342 q 108 776 58 676 q 254 917 161 881 l 294 932 l 292 983 l 292 1000 q 304 1042 292 1035 z "},"":{"ha":811,"x_min":61,"x_max":753,"o":"m 388 1051 q 454 1056 404 1056 l 485 1056 q 585 1039 547 1053 q 654 993 624 1025 q 680 954 668 979 q 692 915 692 929 q 689 907 692 910 q 626 897 669 897 q 601 899 608 897 q 574 908 581 901 q 556 938 567 915 q 517 988 543 965 q 469 1011 490 1011 q 425 986 450 1011 q 365 869 383 942 q 346 671 347 797 l 346 568 l 418 574 q 460 575 433 575 q 594 544 543 575 q 613 522 619 529 q 555 513 607 517 q 444 505 503 508 q 379 501 385 501 l 346 497 l 346 429 q 331 303 346 360 q 295 205 319 258 q 260 144 271 151 q 251 128 251 139 q 303 119 251 119 q 440 122 310 119 q 565 125 549 125 q 679 114 632 125 q 753 74 753 94 q 749 65 753 69 q 576 42 722 42 l 539 42 l 472 42 q 271 40 332 42 q 228 40 253 40 q 193 39 203 39 q 92 51 114 39 q 61 72 61 68 q 99 117 61 82 q 218 414 204 214 q 221 457 221 450 q 212 492 221 485 q 175 499 203 499 q 116 515 151 499 q 81 542 81 531 q 142 561 81 561 l 163 561 q 206 578 200 561 q 215 694 211 594 q 232 867 219 818 q 388 1051 274 1022 z "},"":{"ha":763,"x_min":58,"x_max":707,"o":"m 451 732 q 386 753 413 753 q 336 739 363 753 q 280 692 310 725 q 238 632 250 660 q 224 550 224 600 q 240 460 224 493 q 308 378 263 413 q 393 343 353 343 q 453 365 417 343 q 510 414 489 386 q 554 547 554 471 q 527 653 554 604 q 451 732 500 703 m 565 793 q 625 822 597 822 q 643 821 636 822 q 656 819 647 821 q 669 817 664 818 q 679 817 675 817 q 693 807 693 817 q 660 750 693 792 l 624 707 l 640 686 q 672 619 653 669 q 685 549 685 586 q 636 408 685 472 q 617 375 617 383 q 664 315 617 365 q 707 257 707 268 q 650 242 707 242 l 597 242 q 526 318 568 276 l 485 308 q 386 297 447 297 q 285 308 325 297 l 235 322 l 207 296 q 176 274 188 278 q 131 269 164 269 q 71 283 71 269 q 108 335 71 297 l 153 382 l 139 403 q 107 469 114 442 q 100 549 100 496 q 103 616 100 597 q 121 661 107 635 q 142 707 142 703 q 108 739 142 714 q 58 800 58 776 q 64 810 58 806 q 117 817 74 817 q 185 793 158 817 q 222 772 207 772 q 231 774 228 772 q 408 800 331 800 q 513 782 472 800 q 538 775 533 775 q 565 793 546 775 z "},"":{"ha":822,"x_min":60,"x_max":764,"o":"m 656 1035 q 706 1043 678 1043 q 747 1036 729 1043 q 764 1019 764 1029 q 653 785 764 1008 q 513 511 543 561 q 485 458 485 465 q 539 451 485 451 q 617 432 617 451 q 599 415 617 421 q 526 407 581 410 l 461 403 l 461 289 l 519 293 q 563 296 553 296 q 617 278 617 296 q 600 261 617 267 q 528 249 583 256 q 463 238 467 242 q 456 135 461 236 q 443 31 451 35 q 397 24 432 24 q 331 35 339 24 q 321 108 321 46 q 322 156 321 126 q 322 193 322 185 l 321 233 l 281 233 q 212 242 242 233 q 182 261 182 250 q 233 281 182 281 q 271 278 243 281 q 299 276 282 276 q 325 290 321 276 q 329 357 329 303 l 329 406 l 300 406 q 226 416 272 406 q 171 435 179 426 q 167 443 167 439 q 224 457 167 457 l 246 457 q 265 456 253 457 q 282 456 278 456 l 304 458 q 226 603 293 481 q 72 951 111 818 q 60 1007 60 999 q 66 1022 60 1017 q 81 1029 72 1028 q 113 1033 90 1031 q 121 1034 115 1033 q 129 1035 126 1035 q 176 1014 161 1035 q 219 918 192 993 q 322 686 246 849 l 393 542 l 408 561 q 503 740 424 579 q 608 963 583 900 q 656 1035 635 1028 z "},"":{"ha":276,"x_min":57,"x_max":222,"o":"m 58 1097 q 96 1103 63 1103 l 118 1103 q 168 1097 160 1100 q 181 1078 176 1094 q 192 966 185 1058 q 206 769 199 874 q 214 653 213 664 q 215 614 215 636 q 203 585 215 592 q 146 576 186 576 q 94 586 103 576 q 82 669 88 593 q 78 726 81 682 q 72 822 75 771 q 65 915 68 874 q 57 1083 57 1065 q 58 1090 57 1088 q 58 1094 58 1093 l 58 1097 m 85 238 q 143 250 94 250 q 196 240 185 250 q 215 19 207 231 q 222 -221 222 -147 l 222 -236 q 217 -277 221 -271 q 194 -287 214 -283 q 165 -290 185 -290 q 104 -268 119 -290 q 93 -190 93 -253 q 85 49 93 -146 q 79 196 79 147 q 85 238 79 232 z "},"":{"ha":644,"x_min":61,"x_max":589,"o":"m 332 692 q 257 732 267 732 q 233 707 249 732 q 219 611 219 681 q 233 515 219 542 q 283 455 247 490 q 336 415 319 419 q 340 415 338 415 q 344 414 343 414 q 428 468 381 414 q 463 544 463 511 q 453 583 463 558 q 415 635 439 614 q 332 692 392 656 m 263 1088 q 356 1094 294 1094 l 376 1094 q 492 1071 447 1092 q 549 1028 525 1054 q 575 981 574 1003 q 572 965 576 969 q 550 956 567 960 q 515 951 533 951 q 449 976 458 951 q 415 1016 442 992 q 372 1046 389 1040 q 358 1049 364 1049 q 278 1007 317 1049 q 255 976 261 989 q 247 933 249 963 q 247 922 247 929 q 246 911 246 914 q 265 853 246 886 q 315 797 285 821 q 422 731 346 772 q 552 638 515 679 q 589 543 589 596 q 547 449 589 497 q 451 382 506 400 q 425 367 425 375 q 450 347 425 363 q 527 281 497 319 q 557 210 557 242 q 511 101 557 147 q 325 47 457 47 q 178 75 242 47 q 99 129 136 93 q 61 188 61 165 q 71 203 61 200 q 113 210 81 207 q 124 210 117 210 q 133 211 131 211 q 174 193 161 211 q 271 106 219 133 q 325 92 297 92 q 398 124 368 92 q 428 208 428 157 q 396 281 428 250 q 256 375 364 311 q 86 611 86 475 q 138 760 86 683 q 157 800 157 789 q 154 810 157 804 q 131 849 146 821 q 110 928 110 889 q 151 1027 110 983 q 263 1088 192 1071 z "},"":{"ha":513,"x_min":54,"x_max":461,"o":"m 72 1046 q 136 1058 89 1058 q 186 1047 178 1058 q 200 989 200 1032 q 193 953 200 961 q 136 936 181 936 q 71 953 89 936 q 54 999 54 967 q 72 1046 54 1033 m 347 1053 q 381 1056 356 1056 q 453 1044 442 1056 q 461 1007 461 1036 q 446 944 461 956 q 400 933 433 933 q 317 961 342 933 q 303 994 303 975 q 315 1031 303 1014 q 347 1053 328 1047 z "},"":{"ha":1169,"x_min":58,"x_max":1114,"o":"m 692 947 q 579 963 643 963 q 497 953 528 963 q 346 867 418 928 q 235 732 274 806 q 181 517 181 631 q 318 194 181 329 q 408 122 365 147 q 515 81 451 97 q 592 71 550 71 q 789 135 692 71 q 940 299 886 199 q 993 518 993 400 q 947 725 993 633 q 841 858 913 796 q 692 947 769 921 m 433 990 q 588 1001 474 1001 q 739 990 701 1001 q 967 867 875 954 q 1101 647 1060 779 q 1114 514 1114 611 q 1093 364 1114 425 q 997 201 1061 274 q 849 88 933 129 q 614 29 742 35 q 597 28 608 29 q 581 28 586 28 q 255 131 394 28 q 72 406 115 235 q 58 518 58 460 q 130 769 58 651 q 324 947 201 886 q 433 990 393 981 m 533 815 q 631 822 561 822 l 653 822 q 740 804 710 822 q 782 753 771 786 q 789 721 789 729 q 736 692 789 693 q 703 690 724 690 q 667 698 675 690 q 660 729 660 706 q 625 782 660 782 q 621 781 624 782 q 617 781 618 781 q 532 719 576 769 q 467 608 488 668 q 449 476 449 554 q 454 413 449 435 q 533 299 474 340 q 613 271 576 271 q 674 300 650 271 q 697 381 697 329 q 710 422 697 411 q 763 432 722 432 q 807 424 794 432 q 819 390 819 415 q 810 321 819 375 q 774 270 806 296 q 706 238 742 244 q 615 229 664 229 q 443 263 506 229 q 377 322 411 279 q 333 400 343 364 q 324 481 324 431 q 344 614 324 558 q 422 742 369 686 q 533 815 475 797 z "},"":{"ha":558,"x_min":58,"x_max":506,"o":"m 325 958 q 300 969 310 969 q 251 936 285 969 q 186 761 186 871 q 200 685 186 717 q 240 646 219 646 q 274 664 253 646 q 344 806 310 697 q 361 889 361 856 q 325 958 361 933 m 204 1006 q 304 1017 233 1017 q 383 1010 361 1017 q 485 919 440 994 q 503 870 500 894 q 506 743 506 846 q 496 590 506 600 q 432 581 486 581 q 393 585 406 581 q 381 604 381 590 q 365 619 381 619 q 342 613 353 619 q 243 593 306 593 q 194 597 217 593 q 82 665 114 611 q 58 761 58 704 q 100 912 58 839 q 204 1006 142 985 z "},"":{"ha":797,"x_min":58,"x_max":740,"o":"m 513 615 l 571 676 l 617 671 q 668 660 668 664 q 600 568 668 646 q 496 408 496 450 q 521 358 496 383 q 643 276 544 332 q 740 213 740 222 q 721 199 740 206 q 678 193 701 193 q 658 194 664 193 q 528 258 632 199 q 401 342 425 317 q 372 413 372 371 q 376 440 372 428 q 513 615 396 492 m 208 582 l 281 651 l 333 651 q 389 640 389 651 q 303 540 389 626 q 182 363 183 421 q 222 306 182 339 q 333 242 263 274 q 414 194 414 201 q 393 183 414 188 q 350 178 372 178 q 325 179 333 178 q 206 227 290 185 q 94 296 121 269 q 61 343 67 324 q 58 363 58 357 q 208 582 58 438 z "},"":{"ha":782,"x_min":58,"x_max":731,"o":"m 71 565 q 58 582 58 574 q 88 593 58 593 q 106 592 100 593 q 378 586 143 586 q 536 588 494 586 l 571 588 q 718 558 703 588 q 728 375 725 546 l 731 206 l 694 206 q 632 217 663 206 l 604 229 l 600 317 q 594 468 594 414 l 594 532 l 363 536 q 110 546 128 542 q 71 565 88 551 z "},"":{"ha":1211,"x_min":58,"x_max":1156,"o":"m 679 986 q 618 993 640 993 q 540 982 592 993 q 315 852 415 954 q 189 619 215 750 q 181 524 181 578 q 197 383 181 438 q 475 81 264 175 q 581 61 518 61 q 824 138 708 61 q 1032 529 1029 278 q 897 863 1032 726 q 679 986 794 965 m 513 1032 q 569 1035 546 1035 q 778 1010 689 1035 q 1050 829 946 964 q 1156 521 1154 694 q 1099 292 1156 404 q 933 104 1039 175 q 689 18 826 33 q 617 14 653 14 q 282 114 429 14 q 81 381 135 214 q 58 533 58 447 q 63 619 58 593 q 82 690 67 646 q 248 925 132 833 q 513 1032 364 1017 m 582 792 q 539 806 560 806 q 517 797 522 806 q 511 710 511 789 q 513 644 511 668 q 517 526 515 547 q 526 506 518 506 l 529 506 q 533 507 532 507 q 608 556 572 519 q 654 628 643 592 q 658 658 658 642 q 638 733 658 696 q 582 792 617 769 m 447 847 q 483 850 456 850 q 635 829 568 850 q 743 758 703 808 q 783 650 783 708 q 763 572 783 607 q 649 476 733 519 l 622 463 l 657 440 q 742 354 706 410 q 785 244 778 299 l 790 214 l 743 214 q 683 225 700 214 q 656 269 667 236 q 604 373 638 328 q 536 432 571 418 l 515 439 q 513 329 515 403 q 510 218 511 256 l 485 215 l 476 215 q 431 221 458 215 l 400 229 l 394 306 q 389 600 389 389 q 391 792 389 764 q 407 829 393 821 q 447 847 433 844 z "},"":{"ha":828,"x_min":51,"x_max":779,"o":"m 232 1167 q 493 1171 369 1171 q 757 1160 731 1171 q 778 1135 778 1151 q 778 1131 778 1133 l 779 1128 q 654 1118 779 1118 q 558 1119 635 1118 q 422 1119 482 1119 q 86 1131 113 1121 q 51 1156 51 1143 q 54 1160 51 1157 q 232 1167 56 1161 z "},"":{"ha":567,"x_min":57,"x_max":513,"o":"m 324 964 q 285 985 294 985 q 251 969 275 985 q 183 828 183 926 q 203 740 183 781 q 261 678 224 699 q 288 667 279 667 q 317 678 299 667 q 389 821 389 717 q 324 964 389 917 m 188 1019 q 283 1031 224 1031 q 389 1018 350 1031 q 448 979 414 1011 q 496 918 482 947 q 513 814 513 885 q 506 757 513 781 q 458 688 494 725 q 390 638 422 650 q 283 624 351 624 q 190 635 224 624 q 126 676 161 644 q 75 740 92 708 q 57 831 57 776 q 75 919 57 883 q 188 1019 113 993 z "},"":{"ha":642,"x_min":60,"x_max":583,"o":"m 247 943 q 261 944 250 944 q 346 931 318 944 q 358 903 356 925 q 360 789 360 881 q 365 626 360 657 l 369 599 l 436 593 q 519 569 519 588 q 515 560 519 565 q 440 547 507 550 l 372 546 l 372 468 q 376 304 372 375 l 379 218 l 358 211 q 342 210 354 210 q 294 216 319 210 q 263 231 268 222 q 250 389 257 240 l 240 542 l 178 542 q 60 574 60 544 q 151 588 60 586 l 244 589 l 242 764 l 242 818 q 247 943 242 938 m 117 75 q 338 79 204 79 l 375 79 q 538 72 493 79 q 583 46 583 65 q 553 33 583 35 q 351 28 522 31 l 250 28 q 93 38 114 28 q 64 60 64 50 q 117 75 64 72 z "},"":{"ha":571,"x_min":58,"x_max":514,"o":"m 106 1000 q 249 1053 154 1053 q 358 1036 300 1053 q 438 984 407 1022 q 468 900 468 946 q 467 878 468 885 q 267 550 436 697 q 207 494 207 499 q 276 489 207 490 q 421 484 346 488 q 504 472 496 481 q 514 460 514 463 q 372 442 514 446 l 326 442 q 133 456 207 442 q 58 496 58 471 q 96 533 58 506 q 234 667 167 582 q 332 832 301 753 q 343 892 343 863 q 325 969 343 936 q 281 1003 307 1003 q 237 978 263 1003 q 201 928 211 954 l 192 897 l 139 897 q 79 907 89 897 q 74 925 74 913 q 106 1000 74 965 z "},"":{"ha":513,"x_min":60,"x_max":457,"o":"m 156 1018 q 221 1024 178 1024 q 346 1007 313 1024 q 403 911 403 978 q 392 849 403 872 q 344 792 381 826 q 308 753 308 758 q 346 738 308 747 q 419 689 382 729 q 451 650 446 661 q 457 610 457 639 q 315 454 457 508 q 181 435 265 435 q 71 464 71 435 q 144 479 71 475 q 242 497 208 483 q 307 546 276 511 q 332 610 332 575 q 301 677 332 649 q 221 707 269 706 q 139 726 139 710 q 182 771 139 735 q 278 913 278 844 q 263 957 278 938 q 226 978 246 978 q 186 963 213 978 q 136 947 164 947 q 126 948 133 947 q 114 949 118 949 q 63 957 68 951 q 60 963 60 960 q 90 993 60 975 q 156 1018 119 1011 z "},"":{"ha":331,"x_min":57,"x_max":276,"o":"m 157 1079 q 165 1092 160 1089 q 188 1096 171 1096 q 201 1095 192 1096 q 219 1094 211 1094 l 276 1092 l 274 1064 q 237 969 272 1042 q 179 868 201 896 q 156 849 167 853 q 113 846 146 846 q 57 856 57 846 q 103 961 57 872 q 157 1079 149 1051 z "},"":{"ha":654,"x_min":53,"x_max":604,"o":"m 54 772 q 92 782 57 782 l 115 782 l 172 779 l 176 706 q 183 488 181 644 q 188 351 185 382 q 207 267 190 319 q 249 172 226 204 q 313 117 272 139 q 381 94 351 94 q 444 125 414 94 l 472 154 l 472 446 q 481 756 472 731 q 490 772 485 768 q 513 775 496 775 q 524 774 515 775 q 540 774 533 774 q 577 771 568 772 q 591 766 586 769 q 599 753 596 763 q 604 389 601 740 l 604 235 q 593 39 604 43 q 547 33 581 33 q 478 44 489 33 q 433 54 468 54 q 419 53 429 54 q 401 53 408 53 q 384 52 396 53 q 367 51 372 51 q 221 82 282 51 l 190 97 q 193 -100 192 32 q 196 -297 194 -232 l 167 -304 q 138 -307 158 -307 q 108 -304 117 -307 l 79 -297 l 74 -231 q 60 217 68 -164 q 53 735 53 597 q 53 753 53 744 q 53 767 53 763 l 54 772 z "},"":{"ha":842,"x_min":60,"x_max":789,"o":"m 365 1088 q 519 1093 393 1093 l 569 1093 q 754 1081 743 1092 q 774 744 767 1068 q 789 -8 789 144 q 782 -103 789 -99 q 725 -108 772 -108 q 667 -101 672 -108 q 649 367 663 -97 q 635 981 635 831 l 635 1057 l 532 1057 l 536 938 q 549 374 540 824 q 553 151 550 265 q 557 -27 556 36 q 558 -96 558 -90 q 553 -109 558 -106 q 531 -117 547 -112 q 501 -119 522 -119 q 472 -117 481 -119 q 447 -106 453 -112 q 438 -79 440 -100 q 426 183 432 -56 l 421 414 l 363 419 q 81 639 153 435 q 60 757 60 699 q 142 967 60 876 q 365 1088 225 1058 z "},"":{"ha":278,"x_min":54,"x_max":225,"o":"m 56 560 q 74 617 60 607 q 140 628 88 628 q 206 616 192 628 q 224 560 221 604 q 224 548 224 556 q 225 538 225 540 q 207 490 225 514 q 183 472 193 475 q 140 468 172 468 q 97 472 107 468 q 72 490 86 475 q 54 538 54 514 q 55 548 54 540 q 56 560 56 556 z "},"":{"ha":394,"x_min":57,"x_max":340,"o":"m 135 68 q 160 85 149 82 q 206 89 172 89 q 261 71 261 89 q 244 28 261 61 q 225 -19 225 -11 q 260 -40 225 -25 q 340 -126 340 -71 q 276 -211 340 -174 q 119 -250 210 -250 q 61 -235 74 -250 q 57 -226 57 -231 q 118 -201 57 -214 q 208 -126 208 -182 q 197 -92 208 -103 q 142 -64 186 -82 q 93 -28 93 -44 q 106 20 93 -10 q 135 68 119 50 z "},"":{"ha":376,"x_min":60,"x_max":325,"o":"m 125 1024 q 240 1042 179 1042 q 301 1029 292 1042 q 318 768 313 1017 q 325 503 325 514 q 321 458 325 469 q 265 447 317 447 q 208 458 217 447 q 186 831 199 469 l 182 976 l 149 969 q 118 967 129 967 q 61 981 71 967 q 60 986 60 982 q 125 1024 60 1003 z "},"":{"ha":543,"x_min":58,"x_max":489,"o":"m 313 951 q 276 981 286 981 q 237 949 263 981 q 201 890 211 918 q 189 803 189 853 q 206 708 189 744 q 269 639 238 639 q 313 669 288 639 q 349 733 338 700 q 361 815 361 775 q 313 951 361 903 m 174 1007 q 276 1026 207 1025 q 338 1023 321 1026 q 383 1006 356 1019 q 481 875 456 967 q 489 813 489 844 q 456 690 489 746 q 369 608 424 635 q 282 589 331 589 l 267 589 q 118 642 172 590 q 58 790 64 693 l 58 806 q 89 925 58 871 q 174 1007 119 979 z "},"":{"ha":728,"x_min":58,"x_max":672,"o":"m 358 685 q 415 693 364 693 l 468 693 l 531 629 q 672 421 671 486 q 579 261 672 358 q 501 193 529 210 q 431 176 472 176 q 419 177 426 176 q 406 178 411 178 q 382 190 382 181 q 428 250 382 204 q 535 399 514 333 q 538 418 538 413 q 440 574 538 465 q 357 679 357 667 q 358 685 357 683 m 58 679 q 88 686 58 686 q 144 679 114 686 q 240 606 171 675 q 336 490 310 536 q 360 413 360 450 q 258 240 360 342 l 197 179 l 154 179 q 88 192 113 179 l 64 204 l 131 271 q 209 365 189 331 q 229 436 229 399 q 206 508 229 471 q 121 608 182 546 q 58 679 58 671 z "},"":{"ha":1036,"x_min":61,"x_max":979,"o":"m 118 1000 q 200 1025 169 1025 q 232 1024 219 1025 q 296 1014 286 1021 q 318 903 317 999 q 318 843 318 881 l 318 744 q 313 478 318 497 q 302 463 310 467 q 271 460 294 460 q 183 494 190 460 q 181 571 181 506 q 183 728 181 611 l 188 942 l 153 942 q 95 951 129 942 q 61 968 61 961 q 118 1000 61 972 m 685 964 q 722 1018 713 1010 q 751 1026 731 1026 q 810 1019 781 1026 q 839 1003 839 1011 q 556 499 839 990 q 303 57 314 79 q 285 30 292 35 q 263 25 279 25 l 246 25 q 164 53 164 26 q 176 83 164 64 q 685 964 179 88 m 843 654 q 894 661 847 661 q 954 653 946 661 q 961 576 961 646 q 958 453 961 558 q 956 317 956 325 q 968 251 956 261 q 977 245 975 247 q 978 240 979 243 q 976 236 978 238 q 967 229 974 235 q 954 205 957 222 q 949 126 951 188 q 938 31 944 33 q 881 25 928 25 q 824 31 833 25 q 817 63 817 33 q 819 125 817 67 l 825 213 l 733 207 q 675 206 713 206 q 522 257 522 206 q 524 268 522 264 q 602 435 531 289 q 679 585 674 581 q 743 592 689 592 q 786 588 775 592 q 793 576 793 585 q 719 407 793 553 q 651 261 651 268 q 738 250 651 250 l 824 250 l 824 275 q 833 494 825 338 q 843 654 840 650 z "},"":{"ha":1067,"x_min":61,"x_max":1011,"o":"m 688 997 l 707 1026 l 761 1026 q 819 1018 819 1026 q 788 947 819 1000 q 529 492 771 919 q 283 57 288 64 q 260 23 269 31 q 231 13 251 15 q 199 10 211 10 q 131 26 131 10 q 147 63 131 32 q 417 530 151 69 q 688 997 683 990 m 186 1014 q 235 1019 206 1019 q 306 1010 292 1019 q 331 749 331 989 q 329 650 331 683 q 324 542 326 575 q 317 485 322 508 q 306 458 313 463 q 286 450 300 454 q 253 446 272 446 q 190 463 197 446 q 189 476 189 464 q 194 576 189 493 q 197 701 197 608 q 196 811 197 779 l 190 942 l 150 938 q 115 935 125 935 q 61 953 61 935 q 99 978 61 960 q 186 1014 138 996 m 761 632 q 815 639 786 639 q 908 621 872 639 q 960 577 946 601 q 976 506 975 553 q 977 492 976 500 q 978 479 978 483 q 963 403 978 443 q 775 114 914 267 q 738 68 738 74 q 869 63 738 63 q 1007 51 1003 63 q 1006 33 1011 39 q 753 25 997 25 q 640 28 657 25 q 594 49 594 33 q 629 101 594 63 q 803 335 751 240 q 850 499 850 421 q 831 569 850 546 l 817 588 l 786 556 q 751 504 754 521 q 722 481 750 486 q 693 478 706 478 q 632 492 642 478 q 629 504 629 496 q 672 576 629 533 q 761 632 714 618 z "},"":{"ha":1124,"x_min":61,"x_max":1067,"o":"m 824 1036 q 875 1042 831 1042 q 928 1036 918 1042 q 929 1032 929 1035 q 846 867 929 1013 q 750 703 814 814 l 688 592 q 508 281 679 576 q 382 58 386 68 q 365 38 374 43 q 335 29 357 32 q 303 26 315 26 q 240 42 240 26 q 268 97 240 51 q 449 405 313 171 q 586 642 586 639 q 701 840 586 649 q 824 1036 817 1032 m 150 1019 q 253 1026 168 1026 l 281 1026 q 369 1010 336 1026 q 432 904 432 978 q 417 842 432 872 q 372 786 406 819 q 315 740 339 753 q 300 726 300 732 q 329 710 300 719 q 439 569 439 671 q 434 531 439 543 q 410 497 429 518 q 229 428 363 447 q 164 424 194 424 q 76 440 100 424 q 67 451 67 447 q 146 468 67 464 q 313 565 313 481 q 301 615 313 586 q 201 681 279 671 q 128 708 128 692 q 174 744 128 717 q 288 850 261 800 q 299 900 299 872 q 288 954 299 929 q 260 985 276 979 l 254 985 q 193 965 239 985 q 124 943 149 943 q 106 944 113 943 q 61 961 61 950 q 63 968 61 965 q 96 994 65 976 q 150 1019 126 1013 m 917 399 q 919 529 919 504 q 918 558 919 558 q 912 554 917 560 q 900 538 907 549 q 810 394 865 479 q 736 265 736 281 q 849 243 736 244 l 911 242 l 917 399 m 925 636 q 928 646 926 640 q 929 654 929 651 q 931 660 929 657 q 933 666 932 664 q 935 670 933 668 q 940 673 938 672 q 945 674 942 674 q 953 675 949 675 q 963 675 957 675 l 989 675 l 1042 674 l 1044 464 q 1048 287 1046 324 q 1058 244 1050 250 q 1066 233 1067 238 q 1054 217 1065 229 q 1040 190 1043 206 q 1038 126 1038 175 q 1035 63 1038 74 q 1018 47 1032 53 q 971 40 1003 40 q 924 47 942 40 l 903 56 q 908 130 904 81 q 914 204 911 179 l 799 203 l 769 203 q 621 226 646 203 q 610 253 610 235 q 642 333 610 285 q 672 386 672 382 q 710 446 672 390 q 776 551 738 486 q 819 607 808 601 q 878 615 836 615 q 916 618 910 615 q 925 636 922 621 z "},"":{"ha":660,"x_min":58,"x_max":603,"o":"m 292 718 q 301 761 292 751 q 357 771 311 771 q 425 758 414 771 q 438 690 438 744 q 432 654 438 661 q 369 642 424 642 q 304 658 315 642 q 292 718 292 676 m 339 538 q 369 542 351 542 q 439 525 422 542 q 453 472 447 517 l 453 460 q 429 377 453 419 q 342 261 406 335 q 222 104 253 160 q 192 -12 192 49 l 192 -33 q 264 -174 199 -135 q 311 -193 296 -193 q 353 -178 325 -193 q 437 -91 404 -153 q 469 35 469 -29 q 457 103 469 72 q 447 136 447 124 q 501 156 447 156 q 560 144 542 156 q 592 97 578 132 q 603 33 603 67 q 531 -153 603 -71 q 315 -239 453 -239 q 282 -237 293 -239 q 58 -14 58 -217 q 86 106 58 54 q 206 265 114 158 q 297 388 271 342 q 322 479 322 435 l 322 488 q 322 501 322 493 q 321 511 321 508 q 324 530 321 525 q 339 538 328 535 z "},"":{"ha":772,"x_min":58,"x_max":717,"o":"m 229 1263 q 224 1290 224 1278 q 238 1311 224 1307 q 286 1315 251 1315 l 335 1315 l 364 1257 q 435 1160 397 1192 q 476 1114 476 1124 q 411 1099 476 1099 q 382 1101 399 1099 q 295 1160 343 1110 q 229 1263 247 1211 m 444 933 q 403 989 415 989 q 385 978 396 989 q 301 788 344 936 q 258 588 258 636 q 260 581 258 582 q 267 579 263 579 q 340 588 276 579 q 475 604 444 601 q 522 611 514 607 q 531 628 531 615 q 501 775 531 668 q 444 933 471 882 m 289 1042 q 336 1057 310 1057 q 367 1056 354 1057 q 453 1040 422 1051 q 514 1001 483 1029 q 686 440 628 896 q 706 212 696 357 q 717 7 717 67 q 715 -18 717 -15 q 683 -29 711 -29 q 633 -21 660 -29 q 600 0 607 -12 q 585 161 592 13 q 549 532 567 468 q 521 544 544 544 q 481 543 499 544 q 332 522 417 538 q 242 497 247 506 q 233 453 239 493 q 207 247 225 400 q 189 58 189 94 l 189 8 l 157 8 q 96 21 126 8 q 69 35 76 28 q 60 58 63 43 q 59 66 60 60 q 58 76 58 72 q 83 338 58 144 q 135 660 108 531 q 289 1042 200 981 z "},"":{"ha":763,"x_min":58,"x_max":707,"o":"m 397 1279 q 417 1317 408 1311 q 468 1322 425 1322 l 472 1322 q 525 1310 519 1322 q 526 1299 526 1307 q 508 1238 526 1275 q 464 1172 489 1200 q 395 1111 424 1126 q 321 1096 367 1096 l 297 1096 q 272 1108 272 1097 q 306 1147 272 1119 q 397 1279 376 1206 m 433 919 q 393 974 406 974 q 375 963 386 974 q 292 772 335 921 q 249 571 249 621 q 250 564 249 565 q 257 563 253 563 q 331 571 267 563 q 374 577 344 572 q 427 585 404 582 q 464 589 450 588 q 508 596 497 592 q 519 618 519 600 q 504 704 519 636 q 433 919 475 835 m 290 1036 q 324 1040 299 1040 q 438 1026 389 1040 q 559 903 510 1004 q 647 603 608 803 q 688 296 669 483 q 707 -1 707 108 l 707 -46 l 682 -46 q 625 -36 654 -46 q 590 -15 596 -26 q 575 140 582 -3 q 557 372 569 249 q 538 517 544 496 q 515 529 533 529 q 471 526 513 529 q 322 506 408 521 q 232 483 236 490 q 220 417 228 476 q 213 336 213 358 q 201 211 213 290 q 186 44 190 125 l 186 -8 l 143 -6 q 78 14 99 -1 q 62 31 65 24 q 58 63 58 39 l 58 94 q 82 352 60 168 q 125 642 104 536 q 290 1036 193 993 z "},"":{"ha":774,"x_min":58,"x_max":718,"o":"m 315 1301 q 382 1315 331 1315 q 443 1303 426 1315 q 513 1218 460 1290 q 572 1144 561 1154 q 592 1117 592 1125 q 563 1101 592 1106 q 535 1099 543 1099 q 410 1175 468 1099 q 376 1214 383 1214 q 324 1167 371 1214 l 276 1121 l 225 1121 q 168 1135 168 1121 q 182 1154 168 1142 q 253 1231 194 1164 q 315 1301 311 1297 m 444 950 q 404 1004 417 1004 q 386 993 397 1004 q 303 803 346 951 q 258 603 258 646 q 260 596 258 597 q 267 594 263 594 q 342 603 278 594 q 475 619 449 617 q 508 623 499 621 q 524 631 518 625 q 531 650 531 638 q 515 736 531 668 q 444 950 488 864 m 290 1057 q 338 1072 311 1072 q 368 1071 356 1072 q 454 1056 424 1067 q 513 1018 485 1044 q 658 635 600 936 q 700 328 682 514 q 718 31 718 143 l 718 -15 l 693 -15 q 638 -5 667 -15 q 601 17 608 6 q 585 172 592 32 q 549 549 567 492 q 525 561 544 561 q 481 558 522 561 q 333 537 417 553 q 243 513 249 521 q 233 468 239 506 q 189 74 189 124 l 189 24 l 157 24 q 99 35 126 24 q 64 63 72 46 q 58 103 58 72 q 85 360 58 158 q 242 1007 151 874 q 290 1057 264 1040 z "},"":{"ha":772,"x_min":58,"x_max":717,"o":"m 525 1267 q 568 1275 531 1275 l 585 1275 l 636 1272 l 635 1228 q 597 1123 633 1160 q 492 1086 560 1086 l 488 1086 q 404 1100 436 1086 q 331 1154 372 1114 l 281 1201 l 265 1182 q 246 1135 251 1163 q 238 1110 243 1115 q 211 1101 232 1104 q 181 1100 203 1100 q 150 1101 158 1100 q 124 1108 129 1104 q 118 1125 118 1113 q 140 1186 118 1149 q 186 1240 163 1224 q 276 1260 215 1260 q 361 1247 333 1260 q 432 1188 389 1235 q 478 1146 469 1146 q 488 1154 479 1146 q 508 1213 501 1175 q 525 1267 519 1260 m 444 942 q 403 997 415 997 q 385 986 396 997 q 301 799 342 940 q 258 593 258 653 l 260 588 l 264 588 q 372 600 282 588 q 506 615 482 615 q 526 619 521 615 q 531 633 531 622 q 501 783 531 675 q 444 942 471 890 m 293 1051 q 339 1064 311 1064 q 367 1063 356 1064 q 513 1010 464 1056 q 638 729 586 942 q 710 192 689 517 q 717 22 717 78 l 717 -22 l 693 -22 q 635 -12 665 -22 q 600 8 606 -3 q 585 164 592 21 q 549 540 567 483 q 526 553 544 553 q 485 550 524 553 q 333 529 418 544 q 243 506 247 514 q 233 460 239 499 q 207 253 225 406 q 189 67 189 101 l 189 17 l 161 17 q 103 25 136 17 q 68 47 78 33 q 58 97 58 61 q 64 174 58 110 q 131 646 89 429 q 217 953 174 863 q 293 1051 249 1024 z "},"":{"ha":771,"x_min":58,"x_max":717,"o":"m 190 1239 q 213 1251 197 1251 q 236 1250 225 1251 q 294 1238 274 1246 q 314 1208 314 1229 q 313 1199 314 1206 q 313 1189 313 1193 l 310 1147 l 275 1146 l 267 1146 q 210 1156 233 1146 q 185 1170 190 1164 q 181 1194 181 1176 q 190 1239 181 1219 m 440 1244 q 469 1251 447 1251 q 543 1238 506 1251 q 558 1228 554 1233 q 563 1211 563 1224 q 562 1203 563 1210 q 561 1193 561 1197 l 558 1156 l 518 1153 l 506 1153 q 453 1163 471 1153 q 435 1177 439 1169 q 431 1204 431 1185 q 440 1244 431 1235 m 446 957 q 404 1013 417 1013 q 386 1001 397 1013 q 303 811 346 960 q 260 610 260 661 q 261 603 260 604 l 265 603 q 372 615 282 603 q 506 631 482 631 q 526 634 521 631 q 531 649 531 638 q 501 799 531 690 q 446 957 472 907 m 276 1056 q 328 1081 306 1081 q 363 1079 347 1081 q 452 1064 421 1075 q 514 1025 483 1053 q 590 904 560 983 q 651 674 621 825 q 690 438 682 529 q 717 28 717 203 q 715 6 717 8 q 683 -6 711 -6 q 634 3 660 -6 q 601 24 608 11 q 586 179 593 36 q 568 411 581 288 q 549 556 556 535 q 526 568 544 568 q 482 565 524 568 q 333 544 417 560 q 243 521 249 529 q 232 472 238 511 q 189 81 189 96 l 189 32 l 154 32 q 64 72 88 32 q 58 115 58 82 q 60 151 58 138 q 131 658 82 411 q 199 926 167 836 q 276 1056 232 1017 z "},"":{"ha":772,"x_min":58,"x_max":718,"o":"m 440 938 q 401 979 417 979 q 346 903 381 979 q 290 733 321 850 q 258 581 258 615 q 260 572 258 574 q 265 571 263 571 q 372 583 285 571 q 506 600 492 600 q 526 603 521 600 q 531 618 531 607 q 499 776 531 663 q 440 938 467 890 m 385 1051 l 388 1051 q 417 1072 406 1051 q 428 1121 428 1093 q 406 1188 428 1167 l 386 1207 l 368 1188 q 347 1131 351 1169 q 347 1123 347 1128 q 346 1115 346 1118 q 385 1051 346 1056 m 294 1242 q 379 1253 321 1253 q 489 1238 456 1253 q 560 1140 549 1210 q 560 1133 560 1138 q 561 1128 561 1129 q 549 1073 561 1103 q 519 1026 538 1043 l 500 1010 l 529 978 q 642 691 594 906 q 710 175 690 476 q 718 13 718 54 q 706 -36 718 -32 q 694 -37 703 -37 q 640 -28 672 -37 q 601 -8 607 -18 q 586 153 593 4 q 550 526 569 442 q 532 542 546 546 q 465 533 511 538 q 324 512 401 526 q 243 490 247 497 q 233 444 239 483 q 207 238 225 390 q 189 51 189 86 l 189 0 l 158 0 q 100 12 128 0 q 64 40 72 24 q 58 78 58 50 q 85 339 58 124 q 155 742 113 567 q 239 979 197 917 q 260 1018 260 1013 q 253 1029 260 1022 q 226 1072 238 1043 q 215 1128 215 1100 q 216 1135 215 1131 q 217 1142 217 1140 q 244 1200 221 1171 q 294 1242 267 1229 z "},"":{"ha":1288,"x_min":61,"x_max":1229,"o":"m 654 683 q 652 922 654 871 q 643 972 650 972 q 611 933 631 972 q 469 638 581 874 q 360 400 358 403 q 508 396 361 399 l 654 393 l 654 683 m 519 1010 l 529 1026 l 810 1025 q 1042 1021 992 1024 q 1101 1010 1093 1018 q 1111 996 1111 1000 q 944 981 1111 981 l 786 981 l 786 568 l 951 571 l 1024 571 q 1139 558 1118 571 q 1153 535 1161 543 q 1036 523 1147 529 q 822 515 925 517 l 785 514 l 788 300 q 796 82 790 88 q 1004 71 801 76 q 1174 65 1138 68 q 1218 54 1210 63 q 1229 38 1229 43 q 1138 25 1229 25 q 976 28 1118 25 q 703 42 736 32 q 676 59 683 47 q 666 101 669 71 q 658 217 663 132 q 658 221 658 219 l 653 342 l 618 346 q 458 350 589 350 l 335 350 l 274 224 q 206 75 210 89 q 184 47 200 54 q 124 39 168 39 q 61 58 61 39 q 71 83 61 67 q 296 550 89 113 q 519 1010 486 953 z "},"":{"ha":799,"x_min":56,"x_max":742,"o":"m 390 1031 q 521 1042 428 1042 l 551 1042 q 644 1026 614 1042 q 698 981 683 1008 q 715 896 713 954 l 715 876 q 710 824 715 829 q 646 814 700 814 q 592 822 600 814 q 576 892 582 832 q 510 994 567 994 q 447 978 485 994 q 285 812 351 933 q 201 521 219 690 q 197 440 197 479 q 292 182 197 276 q 381 119 331 143 q 475 96 432 96 q 519 106 501 96 q 601 218 583 139 q 618 267 608 261 q 678 272 626 272 q 729 268 717 272 q 742 249 742 264 q 731 200 742 236 q 550 51 692 72 q 517 42 528 49 q 494 17 506 35 q 476 -19 476 -7 q 499 -39 476 -31 q 549 -74 529 -51 q 568 -119 568 -96 q 508 -205 568 -164 q 388 -246 449 -246 q 354 -242 369 -246 q 333 -225 333 -236 q 371 -192 333 -212 q 444 -117 444 -151 q 383 -62 444 -94 q 344 -24 344 -40 q 360 17 344 -11 l 381 53 l 342 63 q 165 160 238 89 q 67 333 93 232 q 56 436 56 381 q 147 824 56 636 q 249 954 183 899 q 390 1031 314 1010 z "},"":{"ha":499,"x_min":54,"x_max":440,"o":"m 99 1331 q 132 1335 106 1335 q 201 1326 181 1335 q 235 1278 208 1324 q 304 1185 253 1242 q 344 1129 344 1142 q 314 1119 344 1119 q 251 1129 288 1119 q 179 1181 219 1139 q 113 1272 139 1222 q 93 1321 93 1310 q 99 1331 93 1326 m 60 1031 q 249 1044 71 1044 q 422 1032 406 1044 q 431 1021 431 1025 q 296 997 431 1001 l 192 994 l 192 942 q 197 807 192 896 l 203 724 l 301 724 q 414 713 399 724 q 422 707 419 708 q 424 703 424 706 q 421 699 424 700 q 410 693 418 697 q 296 679 392 683 l 203 675 l 199 483 q 198 416 199 463 q 197 347 197 369 q 200 194 197 258 l 204 97 l 278 97 q 435 74 415 97 q 440 63 440 68 q 300 47 440 47 q 86 72 117 47 q 67 367 67 86 l 67 432 l 67 500 q 60 838 67 701 q 54 989 54 939 q 60 1031 54 1025 z "},"":{"ha":493,"x_min":53,"x_max":435,"o":"m 264 1315 l 268 1346 l 313 1346 q 390 1301 390 1346 q 315 1167 388 1244 q 274 1129 288 1138 q 243 1121 261 1121 q 189 1128 221 1121 q 157 1140 157 1135 q 196 1188 157 1146 q 264 1315 257 1258 m 64 1013 q 153 1017 69 1017 q 401 1006 365 1017 q 425 988 425 999 q 303 974 425 975 l 181 972 l 181 869 q 188 713 183 758 l 192 658 l 286 657 q 413 632 413 657 q 411 628 413 631 q 286 608 404 608 l 257 608 l 190 613 l 185 565 q 181 339 181 519 q 185 119 181 158 l 190 78 l 311 76 q 435 61 435 75 q 254 36 435 38 q 103 44 135 36 q 61 82 71 51 q 53 556 53 110 l 53 717 q 64 1013 53 1006 z "},"":{"ha":539,"x_min":56,"x_max":481,"o":"m 167 1313 q 195 1334 185 1331 q 249 1338 206 1338 q 324 1324 306 1338 q 397 1222 344 1308 q 450 1119 450 1136 q 394 1108 450 1108 q 352 1113 363 1108 q 325 1136 342 1117 q 278 1200 300 1167 q 247 1238 253 1238 q 201 1179 242 1238 l 161 1121 l 117 1121 q 56 1139 56 1121 q 61 1156 56 1142 q 110 1237 74 1182 q 167 1313 146 1292 m 139 1022 q 196 1024 154 1024 q 426 1011 386 1024 q 449 993 449 1006 q 367 975 449 975 q 289 978 350 975 l 192 983 l 196 964 q 201 811 201 944 l 201 678 l 301 678 q 408 674 381 678 q 435 658 435 669 q 390 633 435 643 q 281 622 344 622 l 199 622 l 204 450 q 219 183 210 279 q 221 164 219 176 q 240 92 228 103 q 336 79 254 81 q 360 79 351 79 q 481 51 481 78 q 367 33 481 33 q 288 35 317 33 q 100 81 122 43 q 64 646 69 136 q 61 878 61 854 q 71 1010 61 1001 q 139 1022 81 1019 z "},"":{"ha":533,"x_min":54,"x_max":474,"o":"m 261 1225 q 324 1238 272 1238 q 379 1228 365 1238 q 394 1175 393 1217 l 397 1133 l 364 1125 q 331 1122 353 1122 q 299 1125 308 1122 q 268 1137 274 1131 q 257 1172 263 1143 q 254 1200 254 1194 q 261 1225 254 1215 m 60 1218 q 129 1229 68 1229 q 179 1221 172 1229 q 189 1175 183 1214 q 190 1153 190 1165 q 175 1132 190 1136 q 117 1128 161 1128 q 67 1132 75 1128 q 54 1189 54 1139 q 60 1218 54 1213 m 163 1029 q 311 1032 274 1032 q 456 1022 446 1032 q 460 1015 460 1018 q 314 990 460 996 l 199 986 l 199 693 l 318 694 l 369 694 q 471 676 471 694 q 315 649 471 656 l 197 643 l 200 374 q 208 96 203 104 q 339 86 215 92 q 474 67 474 82 q 465 54 474 61 q 329 40 450 40 q 101 57 193 40 q 79 75 90 58 q 69 356 74 83 q 64 840 64 628 q 68 1017 64 1011 q 163 1029 76 1026 z "},"":{"ha":393,"x_min":61,"x_max":335,"o":"m 68 1310 q 103 1313 71 1313 l 125 1313 l 176 1311 l 204 1253 q 248 1181 226 1207 q 306 1131 269 1156 q 335 1100 335 1111 q 297 1085 335 1089 q 268 1082 275 1082 q 149 1140 213 1082 q 86 1217 111 1174 q 61 1289 61 1261 q 68 1310 61 1303 m 157 1004 q 218 1018 175 1018 q 271 1007 256 1018 q 281 977 279 1001 q 283 857 283 953 q 282 521 283 681 q 271 36 279 47 q 224 28 264 28 l 204 28 l 144 31 l 142 510 l 140 990 l 157 1004 z "},"":{"ha":358,"x_min":61,"x_max":300,"o":"m 189 1314 q 250 1322 203 1322 q 288 1318 278 1322 q 300 1282 300 1314 q 292 1226 300 1256 q 196 1110 275 1169 q 117 1088 164 1088 q 61 1100 61 1088 q 99 1143 61 1110 q 172 1274 160 1196 q 189 1314 178 1307 m 129 1007 q 175 1017 138 1017 l 193 1017 l 246 1014 l 250 572 q 256 81 253 143 l 257 31 l 201 28 l 178 28 q 138 36 143 28 q 117 311 129 46 q 106 744 106 576 q 129 1007 106 979 z "},"":{"ha":514,"x_min":61,"x_max":456,"o":"m 179 1308 q 208 1326 196 1322 q 251 1331 221 1331 q 349 1290 318 1329 q 411 1187 367 1268 q 456 1097 456 1106 q 396 1089 456 1089 q 350 1094 361 1089 q 293 1165 331 1101 q 253 1228 256 1228 q 217 1174 249 1228 q 165 1111 185 1118 q 117 1104 144 1104 q 61 1119 61 1104 q 113 1211 61 1129 q 179 1308 164 1293 m 214 1015 q 272 1025 228 1025 q 321 1017 308 1025 q 342 824 333 1007 q 350 319 350 649 q 343 36 350 47 q 267 25 336 25 q 225 31 231 25 q 214 386 219 36 q 204 868 208 747 q 201 964 201 957 q 214 1015 201 1006 z "},"":{"ha":497,"x_min":61,"x_max":439,"o":"m 344 1268 q 394 1274 374 1274 q 421 1266 413 1274 q 435 1239 429 1258 q 439 1210 439 1225 q 425 1167 439 1176 q 349 1147 403 1147 q 341 1148 346 1147 q 335 1149 336 1149 q 301 1169 314 1151 q 289 1214 289 1188 l 289 1221 q 302 1253 290 1243 q 344 1268 314 1263 m 113 1260 q 163 1265 140 1265 q 199 1256 188 1265 q 214 1221 210 1246 q 215 1213 214 1218 q 215 1207 215 1208 q 203 1174 215 1190 q 180 1158 192 1161 q 133 1154 168 1154 q 88 1158 97 1154 q 69 1175 78 1161 q 61 1204 61 1189 q 75 1240 61 1225 q 113 1260 89 1256 m 203 1032 q 240 1040 211 1040 q 296 1033 264 1040 q 319 1023 313 1029 q 329 1001 326 1017 q 333 506 333 981 l 333 35 l 318 31 q 294 28 307 28 q 203 43 224 28 q 192 536 192 51 q 203 1032 192 1021 z "},"":{"ha":811,"x_min":61,"x_max":763,"o":"m 388 969 q 340 978 354 978 q 322 965 326 978 q 310 819 318 950 q 303 629 303 688 l 303 567 l 392 564 q 493 543 493 560 q 488 531 493 538 q 462 517 481 521 q 388 511 443 514 q 309 505 321 508 q 296 488 297 501 l 296 461 q 299 269 296 431 l 304 72 l 349 76 q 510 158 440 88 q 611 343 581 229 q 629 575 629 408 q 624 690 629 651 q 547 874 608 801 q 388 969 485 947 m 204 1013 q 322 1017 208 1014 l 332 1017 q 528 990 451 1017 q 663 903 604 964 q 740 771 717 844 q 763 574 763 697 q 761 513 763 533 q 747 357 758 410 q 703 239 735 304 q 424 38 624 74 q 290 14 301 15 q 225 6 249 6 q 201 8 215 6 l 174 15 l 169 175 q 165 316 168 226 q 163 418 163 406 l 163 501 l 129 506 q 83 522 106 510 q 61 543 61 533 q 63 547 61 546 q 117 557 69 551 l 165 561 l 171 710 q 185 917 175 846 q 189 958 189 944 q 183 985 189 976 q 179 994 179 989 q 204 1013 179 1006 z "},"":{"ha":822,"x_min":53,"x_max":772,"o":"m 553 1290 q 604 1297 563 1297 q 657 1290 647 1297 q 678 1240 678 1281 q 669 1188 678 1217 q 567 1096 649 1111 q 522 1092 544 1092 q 363 1139 458 1092 q 282 1171 301 1171 l 279 1171 q 267 1158 272 1168 q 259 1133 263 1149 q 254 1114 256 1117 q 203 1099 250 1099 q 135 1117 146 1099 q 131 1135 131 1125 q 161 1189 131 1164 q 201 1215 183 1208 q 256 1221 219 1221 q 299 1219 282 1221 q 370 1211 349 1217 q 438 1183 392 1206 q 513 1150 504 1150 q 531 1175 524 1150 q 539 1236 539 1200 q 553 1290 539 1283 m 647 997 q 710 1011 658 1011 q 765 999 756 1011 q 772 731 772 989 q 758 179 772 239 q 704 42 731 51 q 651 35 686 35 q 603 40 619 35 q 351 526 542 57 q 238 796 271 725 l 208 858 l 201 831 q 192 426 194 804 q 181 38 190 49 q 118 25 169 25 q 67 36 71 25 q 53 533 53 78 q 56 697 53 628 q 71 884 63 833 q 101 957 79 935 q 129 976 117 972 q 183 979 142 979 q 260 969 235 979 q 308 931 286 958 q 490 533 358 865 q 622 232 611 232 q 625 233 624 232 q 635 613 632 240 q 647 997 638 985 z "},"":{"ha":838,"x_min":56,"x_max":788,"o":"m 260 1318 q 314 1331 264 1331 q 367 1323 356 1331 q 389 1281 378 1315 q 438 1210 399 1253 q 503 1156 476 1168 q 529 1133 529 1143 q 492 1115 529 1119 q 467 1114 483 1114 q 349 1161 406 1114 q 282 1235 307 1196 q 257 1301 257 1274 q 260 1318 257 1307 m 486 936 q 390 960 447 960 q 272 915 310 960 q 188 586 188 818 q 194 468 188 535 q 458 89 232 92 q 504 93 490 89 q 540 114 518 97 q 650 475 649 196 l 650 483 q 486 936 650 839 m 336 1029 q 443 1040 376 1038 l 461 1040 q 513 1025 500 1040 q 538 1010 528 1010 q 598 985 557 1010 q 665 935 639 961 q 788 513 788 813 q 787 487 788 504 q 786 460 786 469 q 722 176 779 267 q 528 46 665 86 q 421 35 489 35 l 390 35 q 306 41 328 36 q 247 64 285 46 q 115 201 161 104 q 72 331 85 265 q 57 510 60 396 q 56 538 57 519 q 56 565 56 557 q 101 844 56 744 q 197 961 132 910 q 336 1029 263 1013 z "},"":{"ha":839,"x_min":56,"x_max":789,"o":"m 417 1297 q 464 1306 425 1306 l 481 1306 l 536 1303 l 533 1276 q 454 1132 526 1200 q 382 1088 410 1089 l 361 1088 q 296 1094 296 1088 q 329 1139 296 1103 q 382 1213 357 1169 q 407 1276 407 1257 q 417 1297 407 1288 m 488 929 q 394 953 444 953 q 281 913 321 953 q 213 778 238 869 q 189 574 189 688 q 196 456 189 522 q 460 81 236 83 q 505 85 490 81 q 542 107 519 90 q 651 475 650 189 q 488 929 651 833 m 82 779 q 95 824 82 779 q 168 926 108 869 q 288 1008 228 983 q 444 1032 349 1032 l 468 1032 q 514 1018 503 1032 q 539 1003 529 1003 q 599 979 558 1003 q 665 929 639 956 q 789 507 789 803 q 788 451 789 471 q 735 189 781 275 q 581 56 690 103 q 515 34 538 38 q 411 31 492 31 l 383 31 q 303 34 322 31 q 249 56 283 38 q 56 542 56 150 q 82 779 56 689 z "},"":{"ha":829,"x_min":54,"x_max":776,"o":"m 369 1314 q 433 1321 392 1318 l 439 1321 q 483 1306 465 1321 q 528 1249 501 1292 q 588 1167 557 1206 q 625 1108 625 1119 q 595 1090 625 1100 q 542 1081 565 1081 l 538 1081 q 486 1114 515 1081 q 429 1183 447 1156 q 397 1219 406 1219 q 347 1167 388 1219 q 308 1121 321 1132 q 272 1104 294 1110 q 224 1096 239 1096 q 199 1103 210 1096 q 194 1110 194 1106 q 222 1151 194 1118 q 271 1217 256 1190 q 317 1278 288 1249 q 369 1314 347 1308 m 461 943 q 392 961 425 961 q 328 951 363 961 q 229 856 268 936 q 183 568 183 757 q 189 463 183 507 q 453 89 229 92 q 499 93 485 89 q 535 114 513 97 q 593 186 568 140 q 649 478 649 286 q 614 724 649 621 q 549 867 583 817 q 461 943 514 917 m 331 1029 q 435 1040 371 1038 l 451 1040 q 500 1025 488 1040 q 526 1010 515 1010 q 585 987 546 1010 q 651 938 625 964 q 776 465 775 813 l 776 450 q 730 201 776 290 q 576 65 683 113 q 507 42 531 46 q 404 38 483 38 q 303 41 325 38 q 243 64 282 44 q 138 153 178 96 q 72 311 99 210 q 54 542 54 375 l 54 581 q 63 744 54 693 q 101 854 72 794 q 196 964 131 914 q 331 1029 261 1014 z "},"":{"ha":835,"x_min":54,"x_max":783,"o":"m 608 1286 q 615 1287 610 1286 q 624 1288 621 1288 q 665 1279 657 1288 q 667 1274 667 1279 q 655 1217 667 1257 q 633 1164 643 1178 q 488 1101 593 1101 l 482 1101 q 335 1158 397 1103 q 299 1179 311 1179 l 296 1179 q 275 1143 285 1174 q 251 1102 265 1111 q 193 1089 238 1093 l 142 1086 l 147 1113 q 204 1217 160 1172 q 336 1251 240 1250 q 375 1247 363 1251 q 410 1225 388 1243 q 504 1164 486 1164 q 514 1167 511 1164 q 535 1221 528 1176 q 555 1269 542 1257 q 608 1286 568 1281 m 482 936 q 382 960 442 960 q 333 954 354 960 q 229 856 269 938 q 183 572 183 757 q 214 322 183 428 q 453 89 279 89 q 499 93 485 89 q 535 114 513 97 q 646 483 644 197 q 482 936 646 840 m 163 935 q 280 1014 221 992 q 439 1040 339 1036 l 457 1040 q 508 1025 496 1040 q 533 1010 524 1010 q 592 986 551 1010 q 660 936 633 963 q 783 503 781 813 q 743 225 783 332 q 576 65 703 119 q 507 42 531 46 q 404 38 483 38 q 302 41 322 38 q 243 64 282 44 q 139 153 179 96 q 72 311 99 211 q 54 542 54 375 l 54 589 q 68 760 54 708 q 163 935 99 872 z "},"":{"ha":838,"x_min":56,"x_max":788,"o":"m 493 1249 q 558 1260 519 1260 q 597 1250 596 1260 q 604 1204 599 1243 q 606 1182 606 1194 q 592 1158 606 1165 q 529 1144 571 1147 q 500 1142 501 1142 q 475 1161 483 1142 q 468 1210 468 1179 q 472 1235 468 1228 q 493 1249 476 1242 m 272 1246 q 318 1250 301 1250 q 344 1240 339 1250 q 351 1201 350 1231 q 352 1191 351 1197 q 353 1182 353 1185 q 328 1153 353 1161 q 274 1144 303 1144 l 265 1144 q 233 1151 239 1147 q 222 1181 228 1156 q 219 1200 219 1194 q 272 1246 219 1242 m 486 936 q 386 960 446 960 q 336 954 358 960 q 256 894 290 943 q 206 768 222 846 q 189 581 189 689 q 218 324 189 428 q 458 89 282 92 q 504 93 490 89 q 540 114 518 97 q 650 475 649 196 l 650 483 q 486 936 650 839 m 336 1029 q 443 1040 392 1040 l 461 1040 q 513 1025 500 1040 q 538 1010 528 1010 q 597 986 556 1010 q 664 936 638 963 q 788 513 788 810 q 786 456 788 475 q 733 198 779 285 q 581 65 688 111 q 511 41 533 44 q 410 38 489 38 q 307 41 328 38 q 247 64 286 44 q 115 201 161 104 q 72 331 85 265 q 57 510 60 396 q 56 538 57 519 q 56 565 56 557 q 101 844 56 744 q 197 962 132 910 q 336 1029 263 1014 z "},"":{"ha":704,"x_min":58,"x_max":649,"o":"m 58 801 q 60 807 58 804 q 63 812 61 810 q 68 815 65 814 q 76 818 71 817 q 84 820 81 819 q 93 821 88 821 q 103 822 99 821 q 113 822 107 822 q 122 822 119 822 l 131 822 q 171 810 156 822 q 232 740 186 797 q 314 649 274 689 l 351 613 l 410 672 q 504 775 479 744 l 542 817 l 589 817 q 646 808 640 814 q 649 801 649 806 q 519 640 649 775 l 424 539 l 533 429 q 644 310 644 318 q 583 294 644 294 q 558 296 567 294 q 442 383 529 301 l 354 465 l 275 388 q 175 300 200 313 q 111 290 157 290 q 63 299 72 290 q 60 304 60 301 q 164 418 60 318 q 276 536 276 528 q 200 622 276 543 q 58 801 58 767 z "},"":{"ha":853,"x_min":57,"x_max":803,"o":"m 651 657 q 631 729 636 729 q 564 638 625 729 q 283 192 283 204 q 328 133 283 174 q 404 82 374 92 q 471 71 442 71 q 651 281 607 71 q 665 464 665 353 q 651 657 665 576 m 496 925 q 407 944 454 944 q 286 900 322 944 q 206 619 218 818 q 205 597 206 613 q 204 574 204 582 q 225 344 204 401 q 231 338 228 338 q 272 388 239 338 q 425 628 306 439 q 564 847 560 839 q 567 857 567 853 q 542 894 567 874 q 496 925 517 915 m 351 1014 q 458 1025 407 1025 l 476 1025 q 528 1010 515 1025 q 554 994 543 994 q 600 979 567 994 l 633 963 l 651 979 q 719 994 668 994 q 776 981 776 994 q 750 924 776 964 l 718 874 l 735 843 q 803 490 803 710 q 802 468 803 483 q 801 444 801 453 q 752 190 796 278 q 613 57 708 101 q 436 18 526 18 q 417 19 431 18 q 396 19 403 19 q 319 26 342 21 q 261 49 296 32 l 210 75 l 194 54 q 172 38 183 40 q 119 35 160 35 q 57 46 57 35 q 93 113 57 63 l 133 172 l 110 242 q 71 506 71 357 q 72 578 71 553 q 85 730 75 676 q 121 836 94 783 q 217 947 150 896 q 351 1014 283 999 z "},"":{"ha":846,"x_min":56,"x_max":796,"o":"m 265 1286 q 331 1315 265 1315 q 371 1310 351 1315 q 406 1261 382 1306 q 464 1173 426 1219 q 532 1104 501 1126 q 554 1079 554 1088 q 515 1064 554 1065 q 483 1063 503 1063 q 434 1073 453 1063 q 381 1118 415 1083 q 303 1212 340 1157 q 265 1286 265 1267 m 638 979 q 721 1018 638 1018 q 759 1015 750 1018 q 772 1000 768 1011 q 788 812 779 981 q 796 526 796 643 q 795 499 796 517 q 794 475 794 481 q 776 300 789 354 q 736 184 764 244 q 685 97 708 124 q 467 22 614 22 q 414 25 432 22 q 312 53 354 32 q 218 125 269 75 q 113 284 147 192 q 61 550 79 376 q 56 719 56 606 q 71 975 56 942 q 122 1006 83 999 q 160 1008 135 1008 q 183 1007 178 1008 l 203 1003 l 201 774 l 201 694 q 218 451 201 546 q 297 214 249 288 q 396 117 332 161 q 500 74 460 74 q 578 132 539 74 q 640 285 617 190 q 661 503 661 372 q 649 697 661 540 q 638 979 638 853 z "},"":{"ha":847,"x_min":57,"x_max":797,"o":"m 454 1294 q 519 1328 454 1328 l 536 1328 q 582 1315 582 1326 q 581 1311 582 1314 q 581 1307 581 1308 q 526 1202 576 1267 q 435 1118 476 1138 q 365 1104 407 1104 q 329 1111 338 1104 q 325 1117 325 1114 q 354 1150 325 1125 q 420 1227 386 1178 q 454 1294 454 1276 m 657 1039 q 719 1049 679 1049 q 771 1039 764 1049 q 788 856 778 1028 q 797 581 797 685 l 797 571 q 674 118 797 231 q 467 53 601 53 q 311 86 378 53 q 213 164 269 107 q 135 267 157 221 q 57 761 57 422 l 57 811 q 69 998 60 967 q 124 1036 79 1029 q 163 1039 136 1039 q 186 1038 181 1039 l 207 1032 l 201 864 q 200 769 200 831 q 228 435 200 583 q 285 267 247 332 q 388 156 322 201 q 506 104 460 104 q 581 165 542 104 q 642 317 619 226 q 663 536 663 404 q 639 1006 663 667 q 657 1039 638 1028 z "},"":{"ha":836,"x_min":56,"x_max":788,"o":"m 407 1325 q 463 1329 436 1329 q 503 1325 492 1329 q 575 1240 513 1321 q 654 1140 646 1149 q 669 1119 668 1124 q 660 1107 671 1114 q 588 1090 639 1090 q 557 1094 567 1090 q 486 1169 542 1101 l 435 1238 l 386 1186 q 317 1126 336 1133 q 261 1119 300 1119 q 222 1128 222 1119 q 260 1179 222 1136 q 342 1274 306 1231 q 407 1325 385 1322 m 647 1024 q 713 1033 667 1033 q 751 1031 743 1033 q 764 1017 760 1028 q 779 828 771 997 q 788 540 788 658 q 787 513 788 531 q 786 488 786 494 q 758 257 783 404 q 734 188 757 233 q 686 117 711 143 q 599 60 656 82 q 488 40 544 40 l 460 40 q 326 63 376 42 q 214 144 275 85 q 125 267 151 208 q 76 451 99 326 q 56 764 56 569 q 79 1007 56 981 q 144 1019 89 1017 l 199 1022 l 199 796 q 207 547 200 626 q 238 364 214 468 q 378 146 268 229 q 496 89 453 89 q 549 111 522 89 q 636 286 603 161 q 654 504 654 360 q 643 783 654 608 q 631 982 632 961 q 630 990 631 985 q 629 996 629 994 q 647 1024 629 1014 z "},"":{"ha":833,"x_min":56,"x_max":785,"o":"m 238 1234 q 240 1236 238 1234 q 254 1244 242 1239 q 290 1250 267 1250 q 354 1233 342 1250 q 363 1192 363 1222 q 358 1154 363 1161 q 332 1142 354 1147 q 296 1138 315 1138 q 269 1140 283 1138 l 238 1147 l 235 1192 q 234 1205 235 1197 q 233 1215 233 1213 q 238 1234 233 1229 m 503 1240 q 569 1253 515 1253 q 611 1246 600 1253 q 626 1172 626 1235 q 621 1143 626 1147 q 558 1136 610 1136 q 508 1142 515 1136 q 496 1188 501 1147 q 494 1211 494 1197 q 503 1240 494 1231 m 628 972 q 710 1011 628 1011 q 749 1008 740 1011 q 761 994 757 1006 q 776 806 768 975 q 785 519 785 638 q 784 490 785 508 q 783 467 783 472 q 674 93 774 203 q 467 19 607 19 q 411 24 440 19 q 308 53 350 31 q 213 129 267 75 q 112 287 144 197 q 61 546 79 376 q 56 714 56 600 q 72 986 56 969 q 136 999 81 996 l 190 1000 l 194 775 q 239 336 201 469 q 376 128 276 203 q 494 71 451 71 q 547 93 521 71 q 610 207 583 126 q 651 508 651 343 q 640 700 651 547 q 628 972 628 853 z "},"":{"ha":697,"x_min":61,"x_max":639,"o":"m 336 1290 l 342 1322 l 378 1322 q 440 1314 413 1322 l 465 1304 l 461 1263 q 393 1117 451 1178 l 360 1081 l 307 1083 q 244 1101 244 1088 q 272 1143 244 1111 q 336 1290 322 1199 m 521 1026 q 576 1033 535 1033 q 628 1026 617 1033 q 639 1013 639 1015 q 581 782 639 993 q 468 421 506 507 q 451 358 454 392 q 443 203 447 325 l 438 28 l 393 25 l 383 25 q 329 32 346 25 l 307 39 l 313 211 q 315 340 315 274 q 303 400 315 388 q 161 717 272 432 q 61 1000 61 974 q 61 1004 61 1001 l 63 1007 q 117 1019 68 1019 q 178 1010 165 1019 q 235 893 189 1001 q 324 665 281 785 q 371 550 364 557 q 381 560 374 546 q 390 582 386 568 q 444 785 399 611 q 499 994 490 960 q 521 1026 503 1019 z "},"":{"ha":649,"x_min":53,"x_max":594,"o":"m 396 718 q 377 735 396 718 q 315 769 358 753 q 228 786 272 786 l 185 786 l 185 279 l 207 285 q 289 321 240 293 q 371 379 338 349 q 465 571 465 465 q 450 644 465 607 q 396 718 433 683 m 71 1026 q 111 1032 82 1032 q 169 1022 160 1032 q 182 924 176 1015 l 188 833 l 239 833 q 515 739 417 831 q 594 574 594 668 q 568 465 594 518 q 440 319 528 381 q 239 238 351 258 q 190 219 196 229 q 183 131 185 208 l 181 36 l 64 36 l 60 233 q 54 726 58 310 l 53 1019 l 71 1026 z "},"":{"ha":763,"x_min":53,"x_max":707,"o":"m 263 1093 q 349 1103 301 1103 q 367 1102 354 1103 q 389 1101 381 1101 q 499 1085 463 1100 q 572 1031 536 1071 q 619 904 619 978 q 618 881 619 889 q 528 696 613 810 q 471 611 485 639 q 457 557 457 583 q 474 504 457 526 q 549 440 492 482 q 696 290 672 349 q 707 222 707 264 q 696 158 707 179 q 584 69 668 104 q 413 33 500 33 q 307 53 350 33 q 256 104 274 68 q 240 158 240 140 q 249 180 240 176 q 294 186 257 183 q 307 187 299 186 q 318 188 315 188 q 352 178 343 188 q 369 136 361 168 q 394 90 381 104 q 417 79 408 79 q 447 86 422 79 q 581 219 581 119 q 551 317 581 275 q 438 421 521 360 q 354 495 376 465 q 332 560 332 525 q 345 617 332 590 q 404 703 358 643 q 471 810 447 760 q 492 901 492 853 q 422 1042 492 999 q 368 1057 396 1057 q 275 1022 321 1057 q 208 929 229 986 q 184 822 190 882 q 178 629 178 763 q 181 411 178 589 q 183 150 183 282 q 181 75 183 90 q 171 56 179 60 q 121 47 154 47 q 72 57 83 47 q 60 123 63 64 q 54 442 57 182 q 53 669 53 536 q 59 852 53 803 q 83 946 65 901 q 263 1093 129 1054 z "},"":{"ha":747,"x_min":56,"x_max":697,"o":"m 272 1083 q 322 1097 283 1097 q 365 1089 350 1097 q 396 1047 381 1082 q 442 981 407 1021 q 510 919 478 942 q 526 900 526 907 q 464 883 526 883 q 418 888 432 883 q 386 906 404 892 q 264 1061 264 999 q 272 1083 264 1075 m 493 713 q 424 736 461 736 q 389 724 400 736 q 350 693 379 714 q 233 544 278 642 q 189 342 189 447 l 189 321 q 258 122 194 196 q 308 86 290 86 q 378 135 329 86 q 465 265 424 181 q 554 615 550 443 l 554 654 q 553 680 554 672 q 549 689 551 688 q 538 692 546 690 q 493 713 519 694 m 378 779 q 417 785 382 785 q 553 767 506 785 q 606 735 581 756 q 631 703 631 715 q 653 693 631 693 q 685 680 678 693 q 692 613 692 667 q 689 496 692 596 q 688 383 688 461 q 692 199 688 267 q 697 99 697 131 q 688 65 697 71 q 617 56 672 56 q 572 63 575 56 q 563 129 568 69 l 558 189 l 539 163 q 311 36 443 38 l 306 36 q 104 149 172 36 q 56 339 56 229 q 118 583 56 465 q 282 747 181 700 q 351 771 326 771 q 378 779 372 771 z "},"":{"ha":747,"x_min":56,"x_max":697,"o":"m 435 1097 q 481 1104 449 1104 q 531 1096 517 1104 q 540 1060 546 1089 q 474 938 529 1004 q 379 871 418 872 l 361 871 q 293 878 293 871 q 333 929 293 886 q 417 1064 403 1003 q 435 1097 422 1089 m 461 725 q 435 731 449 731 q 383 714 419 731 q 242 557 299 674 q 188 351 188 449 q 188 337 188 347 q 189 321 189 326 q 258 122 194 196 q 307 86 290 86 q 376 135 328 86 q 499 342 447 207 q 554 604 550 476 l 557 681 l 532 686 q 492 706 514 690 q 461 725 469 721 m 350 771 q 411 775 372 775 q 558 758 518 775 q 607 727 583 749 q 631 694 631 706 q 653 685 631 685 q 685 672 678 685 q 692 604 692 658 q 689 489 692 589 q 688 401 688 461 q 693 192 688 294 q 697 103 697 132 q 686 56 697 64 q 635 47 675 47 q 580 60 592 47 q 564 124 568 74 q 551 179 558 179 q 544 172 544 179 q 499 118 544 167 q 410 56 454 74 q 301 38 367 38 l 288 38 q 196 60 240 38 q 57 317 68 126 q 56 332 57 322 q 56 346 56 342 q 111 565 56 453 q 215 702 151 647 q 350 771 279 757 z "},"":{"ha":742,"x_min":54,"x_max":692,"o":"m 317 1088 q 376 1097 336 1097 q 433 1089 414 1097 q 490 1031 454 1081 q 564 935 538 965 q 593 888 593 901 q 539 872 593 872 q 478 886 500 872 q 415 953 456 900 q 376 996 382 996 q 321 935 372 996 q 274 884 290 897 q 240 868 258 871 q 211 865 224 865 q 151 881 151 865 q 185 929 151 888 q 258 1024 211 963 q 317 1088 296 1076 m 488 697 q 438 721 464 717 q 433 722 436 721 q 426 722 429 722 q 326 672 382 722 q 236 550 271 622 q 182 343 182 442 q 183 328 182 339 q 183 313 183 318 q 253 114 189 188 q 303 78 285 78 q 372 126 324 78 q 497 335 447 201 q 550 603 546 468 l 550 633 q 547 667 550 661 q 532 675 544 672 q 488 697 517 676 m 344 764 q 406 768 368 768 q 547 751 506 768 q 600 720 575 740 q 625 688 625 700 q 647 678 625 678 q 680 664 672 678 q 688 592 688 650 q 685 481 688 575 q 683 368 683 446 q 688 183 683 253 q 692 94 692 124 q 681 47 692 56 q 629 39 669 39 q 574 52 586 39 q 558 115 563 65 q 549 172 553 172 q 517 136 546 171 q 296 31 435 31 l 290 31 q 118 114 181 31 q 67 208 79 165 q 54 335 54 251 l 54 363 q 75 489 54 433 q 188 675 115 601 q 344 764 260 749 z "},"":{"ha":739,"x_min":56,"x_max":689,"o":"m 572 1061 q 596 1063 581 1063 q 644 1054 639 1063 q 646 1049 646 1053 q 639 1006 646 1033 q 486 874 614 885 q 461 872 478 872 q 392 887 419 872 q 331 939 364 901 l 293 983 l 279 965 q 260 921 265 949 q 238 888 256 896 q 178 879 221 879 q 133 900 133 879 q 140 929 133 908 q 169 981 149 956 q 211 1017 189 1006 q 313 1033 242 1033 q 369 1026 346 1033 q 440 974 399 1017 q 485 936 478 936 q 494 944 490 936 q 514 1000 507 964 q 532 1048 522 1038 q 572 1061 542 1058 m 486 697 q 433 721 464 715 l 424 721 q 327 676 381 721 q 239 564 274 631 q 198 469 208 504 q 188 381 188 433 q 188 358 188 374 q 189 333 189 343 q 206 202 192 249 q 257 114 221 156 q 307 79 288 79 q 364 117 329 79 q 482 310 433 189 q 546 569 531 432 q 551 640 551 633 q 529 678 551 678 q 486 697 513 678 m 342 764 q 403 768 365 768 q 544 751 503 768 q 597 720 572 740 q 622 688 622 700 q 644 678 622 678 q 677 664 669 678 q 685 592 685 650 q 682 481 685 575 q 681 349 681 439 q 685 183 681 246 q 689 94 689 124 q 678 47 689 56 q 626 39 667 39 q 572 52 583 39 q 556 115 560 65 q 544 172 550 172 q 517 140 543 172 q 394 43 464 69 q 301 31 360 31 l 285 31 q 196 51 238 31 q 76 194 115 93 q 56 336 56 249 q 69 451 56 404 q 93 536 75 467 q 139 618 100 564 q 206 696 178 672 q 342 764 271 750 z "},"":{"ha":742,"x_min":54,"x_max":692,"o":"m 221 1029 q 254 1033 233 1033 q 301 1026 281 1033 q 319 1013 315 1021 q 322 972 322 1004 q 312 923 322 932 q 253 914 301 914 q 203 926 217 914 q 189 972 189 939 q 221 1029 189 1018 m 458 1025 q 521 1035 472 1035 q 569 1028 558 1035 q 576 996 576 1025 l 576 976 l 575 931 l 544 924 q 508 919 528 919 q 482 922 496 919 l 450 929 l 447 972 q 447 982 447 976 q 446 990 446 988 q 458 1025 446 1014 m 488 697 q 436 721 464 715 q 431 722 435 721 q 425 722 428 722 q 326 673 381 722 q 236 550 272 624 q 182 343 182 442 q 183 328 182 339 q 183 313 183 318 q 253 114 189 188 q 301 79 282 79 q 372 128 324 79 q 494 333 443 199 q 549 596 544 468 q 549 622 549 607 q 550 640 550 636 q 547 668 550 664 q 532 675 544 672 q 488 697 517 676 m 344 764 q 406 768 365 768 q 542 756 494 768 q 596 724 567 749 q 625 688 625 700 q 647 678 625 678 l 649 678 q 681 667 674 678 q 688 603 688 656 q 685 488 688 588 q 683 375 683 453 q 688 186 683 253 q 692 96 692 125 q 681 47 692 56 q 629 39 669 39 q 574 52 586 39 q 557 121 563 65 l 551 183 l 521 142 q 296 31 440 31 l 290 31 q 118 114 181 31 q 67 207 79 164 q 54 335 54 250 q 58 425 54 399 q 75 489 61 451 q 188 675 115 601 q 344 764 260 749 z "},"":{"ha":743,"x_min":54,"x_max":692,"o":"m 422 1082 q 393 1104 408 1104 q 358 1074 379 1104 q 346 1026 346 1054 q 381 942 346 969 q 392 936 386 936 q 415 956 397 936 q 439 1019 439 983 q 422 1082 439 1060 m 310 1147 q 386 1157 335 1157 l 406 1157 q 506 1131 468 1154 q 571 1022 571 1090 q 503 913 571 953 q 459 895 476 899 q 392 892 442 892 q 302 902 328 893 q 246 944 276 911 q 215 1024 215 979 q 240 1097 215 1063 q 310 1147 265 1131 m 488 706 q 428 729 457 729 q 376 714 404 729 q 236 558 293 672 q 182 347 182 446 q 183 332 182 343 q 183 315 183 321 q 256 118 189 192 q 303 88 285 88 q 372 135 325 88 q 497 347 447 211 q 550 619 547 482 l 550 646 q 549 671 550 664 q 544 680 547 678 q 532 683 540 682 q 488 706 517 685 m 344 771 q 410 776 381 776 q 553 756 504 776 q 604 724 583 742 q 625 694 625 707 q 647 685 625 685 q 680 671 672 685 q 688 599 688 657 q 685 489 688 583 q 683 357 683 447 q 688 192 683 254 q 692 103 692 132 q 681 56 692 64 q 629 47 669 47 q 574 60 586 47 q 557 124 561 74 q 549 179 551 179 q 519 147 546 179 q 303 36 438 36 l 299 36 q 72 200 138 36 q 54 343 54 244 l 54 371 q 75 497 54 442 q 188 683 115 610 q 344 771 260 756 z "},"":{"ha":1213,"x_min":54,"x_max":1161,"o":"m 951 719 q 906 738 928 738 q 856 717 885 738 q 778 611 810 683 q 743 454 747 539 l 740 408 l 842 396 q 963 383 939 383 q 1004 400 988 383 q 1031 496 1031 426 q 1008 626 1031 560 q 951 719 986 693 m 469 721 q 410 739 428 739 q 309 688 365 739 q 228 574 253 636 q 185 335 185 467 q 246 114 185 172 q 272 96 264 96 q 294 103 278 96 q 376 170 325 115 q 458 276 428 225 q 557 540 524 388 q 566 578 561 558 q 574 609 571 597 q 576 624 576 621 q 538 672 576 636 q 469 721 499 707 m 338 778 q 413 783 372 783 q 643 704 560 783 l 674 675 l 713 714 q 797 770 753 754 q 914 786 840 786 q 984 783 964 786 q 1031 765 1004 779 q 1143 633 1110 726 q 1161 504 1161 579 q 1143 400 1161 428 q 972 339 1097 339 q 907 343 942 339 q 783 356 867 347 l 733 361 l 739 319 q 856 121 756 186 q 936 88 908 88 q 1004 133 969 88 l 1033 172 l 1088 172 q 1147 154 1147 172 q 1128 115 1147 143 q 967 42 1083 47 q 953 41 961 42 q 939 40 944 40 q 711 118 807 40 l 682 142 l 682 101 q 672 59 682 67 q 614 51 661 51 q 561 67 572 51 q 550 143 550 83 l 550 207 l 504 160 q 271 50 399 50 q 221 54 246 50 q 142 85 169 64 q 92 150 114 106 q 54 326 54 228 q 76 497 54 397 q 172 691 104 618 q 338 778 239 764 z "},"":{"ha":679,"x_min":54,"x_max":622,"o":"m 299 771 q 386 776 324 776 l 404 776 q 521 756 486 775 q 569 713 550 740 q 589 665 589 686 q 581 646 589 649 q 535 640 572 643 q 520 640 529 640 q 508 639 511 639 q 476 647 486 639 q 450 682 467 654 q 385 729 422 729 q 294 678 346 729 q 215 539 243 626 q 186 357 186 451 q 232 153 186 236 q 288 90 254 114 q 351 65 321 65 l 360 65 q 472 146 429 75 q 506 196 497 188 q 538 207 515 204 q 567 210 557 210 q 622 186 622 210 q 582 107 622 154 q 501 43 542 60 q 435 25 474 32 q 394 11 404 19 q 363 -33 383 3 l 335 -81 l 369 -89 q 437 -123 411 -99 q 463 -172 463 -147 q 456 -197 463 -186 q 374 -249 438 -225 q 254 -275 310 -274 q 190 -262 190 -275 q 229 -236 190 -253 q 314 -198 296 -208 q 332 -172 332 -187 q 317 -143 332 -157 q 276 -124 301 -129 q 210 -82 210 -107 q 236 -25 210 -64 q 264 19 264 15 q 225 36 264 24 q 122 110 167 54 q 63 240 78 167 q 54 363 54 282 q 65 503 54 456 q 154 678 92 607 q 299 771 217 750 z "},"":{"ha":710,"x_min":56,"x_max":657,"o":"m 193 1043 q 188 1085 182 1072 q 242 1097 193 1097 q 294 1090 283 1097 q 317 1049 306 1082 q 360 983 325 1022 q 424 925 394 943 q 446 901 446 911 q 421 886 446 892 q 392 882 406 882 q 276 929 335 882 q 193 1043 217 976 m 428 697 q 379 717 401 717 q 276 654 328 717 q 208 510 225 592 q 201 467 201 478 q 219 445 201 449 q 311 440 236 442 q 322 439 318 439 q 333 439 326 439 q 346 439 340 439 q 433 438 382 438 q 506 447 493 438 q 519 489 519 456 q 493 610 519 550 q 428 697 467 671 m 265 757 q 350 769 303 769 q 369 769 356 769 q 392 768 383 768 q 471 762 451 765 q 519 742 490 758 q 640 578 604 694 q 657 488 657 524 q 636 425 657 447 q 571 396 615 404 q 424 388 526 388 l 363 388 l 193 389 l 193 349 q 226 204 193 267 q 298 119 249 161 q 375 78 347 78 q 447 115 403 78 q 522 200 492 151 q 593 240 546 240 q 625 238 614 240 q 657 217 657 233 q 644 181 657 203 q 524 61 607 107 q 467 40 488 43 q 375 36 447 36 q 280 40 299 38 q 233 57 261 42 q 101 182 147 101 q 56 369 56 263 q 60 436 56 400 q 129 644 75 560 q 265 757 183 728 z "},"":{"ha":708,"x_min":56,"x_max":657,"o":"m 347 1067 q 400 1096 347 1096 q 410 1095 403 1096 q 422 1094 418 1094 q 464 1089 457 1093 q 471 1064 471 1085 q 433 963 471 1022 q 354 883 396 904 q 279 872 338 872 q 235 881 235 872 q 276 932 235 893 q 347 1067 347 1003 m 426 704 q 379 724 400 724 q 305 689 346 722 q 240 608 264 656 q 213 536 225 579 q 200 471 200 493 l 200 447 l 343 446 l 403 446 q 503 451 493 446 q 519 497 519 458 q 492 618 519 558 q 426 704 465 678 m 274 767 q 368 776 306 776 l 388 776 q 463 771 442 775 q 515 751 483 767 q 614 650 575 721 q 654 500 653 579 q 612 415 654 433 q 415 396 569 396 l 360 396 l 190 397 l 193 342 q 268 156 201 231 q 379 88 329 88 q 385 88 382 88 q 390 89 389 89 q 453 127 415 93 q 515 200 490 161 q 569 244 539 239 q 597 247 586 247 q 657 225 657 247 q 632 171 657 210 q 581 107 607 132 q 386 42 507 42 l 365 42 q 238 64 281 43 q 102 187 149 106 q 56 378 56 268 q 63 464 56 415 q 90 576 72 533 q 167 697 117 644 q 274 767 217 749 z "},"":{"ha":708,"x_min":54,"x_max":657,"o":"m 278 1083 q 350 1097 296 1097 l 407 1097 l 438 1063 q 513 965 472 1024 q 553 897 553 907 q 494 882 553 882 q 471 883 478 882 q 439 897 450 886 q 400 946 428 907 q 350 1004 360 1004 q 303 942 344 1004 q 265 890 278 901 q 235 875 253 878 q 210 874 228 874 q 149 886 149 874 q 206 983 149 896 q 278 1083 263 1069 m 426 704 q 378 724 400 724 q 303 689 344 722 q 239 608 263 656 q 199 472 199 528 l 199 447 l 342 446 l 401 446 q 501 451 492 446 q 518 497 518 458 q 492 618 518 558 q 426 704 465 678 m 264 764 q 353 778 306 778 q 370 777 358 778 q 389 776 382 776 q 514 753 475 774 q 646 571 613 701 q 657 497 657 531 q 638 438 657 458 q 575 404 618 413 q 424 396 532 396 l 361 396 l 192 397 l 192 357 q 225 211 192 274 q 297 127 247 168 q 374 86 346 86 q 445 122 401 86 q 519 207 489 158 q 568 244 539 239 q 596 247 585 247 q 656 225 656 247 q 631 169 656 208 q 578 106 606 131 q 493 53 538 68 q 375 39 449 39 q 186 93 263 39 q 126 164 168 106 q 74 249 85 222 q 54 381 54 296 q 58 440 54 411 q 127 650 74 567 q 264 764 181 733 z "},"":{"ha":708,"x_min":56,"x_max":656,"o":"m 204 1035 q 249 1043 217 1043 q 300 1035 286 1043 q 315 978 315 1026 q 306 926 315 935 q 253 918 297 918 q 199 926 208 918 q 190 978 190 935 q 204 1035 190 1028 m 447 988 q 457 1025 447 1015 q 508 1035 467 1035 q 564 1024 556 1035 q 575 971 572 1015 l 575 953 q 571 932 575 936 q 549 925 567 928 q 515 921 532 921 q 454 947 463 921 q 447 988 447 968 m 425 713 q 372 731 399 731 q 253 640 307 731 q 199 479 199 549 l 199 456 l 342 453 l 388 453 q 501 460 488 453 q 517 504 517 465 q 490 626 517 565 q 425 713 464 686 m 272 772 q 369 785 317 785 q 540 744 481 785 q 617 653 586 714 q 654 522 647 593 q 656 490 656 508 q 639 446 656 467 q 574 411 617 419 q 411 403 531 403 l 363 403 l 189 406 l 192 349 q 269 161 200 238 q 375 97 326 97 q 401 103 385 97 q 515 208 464 129 q 541 242 531 233 q 568 254 551 251 q 592 256 575 256 q 654 238 647 256 q 656 233 654 236 q 631 178 656 215 q 579 115 607 140 q 378 43 499 43 q 211 85 290 43 q 97 207 138 125 q 56 393 56 289 q 79 551 56 468 q 154 693 103 635 q 272 772 206 751 z "},"":{"ha":374,"x_min":61,"x_max":315,"o":"m 76 1090 q 96 1092 82 1092 q 176 1076 151 1092 q 194 1049 194 1067 q 272 922 194 993 q 315 874 315 882 q 282 865 315 865 q 206 879 233 865 q 109 966 157 901 q 61 1068 61 1031 q 76 1090 61 1086 m 163 751 q 192 761 172 761 q 224 760 210 761 q 279 750 272 756 q 282 692 282 744 q 279 592 282 667 q 269 238 271 338 l 267 36 l 210 36 q 143 51 154 36 q 135 147 135 64 q 136 260 135 213 q 163 751 147 732 z "},"":{"ha":347,"x_min":60,"x_max":288,"o":"m 200 1107 q 208 1108 203 1107 q 218 1108 214 1108 q 283 1100 267 1108 q 288 1085 288 1097 q 257 975 288 1039 q 203 899 235 928 q 167 876 181 881 q 118 872 154 872 q 60 881 60 872 q 88 919 60 892 q 154 1054 144 976 q 167 1094 158 1085 q 200 1107 175 1103 m 97 776 q 140 785 103 785 l 157 785 l 208 782 l 213 533 q 224 174 217 326 q 226 94 226 138 q 218 54 226 58 q 169 47 207 47 q 121 54 131 47 q 88 406 100 67 q 83 600 83 517 q 97 776 83 761 z "},"":{"ha":558,"x_min":61,"x_max":500,"o":"m 217 1104 q 264 1110 232 1110 q 333 1100 310 1110 q 430 1001 360 1089 q 500 892 500 914 q 433 872 500 872 q 404 875 413 872 q 371 892 385 879 q 331 943 357 904 q 279 1007 285 1007 q 236 965 268 1007 q 174 890 190 903 q 115 878 157 878 q 61 888 61 878 q 129 1001 61 907 q 217 1104 197 1096 m 218 751 q 257 758 222 758 l 282 758 l 342 756 l 349 726 q 353 496 353 708 l 353 364 l 350 31 l 317 25 q 283 22 300 22 q 250 25 267 22 l 218 31 l 215 386 l 215 535 q 218 751 215 743 z "},"":{"ha":485,"x_min":61,"x_max":428,"o":"m 61 982 q 69 1024 61 1015 q 121 1032 78 1032 q 181 1024 168 1032 q 199 969 194 1015 q 201 940 201 944 q 181 915 201 922 q 142 910 165 910 q 71 929 86 910 q 61 982 61 940 m 299 1013 q 361 1026 313 1026 q 411 1015 403 1026 q 425 961 419 1003 q 428 932 428 936 q 407 908 428 915 q 367 903 396 903 q 300 915 313 903 q 289 961 294 921 q 288 971 289 965 q 288 979 288 976 q 299 1013 288 1001 m 186 753 q 246 768 193 768 q 311 761 301 768 q 321 705 318 757 q 326 465 324 653 q 336 103 329 315 l 339 26 l 307 18 q 267 13 282 13 q 240 15 257 13 l 206 22 l 200 97 q 183 669 183 339 q 186 753 183 744 z "},"":{"ha":757,"x_min":57,"x_max":706,"o":"m 406 560 q 335 585 364 579 q 321 586 329 586 q 274 560 301 586 q 189 346 189 483 q 225 185 189 264 q 286 108 247 139 q 361 78 325 78 q 389 85 375 78 q 499 205 447 115 q 560 379 551 294 l 564 428 l 507 483 q 406 560 449 538 m 196 1053 q 251 1065 207 1065 q 311 1054 289 1065 q 368 1007 331 1044 q 411 971 401 971 q 456 990 422 971 q 528 1008 490 1008 l 544 1008 q 600 996 600 1006 q 556 957 600 985 q 485 908 490 917 q 483 901 483 906 q 521 849 483 893 q 629 683 581 776 q 696 514 678 590 q 706 429 706 475 q 631 183 706 299 q 522 67 576 101 q 382 28 467 32 l 360 28 q 171 81 256 28 q 58 319 67 146 q 58 333 58 325 q 57 346 57 342 q 140 571 57 488 q 209 619 176 607 q 310 633 242 631 q 329 634 317 633 q 347 635 342 635 q 450 617 388 635 q 514 600 503 600 l 515 600 q 517 603 517 601 q 452 732 517 626 q 374 838 388 838 q 325 818 361 838 q 243 800 289 800 q 206 804 225 800 q 188 815 188 810 q 250 863 188 822 q 313 906 313 903 q 250 975 313 910 q 193 1046 193 1033 q 196 1053 193 1050 z "},"":{"ha":681,"x_min":54,"x_max":631,"o":"m 117 1021 q 219 1042 153 1042 q 304 1033 274 1042 q 383 993 335 1024 l 422 968 l 444 994 q 507 1024 465 1021 q 517 1024 511 1024 q 526 1025 524 1025 q 564 1015 551 1025 q 574 1003 574 1008 q 567 986 575 999 q 519 931 542 947 q 461 911 496 915 q 426 908 436 908 q 283 956 353 908 q 222 986 235 986 q 189 953 210 986 q 143 914 169 917 q 118 913 135 913 q 56 928 64 913 l 56 931 q 54 933 54 932 q 74 978 54 950 q 117 1021 94 1007 m 85 831 q 129 836 93 836 l 143 836 l 189 835 l 192 786 q 200 736 194 736 l 247 753 q 374 768 285 767 q 450 765 431 768 q 497 747 469 761 q 605 607 579 704 q 631 247 631 510 l 631 50 l 600 42 q 564 38 583 38 q 540 40 554 38 l 510 47 l 504 300 q 498 522 501 475 q 485 603 494 569 q 433 695 465 661 q 364 729 400 729 q 290 702 338 729 q 221 647 243 675 l 190 611 l 200 371 q 218 28 211 93 q 222 -53 222 -25 q 219 -82 222 -79 q 158 -92 213 -89 l 106 -94 l 99 -71 q 74 219 86 -24 q 63 635 63 463 q 67 751 63 718 q 85 831 75 824 z "},"":{"ha":776,"x_min":57,"x_max":725,"o":"m 213 1081 q 257 1088 231 1088 q 294 1083 278 1088 q 344 1018 313 1079 q 426 910 383 951 q 472 856 472 867 q 435 846 472 846 q 353 861 383 846 q 273 933 315 881 q 207 1043 231 986 q 199 1068 199 1061 q 213 1081 199 1075 m 474 708 q 404 717 457 717 q 329 708 350 717 q 279 665 307 699 q 233 592 251 632 q 188 386 188 496 q 219 224 188 297 q 311 113 251 151 q 397 78 361 78 q 435 86 417 78 q 582 308 547 139 q 594 442 594 364 q 586 533 594 503 q 539 638 572 585 q 474 708 506 690 m 268 757 q 368 765 293 765 q 550 747 507 765 q 626 692 585 733 q 686 610 667 651 q 725 436 725 531 q 724 397 725 410 q 469 35 700 89 q 408 28 439 28 q 287 46 350 28 q 186 92 224 64 q 57 356 65 183 l 57 385 q 110 611 57 510 q 178 707 143 675 q 268 757 213 739 z "},"":{"ha":776,"x_min":56,"x_max":725,"o":"m 386 1057 q 401 1089 390 1082 q 443 1096 413 1096 q 503 1083 492 1096 q 510 1061 510 1076 q 474 966 510 1024 q 397 888 438 908 q 332 876 375 876 q 283 888 283 876 q 314 931 283 900 q 386 1057 372 993 m 472 700 q 403 710 457 710 q 321 697 339 710 q 226 569 265 663 q 188 376 188 476 q 233 190 188 268 q 363 78 279 113 q 400 69 383 69 q 471 100 431 69 q 563 233 529 143 q 596 419 596 322 q 564 582 596 514 q 472 700 525 668 m 274 750 q 369 757 296 757 q 550 740 513 757 q 653 651 604 718 q 718 511 701 585 q 725 438 725 476 q 672 183 725 296 q 563 64 635 107 q 400 21 490 21 q 324 29 364 21 q 181 91 236 47 q 88 213 125 135 q 63 276 68 254 q 56 356 57 299 l 56 381 q 114 613 56 503 q 182 703 146 672 q 274 750 218 735 z "},"":{"ha":778,"x_min":54,"x_max":726,"o":"m 301 1044 l 342 1088 l 390 1088 q 453 1081 439 1088 q 531 985 467 1074 q 596 883 596 896 q 549 871 596 872 q 536 870 544 871 q 525 869 528 869 q 485 881 499 869 q 436 940 472 892 q 389 990 399 990 q 332 928 379 990 l 285 865 l 236 863 l 218 863 q 179 878 179 863 q 217 942 179 892 q 301 1044 253 993 m 482 701 q 397 718 458 718 q 321 704 343 718 q 233 590 272 676 q 188 388 188 492 q 246 178 188 264 q 320 106 275 135 q 401 76 365 76 q 414 78 410 76 q 478 117 440 85 q 536 183 515 149 q 596 438 596 285 q 579 557 596 507 q 538 639 565 597 q 482 701 510 681 m 272 758 q 368 767 301 767 q 558 744 514 767 q 658 653 613 718 q 719 519 704 589 q 726 444 726 482 q 674 192 726 304 q 563 71 636 114 q 400 28 490 28 q 315 38 356 28 q 178 100 232 57 q 89 218 124 143 q 63 282 68 260 q 56 357 57 304 q 55 372 56 361 q 54 388 54 383 q 101 590 54 490 q 272 758 163 726 z "},"":{"ha":778,"x_min":56,"x_max":726,"o":"m 540 993 l 554 1025 l 607 1025 q 653 1021 640 1025 q 665 1004 665 1017 q 661 985 665 997 q 606 906 650 936 q 501 874 561 875 l 493 874 q 339 928 410 874 q 285 963 292 963 q 233 900 267 963 l 214 865 l 163 863 l 144 863 q 106 872 110 863 q 104 881 104 875 q 138 951 104 907 q 201 1007 171 994 q 292 1018 229 1018 q 369 1008 344 1018 q 443 960 394 999 q 483 929 475 933 l 485 928 q 488 928 486 928 q 540 993 511 928 m 475 715 q 406 725 460 725 q 322 713 342 725 q 235 600 272 683 q 188 393 188 500 q 228 218 188 296 q 340 104 268 140 q 403 83 381 83 q 468 113 426 83 q 562 243 526 153 q 597 433 597 333 q 565 599 597 531 q 475 715 525 685 m 275 765 q 371 772 297 772 q 551 756 514 772 q 656 665 607 733 q 721 519 706 596 q 726 449 726 492 q 674 199 726 308 q 563 78 635 121 q 401 36 492 36 q 250 65 328 36 q 144 140 190 88 q 72 267 97 193 q 56 382 56 317 q 110 619 56 511 q 275 765 169 736 z "},"":{"ha":778,"x_min":56,"x_max":726,"o":"m 243 1035 q 281 1040 253 1040 q 339 1031 328 1040 q 353 979 351 1021 l 356 936 l 326 929 q 297 926 318 926 q 268 929 276 926 l 238 936 l 236 982 l 236 1001 q 243 1035 236 1031 m 471 1036 q 515 1042 488 1042 q 576 1032 567 1042 q 588 979 585 1021 l 589 936 l 563 931 q 529 926 546 926 q 468 953 476 926 q 461 999 461 974 q 471 1036 461 1031 m 458 722 q 417 724 447 724 q 329 715 346 724 q 255 636 293 697 q 199 507 217 575 q 188 400 188 467 q 201 278 188 331 q 285 141 228 197 q 399 85 343 85 q 425 89 413 85 q 490 135 451 97 q 546 206 529 174 q 594 449 594 306 q 579 565 594 524 q 544 640 563 614 q 500 692 529 665 q 458 722 471 719 m 260 761 q 347 774 297 774 q 414 772 386 774 q 547 757 510 769 q 626 703 585 744 q 726 438 726 603 q 715 329 726 389 q 644 150 693 217 q 511 54 594 83 q 401 38 461 38 q 229 75 311 38 q 88 226 142 117 q 63 289 68 267 q 56 365 58 311 l 56 390 q 97 590 56 500 q 167 701 129 661 q 260 761 204 742 z "},"":{"ha":704,"x_min":57,"x_max":650,"o":"m 282 810 q 326 815 299 815 q 388 806 378 815 q 401 732 401 788 q 397 703 401 714 q 383 685 390 688 q 343 682 375 682 q 281 690 290 682 q 272 749 272 699 q 282 810 272 806 m 96 558 q 386 564 140 564 l 496 564 q 646 554 639 564 q 650 544 650 550 q 632 522 650 533 q 589 507 614 510 q 431 504 561 504 l 338 504 q 89 519 122 508 q 57 542 57 531 q 96 558 57 554 m 297 361 q 343 369 306 369 q 406 357 394 369 q 418 300 415 344 l 422 254 l 389 244 q 353 240 372 240 q 297 254 313 240 q 288 304 288 260 q 297 361 288 351 z "},"":{"ha":778,"x_min":56,"x_max":726,"o":"m 468 718 q 433 728 450 728 q 410 726 428 728 q 378 724 393 725 q 299 694 329 721 q 242 616 272 672 q 199 507 213 560 q 186 403 186 457 q 238 199 186 281 q 316 117 267 151 q 403 83 365 83 q 414 85 410 83 q 504 149 458 94 q 569 268 550 203 q 594 458 594 347 q 593 500 594 488 q 547 630 585 564 q 468 718 508 696 m 269 765 q 364 774 294 774 q 558 753 510 774 q 658 665 611 731 q 719 528 704 600 q 726 456 726 493 q 672 199 726 311 q 562 78 633 121 q 401 36 490 36 q 314 46 354 36 q 177 108 229 65 q 86 229 125 150 q 63 290 68 268 q 56 364 58 313 l 56 393 q 104 610 56 507 q 173 710 135 675 q 269 765 211 746 z "},"":{"ha":742,"x_min":54,"x_max":692,"o":"m 186 1104 q 228 1111 204 1111 q 292 1089 285 1111 q 348 976 313 1028 q 417 910 383 925 q 438 890 438 900 q 382 875 438 875 q 300 890 326 875 q 235 949 272 904 q 185 1029 197 994 q 169 1083 169 1071 q 186 1104 169 1097 m 64 753 q 101 758 68 758 l 124 758 l 181 756 l 186 697 q 189 611 189 664 q 186 483 189 569 q 185 394 185 450 q 224 176 185 246 q 335 81 261 113 q 375 68 364 68 q 401 74 386 68 q 476 111 433 83 q 524 151 519 139 q 535 167 529 167 q 546 307 539 167 q 560 592 553 447 q 571 746 567 738 q 614 753 575 753 q 676 744 661 753 q 690 722 688 738 q 692 647 692 707 q 681 392 692 594 q 671 121 671 189 l 671 97 l 672 -1 l 625 -1 q 568 8 585 -1 q 551 43 551 18 l 551 65 l 515 50 q 381 25 457 25 q 218 58 286 25 q 60 279 85 121 q 54 469 54 326 q 64 753 54 736 z "},"":{"ha":740,"x_min":54,"x_max":690,"o":"m 381 1094 q 421 1101 386 1101 l 444 1101 q 500 1090 494 1099 q 501 1081 501 1088 q 473 1009 501 1057 q 408 926 444 961 q 362 887 376 896 q 328 876 347 878 q 310 876 321 876 q 294 875 299 875 q 246 885 246 875 q 297 954 246 893 q 361 1049 350 1018 q 381 1094 375 1086 m 64 761 q 108 767 69 767 l 124 767 l 179 764 l 185 706 q 188 589 188 667 q 186 490 188 524 q 185 396 185 454 q 222 185 185 250 q 335 89 260 122 q 375 76 364 76 q 400 82 385 76 q 476 119 432 92 q 524 160 519 147 q 533 175 529 175 q 545 316 539 175 q 559 602 551 457 q 574 754 567 747 q 615 761 581 761 q 676 751 657 761 q 688 730 686 746 q 690 644 690 714 q 682 436 690 556 q 672 167 675 335 l 671 7 l 624 7 q 566 16 582 7 q 550 50 550 25 l 550 72 l 514 57 q 382 33 461 33 q 218 67 289 33 q 58 292 82 131 q 54 460 54 325 q 64 761 54 747 z "},"":{"ha":736,"x_min":54,"x_max":686,"o":"m 313 1114 q 343 1117 324 1117 q 358 1116 347 1117 q 375 1115 369 1115 q 421 1107 410 1113 q 457 1074 432 1101 q 538 961 494 1032 q 575 890 575 901 q 568 879 575 883 q 517 869 557 869 q 464 878 478 869 q 406 953 450 885 q 354 1017 363 1017 q 301 951 346 1017 l 257 889 l 207 886 q 193 885 201 886 q 182 885 185 885 q 150 899 150 885 q 168 943 150 910 q 244 1056 200 1006 q 313 1114 288 1107 m 64 776 q 108 782 69 782 l 124 782 l 181 779 l 185 721 q 188 606 188 682 q 186 507 188 540 q 185 411 185 471 q 222 200 185 265 q 335 104 260 138 q 375 92 361 92 q 401 97 386 92 q 468 129 428 106 q 514 164 508 153 q 531 185 518 172 q 547 438 542 199 q 557 725 553 681 l 563 772 l 607 774 l 619 774 q 668 767 654 774 l 686 758 l 679 585 q 672 218 672 428 l 672 22 l 624 22 q 567 32 583 22 q 550 65 550 42 l 550 86 l 499 68 q 378 44 428 44 q 290 57 336 44 q 130 143 186 85 q 58 301 74 201 q 54 469 54 331 q 64 776 54 760 z "},"":{"ha":731,"x_min":54,"x_max":681,"o":"m 179 1010 q 197 1024 186 1021 q 236 1026 207 1026 q 292 1017 278 1026 q 306 981 306 1008 l 306 968 q 299 933 303 939 q 275 922 296 928 q 246 919 267 919 q 214 922 224 919 q 185 933 192 926 q 174 960 178 939 q 171 981 171 976 q 179 1010 171 997 m 447 1022 q 475 1025 453 1025 q 550 1011 540 1025 q 557 967 557 1001 q 553 938 557 946 q 536 926 549 931 q 490 918 514 918 q 444 926 467 918 q 428 938 432 931 q 425 967 425 944 q 447 1022 425 1014 m 64 764 q 106 769 69 769 l 119 769 l 172 767 l 174 728 q 182 678 176 689 q 188 467 188 667 q 190 289 188 322 q 204 226 192 256 q 319 101 239 143 q 375 82 360 82 q 399 86 383 82 q 476 126 436 99 q 524 169 517 153 q 536 311 531 192 q 561 756 551 739 q 608 763 564 763 q 667 756 654 763 q 678 734 676 750 q 681 651 681 718 q 672 444 681 569 q 663 172 665 338 l 661 13 l 618 13 q 549 56 549 13 l 549 76 l 510 63 q 374 36 443 36 q 307 43 344 36 q 136 127 197 67 q 58 290 75 188 q 54 458 54 319 q 64 764 54 747 z "},"":{"ha":733,"x_min":54,"x_max":683,"o":"m 403 1089 q 456 1097 415 1097 q 511 1088 501 1097 q 519 1063 519 1079 q 499 992 519 1038 q 451 925 482 957 q 389 876 421 893 q 317 864 367 864 q 265 875 274 864 q 282 901 257 886 q 356 977 322 926 q 389 1063 389 1028 q 403 1089 389 1082 m 553 763 q 576 779 558 779 q 611 776 581 779 q 672 763 660 772 q 683 624 683 756 q 676 421 683 508 q 653 97 654 114 q 620 -196 638 -119 q 558 -315 603 -272 q 421 -372 513 -358 q 381 -375 393 -375 q 296 -354 321 -375 q 290 -346 290 -350 q 326 -333 290 -333 q 384 -320 350 -333 q 433 -293 418 -307 q 510 15 500 -232 l 514 129 l 476 93 q 418 48 439 57 q 354 38 397 39 l 344 38 q 263 51 294 38 q 194 99 232 64 q 65 382 94 194 q 54 614 54 444 q 61 747 54 733 q 118 763 69 763 l 135 763 q 172 759 161 763 q 190 738 182 756 q 198 686 197 719 q 200 586 199 653 q 200 563 200 571 q 213 338 203 415 q 250 201 224 261 q 292 134 265 167 q 331 101 318 101 q 398 181 353 101 q 474 350 443 260 q 517 518 496 419 q 542 679 538 617 q 553 763 547 750 z "},"":{"ha":733,"x_min":53,"x_max":682,"o":"m 432 646 q 375 672 393 672 q 339 663 358 672 q 245 571 285 639 q 194 418 206 503 q 189 360 189 383 q 201 289 189 339 q 322 93 238 149 q 376 72 351 72 q 465 128 414 72 q 551 365 551 222 q 551 381 551 371 q 550 397 550 392 q 513 544 544 478 q 432 646 482 611 m 86 1099 q 125 1111 93 1111 l 147 1111 l 199 1108 l 200 896 q 204 681 200 685 q 243 694 208 676 q 286 710 265 707 q 374 713 307 713 q 463 709 442 713 q 510 692 483 706 q 636 560 590 650 q 682 367 682 471 q 628 160 682 254 q 572 95 610 129 q 504 47 535 61 q 375 21 443 21 q 226 56 292 21 q 182 76 183 78 q 178 -115 181 75 q 174 -273 176 -240 q 164 -308 172 -306 q 113 -314 153 -314 q 57 -307 64 -314 q 53 -197 53 -303 q 56 -11 53 -158 q 63 316 57 65 q 71 681 68 567 q 86 1099 81 1088 z "},"":{"ha":733,"x_min":54,"x_max":683,"o":"m 450 1026 q 499 1035 469 1035 q 544 1025 531 1035 q 562 992 554 1018 q 569 946 569 965 q 565 929 569 933 q 511 922 558 922 q 450 931 458 922 q 436 979 442 939 q 435 1004 435 990 q 450 1026 435 1019 m 203 1017 q 261 1028 211 1028 q 315 1018 306 1028 q 325 975 325 1008 q 313 926 325 935 q 253 915 299 915 q 199 925 208 915 q 192 960 192 932 q 203 1017 192 1003 m 551 754 q 575 771 557 771 q 610 768 579 771 q 672 754 660 764 q 683 628 683 746 q 675 413 683 522 q 651 89 653 106 q 619 -204 636 -128 q 557 -324 601 -281 q 421 -381 511 -368 q 385 -383 396 -383 q 293 -361 308 -383 q 292 -356 292 -360 q 326 -342 292 -342 q 383 -328 349 -342 q 432 -300 417 -315 q 508 7 499 -237 l 514 121 l 479 88 q 419 42 444 53 q 346 29 394 31 q 256 45 292 29 q 179 104 219 61 q 75 308 110 178 q 56 542 58 368 q 54 638 54 579 q 60 733 54 721 q 75 752 67 749 q 118 756 83 756 l 131 756 q 165 753 154 756 q 184 743 175 750 q 195 715 193 736 q 199 664 197 693 q 200 579 200 635 q 200 558 200 565 q 208 356 201 418 q 236 231 215 293 q 281 139 253 183 q 325 94 310 94 q 398 176 350 94 q 476 353 446 258 q 517 513 497 418 q 540 667 536 607 q 551 754 546 742 z "},"":{"ha":238,"x_min":53,"x_max":188,"o":"m 64 764 q 124 778 78 778 q 176 765 167 778 q 188 401 188 750 l 188 51 l 160 44 q 128 42 151 42 q 93 44 104 42 l 56 51 l 53 400 l 53 558 q 64 764 53 749 z "},"":{"ha":689,"x_min":61,"x_max":631,"o":"m 194 1018 q 243 1026 208 1026 q 293 1017 279 1026 q 307 978 304 1010 q 311 807 310 946 l 314 608 l 346 632 q 414 654 378 654 q 471 646 443 654 q 499 629 499 638 q 406 553 499 624 l 313 482 l 313 94 l 464 93 q 631 72 631 89 q 622 58 631 67 q 374 32 596 32 q 200 49 233 32 l 178 58 l 176 218 l 176 378 l 146 379 q 68 392 85 381 q 61 400 61 396 q 117 454 61 408 l 181 508 l 181 758 q 183 975 181 938 q 194 1018 185 1013 z "},"":{"ha":503,"x_min":61,"x_max":444,"o":"m 176 1082 q 236 1089 186 1089 q 278 1086 269 1089 q 292 1071 288 1083 q 304 851 299 1053 l 310 650 l 376 650 q 444 638 444 650 q 381 581 444 624 l 314 535 l 321 283 l 325 33 l 288 29 q 261 28 279 28 q 222 31 242 28 l 194 36 l 190 129 q 185 331 189 157 l 183 439 l 150 433 q 126 432 142 432 q 82 438 103 432 q 61 451 61 443 q 117 500 61 464 l 176 542 l 171 808 q 168 999 168 986 q 176 1082 168 1078 z "},"":{"ha":1078,"x_min":54,"x_max":1019,"o":"m 629 75 q 635 520 632 224 q 640 965 639 817 l 610 964 q 404 900 507 963 q 254 749 301 838 q 193 479 196 640 l 193 465 q 236 272 193 353 q 376 134 279 190 q 574 75 474 78 l 629 75 m 603 1011 q 742 1015 663 1015 q 999 999 965 1015 q 1019 981 1019 989 q 871 957 1019 957 l 779 957 l 779 688 l 882 683 q 1010 663 1010 678 q 981 643 1010 650 q 878 626 953 636 q 783 608 794 617 q 772 499 778 603 q 767 285 767 394 q 769 165 767 232 l 774 86 l 876 86 q 981 83 957 86 q 1004 68 1004 79 q 963 42 1004 50 q 806 32 922 35 q 638 29 672 29 q 435 42 501 29 q 285 97 368 56 q 113 247 172 151 q 54 464 54 342 q 125 744 54 597 q 165 816 149 793 q 215 871 182 839 q 603 1011 350 993 z "},"":{"ha":1143,"x_min":56,"x_max":1088,"o":"m 419 694 q 361 717 400 706 q 347 718 357 718 q 253 640 306 718 q 178 407 178 528 q 219 247 178 319 q 336 133 260 175 q 418 106 376 111 q 443 103 440 103 q 485 129 458 103 q 532 190 515 158 q 544 232 544 215 q 539 276 544 235 q 526 394 526 360 q 532 472 526 408 q 536 535 536 517 q 524 583 536 560 q 476 650 506 618 q 419 694 447 682 m 958 538 q 919 672 958 618 q 806 731 879 725 q 792 731 800 731 q 782 732 785 732 q 735 707 758 732 q 690 636 711 683 q 674 588 674 600 q 679 565 674 582 q 697 485 688 532 l 707 432 l 765 426 q 875 417 853 419 l 928 413 l 943 446 q 958 538 958 478 m 806 790 q 868 799 836 799 q 999 755 940 799 q 1079 640 1057 711 q 1088 575 1088 611 q 1046 435 1088 485 q 818 351 975 351 q 801 352 813 351 q 785 353 790 353 l 701 357 l 697 336 q 692 315 696 333 q 686 289 689 297 q 685 274 685 285 q 751 150 685 213 q 881 101 801 101 q 943 128 915 101 q 997 161 964 146 q 1050 176 1031 176 q 1063 172 1058 176 q 1067 163 1067 168 q 1024 108 1067 142 q 928 57 981 75 q 799 43 885 43 q 692 54 725 43 q 624 101 660 65 l 596 129 l 557 104 q 368 44 472 46 l 347 44 q 246 69 297 44 q 131 157 179 101 q 64 279 82 213 q 56 365 56 310 q 68 481 56 436 q 178 674 104 600 q 261 750 240 733 q 306 775 282 767 q 407 786 332 786 q 475 779 463 786 q 525 754 488 772 q 586 711 558 739 l 611 686 l 643 713 q 806 790 701 760 z "},"":{"ha":600,"x_min":57,"x_max":549,"o":"m 153 1308 q 190 1315 178 1315 q 224 1301 208 1315 q 267 1247 239 1288 q 326 1169 313 1181 q 338 1161 335 1161 q 393 1229 346 1161 q 435 1281 421 1271 q 489 1303 449 1292 q 533 1313 525 1313 q 549 1303 549 1313 q 519 1246 549 1290 q 299 1068 407 1081 q 275 1067 289 1067 q 225 1093 253 1067 q 150 1188 201 1114 q 99 1275 99 1263 q 153 1308 99 1292 m 194 1006 q 272 1018 226 1018 q 321 1017 301 1018 q 438 1003 413 1011 q 515 956 482 990 q 549 889 549 921 q 542 864 549 869 q 503 857 535 858 l 486 857 q 418 896 418 857 q 393 945 418 918 q 347 972 368 972 q 238 917 276 972 q 200 760 200 861 q 203 705 200 718 q 222 678 207 692 q 253 658 238 663 q 331 651 269 654 q 450 629 421 646 q 528 515 507 599 q 539 328 539 468 q 528 151 539 188 q 249 15 486 15 q 101 49 142 15 q 57 172 57 83 q 65 233 57 218 q 101 249 74 249 q 125 247 117 249 q 178 236 172 242 q 188 175 185 229 q 203 93 190 121 q 217 68 211 74 q 240 63 224 63 q 331 85 290 63 q 388 146 371 108 q 408 326 408 193 q 382 563 408 483 q 357 601 371 594 q 269 610 343 607 q 68 711 103 618 q 60 771 60 733 q 93 922 60 860 q 194 1006 121 978 z "},"":{"ha":538,"x_min":58,"x_max":482,"o":"m 106 1082 q 157 1096 140 1096 q 225 1026 168 1096 q 289 957 282 957 q 318 994 299 957 q 357 1051 333 1019 q 406 1083 369 1068 q 465 1097 442 1097 q 482 1089 482 1097 q 442 1021 482 1076 q 374 939 403 965 q 235 872 306 875 q 200 879 213 872 q 156 915 188 886 q 81 1001 113 956 q 58 1047 58 1032 q 106 1082 58 1064 m 268 758 q 389 769 308 769 q 442 764 435 769 q 447 757 447 760 q 393 732 447 742 q 190 567 190 686 q 194 536 190 553 q 225 478 201 501 q 319 407 249 454 q 453 305 424 339 q 482 222 482 271 q 408 85 482 138 q 239 28 335 33 q 226 27 235 28 q 213 26 217 26 q 132 35 167 26 q 97 56 97 44 q 168 71 97 67 q 248 83 224 74 q 306 124 272 93 q 351 224 351 165 q 324 291 351 261 q 213 376 297 321 q 95 468 124 435 q 64 551 67 501 q 63 562 64 556 q 63 571 63 568 q 76 628 63 596 q 268 758 122 721 z "},"":{"ha":697,"x_min":61,"x_max":639,"o":"m 224 1258 q 265 1267 249 1267 q 294 1251 286 1267 q 301 1194 301 1235 q 297 1163 301 1169 q 268 1147 293 1157 q 214 1138 242 1138 l 207 1138 l 181 1140 l 178 1188 l 178 1207 q 186 1242 178 1233 q 224 1258 194 1250 m 449 1257 q 508 1267 474 1267 q 529 1263 528 1267 q 535 1210 532 1258 q 536 1181 536 1197 q 532 1163 536 1168 q 511 1150 528 1157 q 447 1136 486 1139 q 409 1144 417 1136 q 401 1185 401 1153 q 449 1257 401 1240 m 522 1026 q 578 1033 536 1033 q 628 1026 617 1033 q 639 1013 639 1015 q 588 806 639 994 q 467 421 513 525 q 451 358 454 392 q 443 203 447 325 l 438 28 l 393 25 l 383 25 q 329 32 346 25 l 307 39 q 312 210 308 96 q 318 381 315 324 l 299 406 q 171 693 269 444 q 61 1000 61 972 q 61 1003 61 1001 l 63 1006 q 117 1019 68 1019 q 178 1010 165 1019 q 317 685 207 983 q 371 550 367 550 q 397 617 375 550 q 448 788 419 685 q 496 979 476 892 q 522 1026 506 1021 z "},"":{"ha":699,"x_min":61,"x_max":640,"o":"m 371 1211 q 460 1349 401 1257 l 503 1343 q 575 1314 575 1335 q 530 1239 575 1304 q 464 1153 485 1174 q 435 1132 447 1136 q 396 1128 424 1128 l 389 1128 q 314 1147 344 1128 q 236 1225 283 1167 q 181 1311 181 1293 q 204 1324 181 1324 q 242 1321 226 1324 q 280 1310 268 1317 q 307 1286 292 1304 q 331 1259 315 1278 q 351 1235 347 1240 l 371 1211 m 151 1006 q 360 1010 193 1010 l 401 1010 q 635 986 606 1010 q 640 975 640 981 q 536 746 640 949 q 371 406 428 528 q 257 167 293 238 q 224 88 224 103 q 319 86 224 86 l 411 86 l 474 86 q 591 81 568 86 q 614 56 614 75 q 585 37 614 42 q 433 24 557 32 q 254 17 318 17 q 61 68 61 17 q 76 103 61 86 q 238 432 108 146 q 410 792 319 613 l 490 950 l 336 949 l 290 949 q 156 955 190 949 q 121 979 121 961 q 122 988 121 985 q 151 1006 126 1001 z "},"":{"ha":629,"x_min":61,"x_max":574,"o":"m 108 1088 q 146 1103 108 1103 q 224 1088 206 1103 q 245 1060 225 1086 q 286 1009 265 1033 q 313 985 307 985 q 368 1044 324 985 l 414 1104 l 461 1104 q 522 1096 508 1104 q 531 1085 531 1089 q 514 1054 531 1079 q 447 964 493 1022 q 385 893 400 906 q 329 879 371 879 q 251 897 276 879 q 172 990 225 915 q 108 1088 108 1076 m 226 771 q 418 776 331 776 q 564 761 549 776 q 574 744 574 751 q 563 711 574 740 q 526 631 554 686 q 469 527 497 575 q 406 417 442 479 q 364 343 371 354 q 274 190 315 254 q 225 106 225 115 q 242 103 225 103 q 285 106 251 103 q 467 117 422 117 q 526 110 513 117 q 540 88 540 101 q 519 57 540 67 q 373 42 506 50 q 157 33 240 33 q 110 36 124 33 q 61 69 61 44 q 113 168 61 81 q 241 391 149 229 q 360 599 333 553 q 411 699 411 689 q 363 708 411 708 q 269 706 353 708 q 176 703 192 703 q 102 708 122 703 q 76 729 82 714 q 74 740 74 738 q 104 760 74 754 q 226 771 135 767 z "},"":{"ha":699,"x_min":61,"x_max":640,"o":"m 464 1028 q 519 1032 485 1032 q 633 1018 615 1032 q 640 1008 640 1011 q 572 989 640 997 q 435 922 476 978 q 382 728 394 867 l 376 667 l 461 671 q 517 672 483 672 q 585 654 585 672 q 457 624 585 626 q 392 617 399 621 q 383 292 383 611 q 377 -41 383 38 q 346 -171 371 -119 q 206 -243 313 -240 l 199 -243 q 101 -223 132 -243 q 63 -156 69 -203 q 61 -137 61 -149 q 78 -119 61 -124 q 107 -117 89 -117 q 121 -117 111 -117 q 135 -118 131 -118 q 171 -125 163 -121 q 190 -150 179 -129 l 207 -181 l 218 -162 q 246 -54 246 -119 l 246 -31 q 250 203 246 53 q 253 386 253 325 q 250 517 253 467 l 243 610 l 181 622 q 119 646 119 636 q 179 660 119 658 l 239 663 l 243 688 q 251 761 244 693 q 319 947 264 886 q 464 1028 378 1013 z "},"":{"ha":544,"x_min":58,"x_max":490,"o":"m 197 1093 q 231 1104 210 1104 q 269 1101 236 1104 q 339 1086 324 1096 q 421 983 351 1078 q 490 881 490 889 q 443 869 490 869 q 403 874 422 869 q 340 921 374 882 q 288 983 304 963 l 268 1006 q 161 869 211 936 l 115 874 q 60 889 64 879 q 58 894 58 892 q 114 988 58 911 q 197 1093 183 1082 z "},"":{"ha":547,"x_min":58,"x_max":492,"o":"m 336 1074 l 369 1122 l 415 1117 q 492 1089 492 1110 q 456 1028 492 1079 q 386 939 419 978 q 333 889 356 903 q 281 875 310 875 q 261 876 268 875 q 183 903 214 881 q 108 992 153 926 q 58 1085 58 1067 q 86 1100 58 1100 l 94 1100 q 155 1088 139 1099 q 203 1032 171 1078 q 249 969 240 975 l 250 969 q 336 1074 267 969 z "},"":{"ha":564,"x_min":56,"x_max":511,"o":"m 64 1064 q 133 1074 74 1074 q 175 1068 168 1074 q 189 1032 183 1063 q 219 968 196 988 q 289 949 243 949 q 340 969 319 949 q 368 1024 361 990 q 386 1066 374 1058 q 443 1074 399 1074 q 497 1068 482 1074 q 511 1046 511 1063 q 503 1007 511 1032 q 468 948 492 969 q 399 913 444 926 q 296 900 357 900 q 100 942 157 900 q 69 984 82 956 q 56 1038 56 1013 q 64 1064 56 1056 z "},"":{"ha":250,"x_min":54,"x_max":200,"o":"m 69 1026 q 119 1032 76 1032 q 190 1024 182 1032 q 200 965 200 1014 l 200 917 l 168 908 q 128 903 143 903 q 61 918 79 903 q 54 953 54 925 q 69 1026 54 1017 z "},"":{"ha":439,"x_min":56,"x_max":388,"o":"m 221 940 q 244 965 236 940 q 253 1021 253 989 q 239 1076 253 1063 q 228 1083 232 1083 q 214 1072 224 1082 q 196 1004 196 1053 q 221 940 196 940 m 124 1135 q 175 1149 144 1149 q 217 1147 199 1149 q 318 1125 281 1143 q 388 1008 388 1089 q 332 897 388 939 q 238 878 304 878 q 156 889 192 878 q 97 925 124 899 q 64 978 71 951 q 60 994 63 983 q 57 1008 57 1006 l 56 1011 q 56 1015 56 1014 q 65 1061 56 1033 q 83 1101 74 1089 q 124 1135 97 1118 z "},"":{"ha":386,"x_min":56,"x_max":332,"o":"m 119 22 l 149 68 l 196 63 q 264 31 264 57 q 232 -35 264 19 q 196 -133 200 -92 l 193 -174 l 247 -179 q 319 -192 301 -185 q 331 -201 331 -197 q 324 -214 332 -206 q 228 -226 311 -226 q 111 -210 144 -226 q 70 -182 81 -194 q 56 -144 60 -169 l 56 -136 q 119 22 56 -76 z "},"":{"ha":650,"x_min":56,"x_max":597,"o":"m 483 1057 q 528 1065 504 1065 q 576 1056 556 1065 q 597 1032 597 1046 q 581 981 596 1013 q 547 931 565 949 q 436 893 511 893 q 253 956 332 893 q 217 979 221 979 q 188 940 208 979 q 165 908 174 915 q 133 897 156 900 q 107 896 125 896 q 78 899 86 896 q 60 906 64 901 q 56 922 56 911 l 56 931 q 78 986 57 956 q 128 1032 100 1017 q 219 1049 156 1049 q 296 1037 269 1049 q 386 974 322 1025 l 421 946 l 439 967 q 461 1018 456 986 q 483 1057 467 1051 z "},"":{"ha":529,"x_min":57,"x_max":476,"o":"m 169 1106 q 194 1107 175 1107 q 261 1099 247 1107 q 267 1083 267 1096 q 224 943 267 1040 q 175 844 185 854 q 107 829 163 829 q 57 844 57 829 q 78 911 57 867 q 124 1033 103 967 q 147 1091 139 1079 q 169 1106 154 1103 m 358 1103 q 407 1110 369 1110 q 465 1100 451 1110 q 476 1075 476 1092 q 474 1047 476 1072 q 452 940 469 1004 q 424 865 435 876 q 354 854 410 854 q 315 860 325 854 q 310 874 310 863 q 324 943 310 892 q 344 1057 344 1021 q 358 1103 344 1094 z "},"":{"ha":682,"x_min":54,"x_max":632,"o":"m 64 411 q 179 415 72 415 q 479 410 271 415 q 603 404 578 407 q 631 393 629 401 q 626 382 632 386 q 607 375 621 378 q 413 369 574 369 q 88 379 126 369 q 54 401 54 388 q 64 411 54 407 z "},"":{"ha":1368,"x_min":54,"x_max":1317,"o":"m 81 442 q 204 443 89 443 q 1136 435 707 443 q 1311 425 1301 429 q 1317 415 1317 421 q 1306 395 1317 406 q 1278 379 1294 385 q 1063 376 1271 376 q 465 381 804 376 q 101 389 125 385 q 54 425 54 397 q 81 442 54 440 z "},"":{"ha":351,"x_min":57,"x_max":296,"o":"m 121 1035 q 142 1038 124 1038 q 222 1024 197 1038 q 235 999 235 1017 q 211 883 235 982 q 189 767 189 789 q 195 747 189 751 q 231 740 201 743 q 296 713 296 732 q 294 707 296 708 q 231 697 289 697 q 104 713 139 697 q 67 740 78 725 q 57 779 57 754 q 58 803 57 794 q 89 940 64 850 q 121 1035 114 1031 z "},"":{"ha":329,"x_min":57,"x_max":274,"o":"m 61 1033 q 147 1042 65 1042 q 261 1032 242 1042 q 274 1008 274 1025 q 272 983 274 994 q 245 851 268 946 q 213 735 222 756 q 144 704 200 704 q 101 713 122 704 l 82 721 l 108 822 q 139 958 133 922 l 144 993 l 114 1001 q 75 1010 81 1010 q 62 1018 67 1010 q 61 1033 57 1026 z "},"":{"ha":313,"x_min":56,"x_max":261,"o":"m 106 214 q 154 221 115 221 q 219 210 207 221 q 250 163 233 201 q 261 103 261 133 q 192 -75 261 10 q 164 -99 175 -94 q 117 -103 153 -103 q 56 -86 56 -103 q 74 -53 56 -78 q 112 22 96 -22 q 128 97 128 67 q 111 168 128 131 q 99 204 99 197 q 106 214 99 210 z "},"":{"ha":569,"x_min":58,"x_max":514,"o":"m 382 1032 q 438 1042 396 1042 q 485 1033 472 1042 q 490 1019 490 1031 q 464 896 490 996 l 431 757 q 472 740 431 747 q 514 722 514 733 q 471 703 514 711 q 428 700 458 700 q 315 726 335 700 q 307 760 307 736 q 308 783 307 775 q 342 925 313 828 q 382 1032 371 1022 m 158 1024 q 207 1033 176 1033 q 251 1025 236 1033 q 264 1006 264 1019 q 219 863 264 982 q 181 753 181 754 q 214 740 181 749 q 246 721 246 732 q 215 703 246 708 q 189 701 208 701 q 116 708 156 701 q 67 722 76 714 q 58 746 58 728 q 99 893 58 778 q 136 993 125 968 q 158 1024 147 1018 z "},"":{"ha":596,"x_min":56,"x_max":542,"o":"m 65 1033 q 103 1040 76 1040 q 197 1032 132 1040 q 292 990 292 1019 q 258 872 292 983 q 214 735 224 760 q 163 706 203 706 q 128 710 147 706 q 89 743 89 718 q 99 782 89 758 q 133 892 108 806 q 158 986 158 978 q 142 994 158 994 q 97 1004 126 994 q 60 1021 67 1014 q 65 1033 56 1025 m 315 1024 q 315 1027 315 1024 q 321 1036 315 1031 q 354 1042 326 1042 q 451 1031 394 1042 q 522 1008 507 1021 q 542 963 542 994 q 517 856 542 939 q 471 724 493 774 q 454 695 461 700 q 426 690 447 690 q 370 698 401 690 q 339 711 339 706 q 374 822 339 718 q 414 961 411 943 q 417 982 417 981 q 394 994 417 994 q 345 1006 375 994 q 315 1024 315 1017 z "},"":{"ha":510,"x_min":56,"x_max":458,"o":"m 315 169 q 303 207 303 200 q 353 214 303 214 q 437 183 415 214 q 458 67 458 153 q 436 -52 458 10 q 392 -119 414 -114 q 379 -121 389 -121 q 322 -112 356 -121 q 288 -97 288 -104 q 307 -31 288 -89 q 329 93 329 36 q 315 169 329 135 m 81 185 l 75 206 l 118 206 q 181 195 161 206 q 214 156 201 185 q 228 86 228 118 q 203 -22 228 39 q 157 -87 176 -82 q 136 -89 151 -89 q 58 -75 72 -89 q 56 -67 56 -72 q 72 -4 56 -50 q 92 85 92 54 q 91 97 92 89 q 90 111 90 106 q 81 185 85 164 z "},"":{"ha":363,"x_min":54,"x_max":308,"o":"m 101 665 q 186 678 119 678 q 246 674 232 678 q 274 656 260 671 q 308 550 308 619 q 288 456 308 500 q 254 414 274 425 q 194 400 235 403 q 168 399 185 399 q 72 451 97 399 q 54 538 54 488 q 101 665 54 633 z "},"":{"ha":951,"x_min":53,"x_max":900,"o":"m 53 106 q 63 154 53 144 q 117 164 72 164 q 169 156 156 164 q 192 86 192 144 q 182 49 192 58 q 122 36 169 36 q 65 47 79 36 q 53 106 53 58 m 404 85 q 403 97 404 89 q 403 107 403 104 q 413 140 403 132 q 451 147 422 147 l 481 147 l 539 144 l 546 107 q 547 82 547 97 q 543 56 547 64 q 478 33 532 33 q 443 36 456 33 l 407 43 l 404 85 m 769 133 q 813 147 776 147 l 838 147 l 897 144 l 899 96 q 900 69 900 85 q 885 39 900 47 q 843 33 874 33 q 768 49 776 33 q 761 86 761 60 q 769 133 761 119 z "},"":{"ha":1621,"x_min":58,"x_max":1565,"o":"m 329 882 q 292 951 310 931 l 269 975 l 253 954 q 210 856 226 921 q 194 719 194 790 q 197 661 194 681 q 224 543 206 588 q 264 499 242 499 q 271 500 268 499 q 308 546 285 506 q 342 622 331 586 q 351 719 351 656 q 329 882 351 822 m 163 1003 l 199 1036 l 271 1033 q 338 1027 321 1032 q 378 1007 354 1022 q 463 889 431 969 q 481 739 479 849 q 463 589 481 636 q 357 460 425 493 q 256 440 318 440 l 235 440 q 157 461 192 440 q 64 642 85 503 q 58 719 58 676 q 85 883 58 808 q 163 1003 113 958 m 765 1028 q 813 1033 783 1033 q 865 1019 865 1033 q 686 653 865 1014 q 450 168 493 264 q 397 60 410 79 q 367 38 385 42 q 335 35 357 35 q 291 40 313 35 q 269 51 269 44 q 476 491 269 65 q 721 981 682 917 q 765 1028 746 1024 m 922 544 q 906 567 914 561 q 879 575 897 572 q 873 576 876 575 q 868 576 869 576 q 832 551 851 576 q 783 343 783 486 q 797 201 783 244 q 828 135 808 164 q 858 106 847 106 q 893 142 867 106 q 950 388 950 228 q 922 544 950 489 m 792 633 q 864 646 804 646 q 956 635 922 646 q 1018 596 989 624 q 1082 385 1082 532 q 1076 308 1082 343 q 1011 119 1058 181 q 875 50 964 58 q 847 49 865 49 q 653 339 653 49 l 653 364 q 667 478 653 435 q 706 558 681 521 q 754 607 731 594 q 792 633 768 614 m 1382 536 q 1344 568 1353 568 q 1313 543 1335 568 q 1242 301 1242 456 l 1242 276 q 1256 183 1246 213 q 1297 119 1267 153 l 1332 82 l 1358 110 q 1431 299 1406 158 q 1438 374 1438 343 q 1382 536 1438 471 m 1274 622 q 1344 629 1294 629 l 1356 629 q 1438 604 1393 629 q 1554 464 1526 556 q 1565 374 1565 429 q 1538 202 1565 289 q 1468 79 1510 115 q 1335 38 1419 38 q 1240 56 1282 38 q 1171 106 1203 72 q 1126 178 1139 140 q 1110 293 1110 231 q 1158 503 1110 404 q 1274 622 1206 601 z "},"":{"ha":481,"x_min":58,"x_max":425,"o":"m 304 688 q 331 690 318 690 q 397 678 385 690 q 399 674 399 676 q 360 621 399 661 q 256 508 306 567 q 200 432 207 449 q 196 410 196 422 q 235 342 196 382 q 332 260 317 260 l 333 261 q 379 231 333 267 q 425 183 425 194 q 417 176 425 178 q 401 172 414 176 q 379 165 388 168 q 349 160 357 160 q 236 214 308 160 q 75 371 103 315 l 58 407 l 75 439 q 188 576 89 469 q 304 688 288 683 z "},"":{"ha":450,"x_min":58,"x_max":393,"o":"m 79 685 q 136 693 85 693 l 188 693 l 269 604 q 371 483 343 524 q 393 417 393 451 q 317 288 393 356 q 117 183 200 183 q 94 185 101 183 q 58 201 58 192 q 94 233 58 213 q 213 325 165 274 q 261 413 261 376 q 164 561 261 454 q 78 679 78 656 q 79 685 78 683 z "},"":{"ha":779,"x_min":60,"x_max":721,"o":"m 590 1011 q 615 1031 604 1028 q 664 1035 626 1035 q 721 1026 721 1035 q 668 921 721 1013 q 514 643 629 853 q 329 311 399 433 q 275 213 307 269 q 224 122 243 156 q 200 78 206 88 l 178 36 l 121 33 q 103 33 114 33 q 88 32 92 32 q 60 49 60 32 q 175 276 60 74 q 181 287 179 283 q 187 297 183 290 q 193 308 190 303 q 323 541 228 368 q 495 851 418 714 q 590 1011 572 989 z "},"":{"ha":876,"x_min":61,"x_max":818,"o":"m 460 1001 q 556 1010 496 1010 l 576 1010 q 685 995 647 1008 q 765 944 722 982 q 797 903 797 917 q 765 883 797 888 q 736 881 746 881 q 649 915 688 881 q 558 965 592 965 q 508 942 544 965 q 450 894 471 918 q 343 683 374 810 l 339 661 l 486 661 q 642 651 633 661 q 646 640 646 647 q 592 608 646 619 q 496 603 558 603 q 444 604 461 603 q 374 607 381 607 q 331 599 336 607 q 324 524 324 589 l 324 460 l 463 460 q 606 453 571 460 q 642 428 642 447 q 457 397 642 397 l 331 397 l 336 368 q 407 192 353 278 q 518 83 461 107 q 546 76 539 76 q 578 86 557 76 q 653 144 614 103 l 694 188 l 754 186 q 818 172 818 183 q 774 115 818 157 q 690 54 729 74 q 633 31 653 35 q 549 28 613 28 q 465 31 485 28 q 407 54 444 35 q 284 165 338 89 q 207 336 231 240 l 193 393 l 133 399 q 61 422 61 404 q 64 432 61 424 q 143 460 75 460 l 181 460 l 181 606 l 143 608 q 92 622 113 611 q 72 643 72 632 q 75 651 72 649 q 140 661 82 661 l 197 661 l 203 690 q 272 853 218 771 q 460 1001 346 963 z "},"":{"ha":1110,"x_min":60,"x_max":1058,"o":"m 78 1015 q 153 1026 93 1026 q 265 1024 165 1026 q 451 1015 431 1019 q 463 993 465 1011 q 440 972 461 978 q 364 965 419 967 l 314 965 l 319 867 q 325 646 325 771 q 321 546 325 550 q 282 540 315 540 q 196 553 211 540 q 182 769 183 565 l 181 972 l 149 972 q 86 978 113 972 q 60 992 60 985 q 78 1015 60 1003 m 529 1011 q 585 1018 543 1018 l 592 1018 q 650 997 628 1018 q 721 894 672 975 q 785 803 776 803 q 844 907 789 803 l 896 1007 l 954 1010 l 971 1010 q 1022 1004 1014 1010 q 1042 878 1031 999 q 1057 639 1054 758 l 1058 550 l 1032 543 q 999 539 1017 539 q 935 557 942 539 q 930 611 933 558 q 922 715 926 664 q 915 767 918 767 q 883 726 906 767 q 799 671 851 671 q 765 674 790 671 q 713 697 735 676 q 663 767 690 717 q 635 801 643 801 q 626 761 626 801 q 624 708 626 753 q 621 639 622 664 l 615 557 l 499 557 l 500 681 q 506 906 500 797 q 514 990 510 974 q 529 1011 518 1007 z "},"":{"ha":769,"x_min":54,"x_max":717,"o":"m 147 554 q 460 558 163 556 l 558 558 q 685 555 654 558 q 717 542 717 551 q 713 531 717 536 q 634 506 703 513 q 376 494 565 499 q 219 492 249 492 q 95 497 129 492 q 56 518 61 503 q 54 524 54 521 q 147 554 54 549 z "}}}
